<ttFont>
    <TTGlyph name=".notdef" xMin="68" yMin="0" xMax="612" yMax="1365">
      <contour>
        <pt x="68" y="0" on="1"/>
        <pt x="68" y="1365" on="1"/>
        <pt x="612" y="1365" on="1"/>
        <pt x="612" y="0" on="1"/>
      </contour>
      <contour>
        <pt x="136" y="68" on="1"/>
        <pt x="544" y="68" on="1"/>
        <pt x="544" y="1297" on="1"/>
        <pt x="136" y="1297" on="1"/>
      </contour>
    </TTGlyph>
    <TTGlyph name="A" xMin="-9" yMin="-462" xMax="1775" yMax="1375">
      <contour>
        <pt x="81" y="-64" on="1"/>
        <pt x="84" y="-223" on="1"/>
        <pt x="84" y="-271" on="0"/>
        <pt x="54" y="-320" on="0"/>
        <pt x="33" y="-320" on="1"/>
        <pt x="-9" y="-320" on="0"/>
        <pt x="-9" y="-158" on="0"/>
        <pt x="31" y="39" on="0"/>
        <pt x="46" y="76" on="1"/>
        <pt x="526" y="1257" on="1"/>
        <pt x="536" y="1283" on="0"/>
        <pt x="536" y="1333" on="0"/>
        <pt x="519" y="1357" on="1"/>
        <pt x="547" y="1375" on="1"/>
        <pt x="576" y="1332" on="0"/>
        <pt x="637" y="1332" on="1"/>
        <pt x="1097" y="1332" on="1"/>
        <pt x="1157" y="1332" on="0"/>
        <pt x="1186" y="1375" on="1"/>
        <pt x="1215" y="1357" on="1"/>
        <pt x="1198" y="1333" on="0"/>
        <pt x="1198" y="1289" on="0"/>
        <pt x="1210" y="1258" on="1"/>
        <pt x="1704" y="75" on="1"/>
        <pt x="1727" y="19" on="0"/>
        <pt x="1775" y="-13" on="1"/>
        <pt x="1763" y="-32" on="1"/>
        <pt x="1714" y="0" on="0"/>
        <pt x="1654" y="0" on="1"/>
        <pt x="1458" y="0" on="1"/>
        <pt x="1460" y="-22" on="0"/>
        <pt x="1460" y="-31" on="1"/>
        <pt x="1460" y="-64" on="0"/>
        <pt x="1433" y="-64" on="1"/>
        <pt x="1421" y="-64" on="0"/>
        <pt x="1402" y="-45" on="0"/>
        <pt x="1402" y="-10" on="0"/>
        <pt x="1404" y="0" on="1"/>
        <pt x="1283" y="0" on="1"/>
        <pt x="1239" y="0" on="0"/>
        <pt x="1226" y="-48" on="1"/>
        <pt x="1210" y="-107" on="0"/>
        <pt x="1210" y="-260" on="0"/>
        <pt x="1230" y="-386" on="0"/>
        <pt x="1230" y="-433" on="0"/>
        <pt x="1207" y="-462" on="0"/>
        <pt x="1173" y="-462" on="0"/>
        <pt x="1149" y="-434" on="0"/>
        <pt x="1149" y="-384" on="0"/>
        <pt x="1174" y="-240" on="0"/>
        <pt x="1174" y="-204" on="1"/>
        <pt x="1174" y="77" on="1"/>
        <pt x="1164" y="104" on="0"/>
        <pt x="1164" y="150" on="0"/>
        <pt x="1182" y="176" on="1"/>
        <pt x="1156" y="195" on="1"/>
        <pt x="1126" y="152" on="0"/>
        <pt x="1066" y="152" on="1"/>
        <pt x="655" y="152" on="1"/>
        <pt x="595" y="152" on="0"/>
        <pt x="565" y="194" on="1"/>
        <pt x="539" y="176" on="1"/>
        <pt x="558" y="149" on="0"/>
        <pt x="558" y="103" on="0"/>
        <pt x="551" y="77" on="1"/>
        <pt x="551" y="76" on="1"/>
        <pt x="542" y="42" on="0"/>
        <pt x="542" y="6" on="0"/>
        <pt x="562" y="-23" on="1"/>
        <pt x="536" y="-42" on="1"/>
        <pt x="506" y="0" on="0"/>
        <pt x="446" y="0" on="1"/>
        <pt x="84" y="0" on="1"/>
        <pt x="81" y="-19" on="0"/>
      </contour>
      <contour>
        <pt x="758" y="429" on="1"/>
        <pt x="949" y="429" on="1"/>
        <pt x="1009" y="429" on="0"/>
        <pt x="1057" y="397" on="1"/>
        <pt x="1070" y="416" on="1"/>
        <pt x="1023" y="448" on="0"/>
        <pt x="1002" y="505" on="1"/>
        <pt x="875" y="830" on="1"/>
        <pt x="853" y="887" on="0"/>
        <pt x="852" y="946" on="1"/>
        <pt x="839" y="946" on="1"/>
        <pt x="837" y="880" on="0"/>
        <pt x="819" y="830" on="1"/>
        <pt x="704" y="506" on="1"/>
        <pt x="683" y="448" on="0"/>
        <pt x="637" y="416" on="1"/>
        <pt x="650" y="396" on="1"/>
        <pt x="697" y="429" on="0"/>
      </contour>
      <contour>
        <pt x="1407" y="-331" on="1"/>
        <pt x="1407" y="-262" on="0"/>
        <pt x="1433" y="-158" on="1"/>
        <pt x="1462" y="-278" on="0"/>
        <pt x="1462" y="-314" on="1"/>
        <pt x="1462" y="-367" on="0"/>
        <pt x="1407" y="-367" on="0"/>
      </contour>
    </TTGlyph>
    <TTGlyph name="AE" xMin="-38" yMin="-807" xMax="2727" yMax="1375">
      <contour>
        <pt x="2136" y="557" on="1"/>
        <pt x="1713" y="556" on="1"/>
        <pt x="1713" y="338" on="1"/>
        <pt x="2607" y="337" on="1"/>
        <pt x="2668" y="337" on="0"/>
        <pt x="2706" y="376" on="1"/>
        <pt x="2727" y="356" on="1"/>
        <pt x="2670" y="251" on="0"/>
        <pt x="2670" y="-17" on="1"/>
        <pt x="2670" y="-59" on="0"/>
        <pt x="2708" y="-300" on="0"/>
        <pt x="2708" y="-379" on="0"/>
        <pt x="2682" y="-417" on="0"/>
        <pt x="2646" y="-417" on="0"/>
        <pt x="2619" y="-375" on="0"/>
        <pt x="2619" y="-338" on="1"/>
        <pt x="2634" y="-117" on="1"/>
        <pt x="2634" y="-29" on="0"/>
        <pt x="2572" y="60" on="0"/>
        <pt x="2519" y="60" on="1"/>
        <pt x="2401" y="60" on="0"/>
        <pt x="2401" y="-119" on="1"/>
        <pt x="2401" y="-188" on="0"/>
        <pt x="2442" y="-450" on="0"/>
        <pt x="2442" y="-516" on="0"/>
        <pt x="2411" y="-551" on="0"/>
        <pt x="2372" y="-551" on="0"/>
        <pt x="2343" y="-518" on="0"/>
        <pt x="2343" y="-490" on="1"/>
        <pt x="2361" y="-171" on="1"/>
        <pt x="2361" y="4" on="0"/>
        <pt x="2287" y="4" on="1"/>
        <pt x="2210" y="2" on="1"/>
        <pt x="1442" y="2" on="1"/>
        <pt x="1437" y="0" on="1"/>
        <pt x="1437" y="-29" on="1"/>
        <pt x="1437" y="-58" on="0"/>
        <pt x="1383" y="-58" on="0"/>
        <pt x="1383" y="-29" on="1"/>
        <pt x="1383" y="0" on="1"/>
        <pt x="1297" y="-9" on="0"/>
        <pt x="1245" y="-118" on="0"/>
        <pt x="1245" y="-333" on="0"/>
        <pt x="1291" y="-626" on="0"/>
        <pt x="1291" y="-700" on="1"/>
        <pt x="1291" y="-807" on="0"/>
        <pt x="1215" y="-807" on="1"/>
        <pt x="1134" y="-807" on="0"/>
        <pt x="1134" y="-697" on="1"/>
        <pt x="1134" y="-622" on="0"/>
        <pt x="1200" y="-328" on="0"/>
        <pt x="1200" y="-252" on="1"/>
        <pt x="1195" y="83" on="1"/>
        <pt x="1195" y="153" on="1"/>
        <pt x="1166" y="152" on="0"/>
        <pt x="1109" y="152" on="1"/>
        <pt x="697" y="152" on="1"/>
        <pt x="638" y="152" on="0"/>
        <pt x="625" y="194" on="1"/>
        <pt x="591" y="176" on="1"/>
        <pt x="595" y="167" on="0"/>
        <pt x="595" y="122" on="0"/>
        <pt x="562" y="77" on="1"/>
        <pt x="560" y="76" on="1"/>
        <pt x="527" y="32" on="0"/>
        <pt x="527" y="-14" on="0"/>
        <pt x="531" y="-23" on="1"/>
        <pt x="498" y="-42" on="1"/>
        <pt x="485" y="0" on="0"/>
        <pt x="426" y="0" on="1"/>
        <pt x="64" y="0" on="1"/>
        <pt x="56" y="-64" on="1"/>
        <pt x="58" y="-166" on="0"/>
        <pt x="58" y="-263" on="0"/>
        <pt x="27" y="-310" on="0"/>
        <pt x="-11" y="-310" on="0"/>
        <pt x="-38" y="-269" on="0"/>
        <pt x="-38" y="-151" on="0"/>
        <pt x="-6" y="-3" on="0"/>
        <pt x="14" y="21" on="1"/>
        <pt x="1034" y="1257" on="1"/>
        <pt x="1073" y="1306" on="0"/>
        <pt x="1073" y="1348" on="0"/>
        <pt x="1070" y="1357" on="1"/>
        <pt x="1106" y="1375" on="1"/>
        <pt x="1119" y="1332" on="0"/>
        <pt x="1178" y="1332" on="1"/>
        <pt x="1638" y="1332" on="1"/>
        <pt x="2560" y="1330" on="1"/>
        <pt x="2621" y="1330" on="0"/>
        <pt x="2660" y="1369" on="1"/>
        <pt x="2680" y="1348" on="1"/>
        <pt x="2637" y="1305" on="0"/>
        <pt x="2637" y="1196" on="1"/>
        <pt x="2637" y="1131" on="1"/>
        <pt x="2637" y="1016" on="0"/>
        <pt x="2680" y="976" on="1"/>
        <pt x="2660" y="957" on="1"/>
        <pt x="2610" y="1008" on="0"/>
        <pt x="2425" y="1008" on="1"/>
        <pt x="1928" y="985" on="1"/>
        <pt x="1744" y="985" on="0"/>
        <pt x="1694" y="1036" on="1"/>
        <pt x="1674" y="1016" on="1"/>
        <pt x="1713" y="978" on="0"/>
        <pt x="1713" y="917" on="1"/>
        <pt x="1713" y="822" on="1"/>
        <pt x="1714" y="822" on="1"/>
        <pt x="2134" y="823" on="1"/>
        <pt x="2290" y="823" on="0"/>
        <pt x="2340" y="873" on="1"/>
        <pt x="2360" y="853" on="1"/>
        <pt x="2316" y="813" on="0"/>
        <pt x="2316" y="693" on="1"/>
        <pt x="2316" y="659" on="1"/>
        <pt x="2316" y="565" on="0"/>
        <pt x="2360" y="527" on="1"/>
        <pt x="2340" y="507" on="1"/>
        <pt x="2292" y="557" on="0"/>
      </contour>
      <contour>
        <pt x="917" y="429" on="1"/>
        <pt x="1109" y="429" on="1"/>
        <pt x="1173" y="429" on="0"/>
        <pt x="1195" y="428" on="1"/>
        <pt x="1195" y="903" on="1"/>
        <pt x="1169" y="856" on="0"/>
        <pt x="1148" y="830" on="1"/>
        <pt x="895" y="506" on="1"/>
        <pt x="891" y="501" on="0"/>
        <pt x="873" y="478" on="0"/>
        <pt x="868" y="473" on="1"/>
        <pt x="854" y="457" on="0"/>
        <pt x="840" y="448" on="1"/>
        <pt x="844" y="428" on="1"/>
        <pt x="869" y="429" on="0"/>
      </contour>
      <contour>
        <pt x="33" y="-598" on="1"/>
        <pt x="31" y="-631" on="0"/>
        <pt x="6" y="-631" on="1"/>
        <pt x="-5" y="-631" on="0"/>
        <pt x="-23" y="-612" on="0"/>
        <pt x="-23" y="-539" on="0"/>
        <pt x="6" y="-423" on="1"/>
        <pt x="33" y="-544" on="0"/>
      </contour>
    </TTGlyph>
    <TTGlyph name="Aacute" xMin="-9" yMin="-462" xMax="1775" yMax="2012">
      <component glyphName="acute" x="705" y="431" flags="0x1004"/>
      <component glyphName="A" x="0" y="0" flags="0x1204"/>
    </TTGlyph>
    <TTGlyph name="Abreve" xMin="-9" yMin="-462" xMax="1775" yMax="1845">
      <component glyphName="breve" x="424" y="134" flags="0x1004"/>
      <component glyphName="A" x="0" y="0" flags="0x1204"/>
    </TTGlyph>
    <TTGlyph name="Acircumflex" xMin="-9" yMin="-462" xMax="1775" yMax="1979">
      <component glyphName="circumflex" x="320" y="415" flags="0x1004"/>
      <component glyphName="A" x="0" y="0" flags="0x1204"/>
    </TTGlyph>
    <TTGlyph name="Adieresis" xMin="-9" yMin="-462" xMax="1775" yMax="1807">
      <component glyphName="dieresis" x="230" y="428" flags="0x1004"/>
      <component glyphName="A" x="0" y="0" flags="0x1204"/>
    </TTGlyph>
    <TTGlyph name="Agrave" xMin="-9" yMin="-462" xMax="1775" yMax="2147">
      <component glyphName="grave" x="181" y="564" flags="0x1004"/>
      <component glyphName="A" x="0" y="0" flags="0x1204"/>
    </TTGlyph>
    <TTGlyph name="Amacron" xMin="-9" yMin="-462" xMax="1775" yMax="1828">
      <component glyphName="macron" x="312" y="944" flags="0x1004"/>
      <component glyphName="A" x="0" y="0" flags="0x1204"/>
    </TTGlyph>
    <TTGlyph name="Aogonek" xMin="-1" yMin="-462" xMax="1783" yMax="1375">
      <component glyphName="ogonek" x="1214" y="74" flags="0x1004"/>
      <component glyphName="A" x="8" y="0" flags="0x1004"/>
    </TTGlyph>
    <TTGlyph name="Aring" xMin="-9" yMin="-462" xMax="1775" yMax="2180">
      <component glyphName="ring" x="420" y="76" flags="0x1004"/>
      <component glyphName="A" x="0" y="0" flags="0x1204"/>
    </TTGlyph>
    <TTGlyph name="Atilde" xMin="-9" yMin="-462" xMax="1775" yMax="1978">
      <component glyphName="tilde" x="190" y="424" flags="0x1004"/>
      <component glyphName="A" x="0" y="0" flags="0x1204"/>
    </TTGlyph>
    <TTGlyph name="B" xMin="138" yMin="-844" xMax="1887" yMax="1372">
      <contour>
        <pt x="305" y="0" on="1"/>
        <pt x="327" y="-183" on="1"/>
        <pt x="327" y="-244" on="0"/>
        <pt x="242" y="-244" on="0"/>
        <pt x="242" y="-184" on="1"/>
        <pt x="242" y="-156" on="0"/>
        <pt x="266" y="-46" on="0"/>
        <pt x="266" y="38" on="0"/>
        <pt x="242" y="38" on="1"/>
        <pt x="223" y="38" on="0"/>
        <pt x="205" y="-21" on="0"/>
        <pt x="205" y="-106" on="0"/>
        <pt x="234" y="-347" on="0"/>
        <pt x="234" y="-466" on="0"/>
        <pt x="144" y="-466" on="0"/>
        <pt x="144" y="-351" on="0"/>
        <pt x="176" y="-148" on="0"/>
        <pt x="176" y="-97" on="1"/>
        <pt x="177" y="1251" on="1"/>
        <pt x="177" y="1313" on="0"/>
        <pt x="138" y="1351" on="1"/>
        <pt x="158" y="1372" on="1"/>
        <pt x="200" y="1332" on="0"/>
        <pt x="258" y="1332" on="1"/>
        <pt x="1104" y="1332" on="1"/>
        <pt x="1119" y="1332" on="0"/>
        <pt x="1195" y="1334" on="0"/>
        <pt x="1299" y="1330" on="0"/>
        <pt x="1408" y="1327" on="0"/>
        <pt x="1517" y="1309" on="0"/>
        <pt x="1617" y="1284" on="0"/>
        <pt x="1703" y="1236" on="0"/>
        <pt x="1735" y="1206" on="1"/>
        <pt x="1804" y="1140" on="0"/>
        <pt x="1804" y="936" on="0"/>
        <pt x="1710" y="785" on="0"/>
        <pt x="1625" y="778" on="1"/>
        <pt x="1627" y="758" on="1"/>
        <pt x="1686" y="763" on="0"/>
        <pt x="1788" y="698" on="0"/>
        <pt x="1820" y="644" on="1"/>
        <pt x="1887" y="530" on="0"/>
        <pt x="1887" y="334" on="0"/>
        <pt x="1830" y="200" on="0"/>
        <pt x="1728" y="112" on="0"/>
        <pt x="1604" y="48" on="0"/>
        <pt x="1528" y="32" on="1"/>
        <pt x="1383" y="0" on="0"/>
        <pt x="1240" y="0" on="1"/>
      </contour>
      <contour>
        <pt x="652" y="519" on="1"/>
        <pt x="691" y="480" on="0"/>
        <pt x="691" y="356" on="0"/>
        <pt x="652" y="317" on="1"/>
        <pt x="672" y="296" on="1"/>
        <pt x="712" y="336" on="0"/>
        <pt x="772" y="336" on="1"/>
        <pt x="1165" y="336" on="1"/>
        <pt x="1172" y="336" on="0"/>
        <pt x="1218" y="335" on="0"/>
        <pt x="1237" y="336" on="0"/>
        <pt x="1276" y="340" on="0"/>
        <pt x="1295" y="351" on="0"/>
        <pt x="1306" y="360" on="1"/>
        <pt x="1327" y="375" on="0"/>
        <pt x="1327" y="461" on="0"/>
        <pt x="1257" y="503" on="0"/>
        <pt x="1212" y="503" on="1"/>
        <pt x="772" y="500" on="1"/>
        <pt x="711" y="500" on="0"/>
        <pt x="672" y="539" on="1"/>
      </contour>
      <contour>
        <pt x="849" y="844" on="1"/>
        <pt x="1083" y="834" on="1"/>
        <pt x="1203" y="834" on="0"/>
        <pt x="1236" y="877" on="1"/>
        <pt x="1252" y="898" on="0"/>
        <pt x="1252" y="953" on="0"/>
        <pt x="1230" y="969" on="1"/>
        <pt x="1193" y="995" on="0"/>
        <pt x="1133" y="995" on="1"/>
        <pt x="772" y="994" on="1"/>
        <pt x="717" y="994" on="0"/>
        <pt x="677" y="1032" on="1"/>
        <pt x="658" y="1012" on="1"/>
        <pt x="697" y="973" on="0"/>
        <pt x="697" y="861" on="0"/>
        <pt x="658" y="820" on="1"/>
        <pt x="677" y="801" on="1"/>
        <pt x="721" y="844" on="0"/>
      </contour>
      <contour>
        <pt x="352" y="-712" on="0"/>
        <pt x="362" y="-769" on="0"/>
        <pt x="362" y="-844" on="0"/>
        <pt x="294" y="-844" on="0"/>
        <pt x="294" y="-795" on="1"/>
        <pt x="294" y="-745" on="0"/>
        <pt x="325" y="-629" on="0"/>
        <pt x="328" y="-616" on="1"/>
        <pt x="331" y="-631" on="0"/>
      </contour>
    </TTGlyph>
    <TTGlyph name="C" xMin="78" yMin="-649" xMax="1903" yMax="1375">
      <contour>
        <pt x="693" y="-499" on="1"/>
        <pt x="712" y="-24" on="1"/>
        <pt x="407" y="19" on="0"/>
        <pt x="78" y="373" on="0"/>
        <pt x="78" y="679" on="1"/>
        <pt x="78" y="1005" on="0"/>
        <pt x="292" y="1180" on="1"/>
        <pt x="528" y="1375" on="0"/>
        <pt x="993" y="1375" on="1"/>
        <pt x="1738" y="1375" on="0"/>
        <pt x="1826" y="947" on="1"/>
        <pt x="1838" y="885" on="0"/>
        <pt x="1879" y="852" on="1"/>
        <pt x="1862" y="830" on="1"/>
        <pt x="1814" y="866" on="0"/>
        <pt x="1758" y="861" on="1"/>
        <pt x="1373" y="837" on="1"/>
        <pt x="1306" y="832" on="0"/>
        <pt x="1286" y="788" on="1"/>
        <pt x="1253" y="804" on="1"/>
        <pt x="1263" y="826" on="0"/>
        <pt x="1263" y="842" on="1"/>
        <pt x="1263" y="894" on="0"/>
        <pt x="1194" y="971" on="0"/>
        <pt x="1141" y="990" on="1"/>
        <pt x="1038" y="1027" on="0"/>
        <pt x="941" y="1027" on="1"/>
        <pt x="793" y="1027" on="0"/>
        <pt x="628" y="826" on="0"/>
        <pt x="628" y="505" on="0"/>
        <pt x="815" y="302" on="0"/>
        <pt x="984" y="302" on="1"/>
        <pt x="1038" y="302" on="0"/>
        <pt x="1171" y="355" on="0"/>
        <pt x="1274" y="455" on="0"/>
        <pt x="1274" y="511" on="1"/>
        <pt x="1274" y="527" on="0"/>
        <pt x="1263" y="551" on="1"/>
        <pt x="1296" y="568" on="1"/>
        <pt x="1320" y="523" on="0"/>
        <pt x="1427" y="515" on="0"/>
        <pt x="1512" y="508" on="1"/>
        <pt x="1699" y="491" on="0"/>
        <pt x="1845" y="491" on="0"/>
        <pt x="1887" y="522" on="1"/>
        <pt x="1903" y="501" on="1"/>
        <pt x="1866" y="473" on="0"/>
        <pt x="1829" y="322" on="0"/>
        <pt x="1723" y="183" on="0"/>
        <pt x="1590" y="92" on="0"/>
        <pt x="1502" y="58" on="1"/>
        <pt x="1351" y="-2" on="0"/>
        <pt x="1171" y="-27" on="1"/>
        <pt x="1171" y="-119" on="0"/>
        <pt x="1219" y="-481" on="0"/>
        <pt x="1219" y="-601" on="0"/>
        <pt x="1190" y="-649" on="0"/>
        <pt x="1134" y="-649" on="0"/>
        <pt x="1104" y="-601" on="0"/>
        <pt x="1104" y="-496" on="0"/>
        <pt x="1137" y="-194" on="0"/>
        <pt x="1137" y="-92" on="0"/>
        <pt x="1127" y="-56" on="0"/>
        <pt x="1113" y="-37" on="0"/>
        <pt x="1096" y="-32" on="1"/>
        <pt x="1057" y="-22" on="0"/>
        <pt x="1002" y="-27" on="1"/>
        <pt x="892" y="-36" on="0"/>
        <pt x="892" y="-64" on="1"/>
        <pt x="916" y="-336" on="1"/>
        <pt x="916" y="-401" on="0"/>
        <pt x="840" y="-401" on="0"/>
        <pt x="840" y="-291" on="0"/>
        <pt x="867" y="-109" on="0"/>
        <pt x="867" y="-30" on="0"/>
        <pt x="841" y="-30" on="1"/>
        <pt x="790" y="-30" on="0"/>
        <pt x="755" y="-52" on="0"/>
        <pt x="755" y="-61" on="1"/>
        <pt x="766" y="-494" on="1"/>
        <pt x="766" y="-511" on="0"/>
        <pt x="744" y="-538" on="0"/>
        <pt x="712" y="-538" on="0"/>
        <pt x="693" y="-515" on="0"/>
      </contour>
    </TTGlyph>
    <TTGlyph name="Cacute" xMin="78" yMin="-649" xMax="1903" yMax="2012">
      <component glyphName="acute" x="812" y="431" flags="0x1004"/>
      <component glyphName="C" x="0" y="0" flags="0x1204"/>
    </TTGlyph>
    <TTGlyph name="Ccaron" xMin="78" yMin="-649" xMax="1903" yMax="1978">
      <component glyphName="caron" x="482" y="415" flags="0x1004"/>
      <component glyphName="C" x="0" y="0" flags="0x1204"/>
    </TTGlyph>
    <TTGlyph name="Ccedilla" xMin="78" yMin="-530" xMax="1903" yMax="1375">
      <contour>
        <pt x="189" y="238" on="0"/>
        <pt x="78" y="507" on="0"/>
        <pt x="78" y="793" on="0"/>
        <pt x="131" y="984" on="0"/>
        <pt x="224" y="1125" on="0"/>
        <pt x="359" y="1236" on="0"/>
        <pt x="515" y="1308" on="0"/>
        <pt x="608" y="1332" on="1"/>
        <pt x="780" y="1375" on="0"/>
        <pt x="993" y="1375" on="1"/>
        <pt x="1738" y="1375" on="0"/>
        <pt x="1826" y="947" on="1"/>
        <pt x="1838" y="885" on="0"/>
        <pt x="1879" y="852" on="1"/>
        <pt x="1862" y="830" on="1"/>
        <pt x="1819" y="861" on="0"/>
        <pt x="1769" y="861" on="1"/>
        <pt x="1764" y="861" on="0"/>
        <pt x="1758" y="861" on="1"/>
        <pt x="1373" y="837" on="1"/>
        <pt x="1306" y="832" on="0"/>
        <pt x="1286" y="788" on="1"/>
        <pt x="1253" y="804" on="1"/>
        <pt x="1263" y="826" on="0"/>
        <pt x="1263" y="842" on="1"/>
        <pt x="1263" y="894" on="0"/>
        <pt x="1194" y="971" on="0"/>
        <pt x="1141" y="990" on="1"/>
        <pt x="1038" y="1027" on="0"/>
        <pt x="941" y="1027" on="1"/>
        <pt x="793" y="1027" on="0"/>
        <pt x="628" y="826" on="0"/>
        <pt x="628" y="505" on="0"/>
        <pt x="815" y="302" on="0"/>
        <pt x="984" y="302" on="1"/>
        <pt x="1038" y="302" on="0"/>
        <pt x="1171" y="355" on="0"/>
        <pt x="1274" y="455" on="0"/>
        <pt x="1274" y="511" on="1"/>
        <pt x="1274" y="527" on="0"/>
        <pt x="1263" y="551" on="1"/>
        <pt x="1296" y="568" on="1"/>
        <pt x="1320" y="523" on="0"/>
        <pt x="1427" y="515" on="0"/>
        <pt x="1512" y="508" on="1"/>
        <pt x="1699" y="491" on="0"/>
        <pt x="1845" y="491" on="0"/>
        <pt x="1887" y="522" on="1"/>
        <pt x="1903" y="501" on="1"/>
        <pt x="1866" y="473" on="0"/>
        <pt x="1833" y="342" on="0"/>
        <pt x="1764" y="227" on="0"/>
        <pt x="1668" y="138" on="0"/>
        <pt x="1545" y="64" on="0"/>
        <pt x="1411" y="12" on="0"/>
        <pt x="1336" y="-7" on="1"/>
        <pt x="1195" y="-43" on="0"/>
        <pt x="1040" y="-51" on="1"/>
        <pt x="1023" y="-93" on="1"/>
        <pt x="1288" y="-134" on="0"/>
        <pt x="1288" y="-312" on="1"/>
        <pt x="1288" y="-453" on="0"/>
        <pt x="1173" y="-505" on="1"/>
        <pt x="1118" y="-530" on="0"/>
        <pt x="921" y="-530" on="0"/>
        <pt x="793" y="-489" on="1"/>
        <pt x="814" y="-358" on="1"/>
        <pt x="906" y="-391" on="0"/>
        <pt x="963" y="-391" on="1"/>
        <pt x="1061" y="-391" on="0"/>
        <pt x="1075" y="-314" on="1"/>
        <pt x="1077" y="-304" on="0"/>
        <pt x="1077" y="-282" on="0"/>
        <pt x="1070" y="-255" on="0"/>
        <pt x="1047" y="-221" on="0"/>
        <pt x="1029" y="-208" on="1"/>
        <pt x="986" y="-176" on="0"/>
        <pt x="904" y="-176" on="1"/>
        <pt x="879" y="-176" on="0"/>
        <pt x="865" y="-177" on="1"/>
        <pt x="865" y="-50" on="1"/>
        <pt x="502" y="-30" on="0"/>
        <pt x="293" y="149" on="1"/>
      </contour>
    </TTGlyph>
    <TTGlyph name="Ccircumflex" xMin="78" yMin="-649" xMax="1903" yMax="1979">
      <component glyphName="circumflex" x="428" y="415" flags="0x1004"/>
      <component glyphName="C" x="0" y="0" flags="0x1204"/>
    </TTGlyph>
    <TTGlyph name="Cdotaccent" xMin="78" yMin="-649" xMax="1903" yMax="1847">
      <component glyphName="dotaccent" x="634" y="61" flags="0x1004"/>
      <component glyphName="C" x="0" y="0" flags="0x1204"/>
    </TTGlyph>
    <TTGlyph name="D" xMin="134" yMin="-647" xMax="1862" yMax="1372">
      <contour>
        <pt x="688" y="-247" on="1"/>
        <pt x="709" y="-105" on="1"/>
        <pt x="709" y="42" on="0"/>
        <pt x="395" y="42" on="1"/>
        <pt x="341" y="42" on="0"/>
        <pt x="299" y="-8" on="0"/>
        <pt x="299" y="-128" on="0"/>
        <pt x="335" y="-341" on="0"/>
        <pt x="335" y="-454" on="0"/>
        <pt x="245" y="-454" on="0"/>
        <pt x="245" y="-335" on="0"/>
        <pt x="273" y="-95" on="0"/>
        <pt x="273" y="-52" on="1"/>
        <pt x="273" y="50" on="0"/>
        <pt x="236" y="50" on="1"/>
        <pt x="212" y="50" on="0"/>
        <pt x="212" y="-7" on="1"/>
        <pt x="236" y="-173" on="1"/>
        <pt x="236" y="-232" on="0"/>
        <pt x="151" y="-232" on="0"/>
        <pt x="151" y="-172" on="1"/>
        <pt x="174" y="12" on="1"/>
        <pt x="173" y="178" on="1"/>
        <pt x="173" y="1251" on="1"/>
        <pt x="173" y="1313" on="0"/>
        <pt x="134" y="1351" on="1"/>
        <pt x="154" y="1372" on="1"/>
        <pt x="195" y="1332" on="0"/>
        <pt x="254" y="1332" on="1"/>
        <pt x="1080" y="1332" on="1"/>
        <pt x="1678" y="1332" on="0"/>
        <pt x="1822" y="943" on="1"/>
        <pt x="1862" y="833" on="0"/>
        <pt x="1862" y="584" on="0"/>
        <pt x="1831" y="405" on="0"/>
        <pt x="1783" y="270" on="0"/>
        <pt x="1696" y="166" on="0"/>
        <pt x="1609" y="95" on="0"/>
        <pt x="1475" y="45" on="0"/>
        <pt x="1361" y="18" on="0"/>
        <pt x="1275" y="11" on="1"/>
        <pt x="1140" y="0" on="0"/>
        <pt x="958" y="0" on="1"/>
        <pt x="813" y="0" on="1"/>
        <pt x="729" y="0" on="0"/>
        <pt x="729" y="-120" on="1"/>
        <pt x="745" y="-248" on="1"/>
        <pt x="745" y="-286" on="0"/>
        <pt x="719" y="-286" on="1"/>
        <pt x="688" y="-286" on="0"/>
      </contour>
      <contour>
        <pt x="1292" y="481" on="0"/>
        <pt x="1326" y="608" on="0"/>
        <pt x="1326" y="787" on="0"/>
        <pt x="1266" y="907" on="0"/>
        <pt x="1166" y="963" on="0"/>
        <pt x="1044" y="990" on="0"/>
        <pt x="910" y="993" on="0"/>
        <pt x="852" y="994" on="1"/>
        <pt x="710" y="996" on="0"/>
        <pt x="670" y="1036" on="1"/>
        <pt x="650" y="1016" on="1"/>
        <pt x="688" y="979" on="0"/>
        <pt x="688" y="916" on="1"/>
        <pt x="688" y="686" on="1"/>
        <pt x="688" y="456" on="0"/>
        <pt x="690" y="342" on="1"/>
        <pt x="917" y="342" on="1"/>
        <pt x="1088" y="342" on="0"/>
        <pt x="1231" y="402" on="0"/>
      </contour>
      <contour>
        <pt x="752" y="-647" on="0"/>
        <pt x="685" y="-647" on="0"/>
        <pt x="685" y="-572" on="0"/>
        <pt x="694" y="-516" on="0"/>
        <pt x="716" y="-429" on="0"/>
        <pt x="718" y="-418" on="1"/>
        <pt x="721" y="-431" on="0"/>
        <pt x="737" y="-492" on="0"/>
        <pt x="741" y="-509" on="1"/>
        <pt x="752" y="-556" on="0"/>
      </contour>
    </TTGlyph>
    <TTGlyph name="Dcaron" xMin="134" yMin="-647" xMax="1862" yMax="1978">
      <component glyphName="caron" x="490" y="415" flags="0x1004"/>
      <component glyphName="D" x="0" y="0" flags="0x1204"/>
    </TTGlyph>
    <TTGlyph name="Dcroat" xMin="68" yMin="-647" xMax="1907" yMax="1372">
      <component glyphName="Eth" x="0" y="0" flags="0x1204"/>
    </TTGlyph>
    <TTGlyph name="E" xMin="104" yMin="-807" xMax="1697" yMax="1369">
      <contour>
        <pt x="721" y="166" on="1"/>
        <pt x="705" y="290" on="1"/>
        <pt x="705" y="301" on="1"/>
        <pt x="726" y="338" on="0"/>
        <pt x="762" y="338" on="1"/>
        <pt x="1578" y="337" on="1"/>
        <pt x="1639" y="337" on="0"/>
        <pt x="1677" y="376" on="1"/>
        <pt x="1697" y="356" on="1"/>
        <pt x="1641" y="253" on="0"/>
        <pt x="1641" y="-17" on="1"/>
        <pt x="1641" y="-59" on="0"/>
        <pt x="1678" y="-300" on="0"/>
        <pt x="1678" y="-379" on="0"/>
        <pt x="1652" y="-417" on="0"/>
        <pt x="1616" y="-417" on="0"/>
        <pt x="1589" y="-375" on="0"/>
        <pt x="1589" y="-338" on="1"/>
        <pt x="1605" y="-117" on="1"/>
        <pt x="1605" y="-29" on="0"/>
        <pt x="1543" y="60" on="0"/>
        <pt x="1490" y="60" on="1"/>
        <pt x="1371" y="60" on="0"/>
        <pt x="1371" y="-119" on="1"/>
        <pt x="1371" y="-188" on="0"/>
        <pt x="1412" y="-450" on="0"/>
        <pt x="1412" y="-516" on="0"/>
        <pt x="1382" y="-551" on="0"/>
        <pt x="1343" y="-551" on="0"/>
        <pt x="1314" y="-518" on="0"/>
        <pt x="1314" y="-490" on="1"/>
        <pt x="1332" y="-171" on="1"/>
        <pt x="1332" y="4" on="0"/>
        <pt x="1257" y="4" on="1"/>
        <pt x="1181" y="2" on="1"/>
        <pt x="395" y="2" on="1"/>
        <pt x="306" y="2" on="0"/>
        <pt x="264" y="-32" on="1"/>
        <pt x="216" y="-72" on="0"/>
        <pt x="216" y="-258" on="1"/>
        <pt x="216" y="-333" on="0"/>
        <pt x="262" y="-626" on="0"/>
        <pt x="262" y="-700" on="1"/>
        <pt x="262" y="-807" on="0"/>
        <pt x="186" y="-807" on="1"/>
        <pt x="104" y="-807" on="0"/>
        <pt x="104" y="-697" on="1"/>
        <pt x="104" y="-622" on="0"/>
        <pt x="170" y="-328" on="0"/>
        <pt x="170" y="-252" on="1"/>
        <pt x="165" y="83" on="1"/>
        <pt x="165" y="1249" on="1"/>
        <pt x="165" y="1311" on="0"/>
        <pt x="127" y="1348" on="1"/>
        <pt x="147" y="1369" on="1"/>
        <pt x="188" y="1330" on="0"/>
        <pt x="247" y="1330" on="1"/>
        <pt x="1531" y="1330" on="1"/>
        <pt x="1592" y="1330" on="0"/>
        <pt x="1631" y="1369" on="1"/>
        <pt x="1651" y="1348" on="1"/>
        <pt x="1607" y="1304" on="0"/>
        <pt x="1607" y="1176" on="1"/>
        <pt x="1607" y="1131" on="1"/>
        <pt x="1607" y="1018" on="0"/>
        <pt x="1651" y="976" on="1"/>
        <pt x="1631" y="957" on="1"/>
        <pt x="1581" y="1008" on="0"/>
        <pt x="1396" y="1008" on="1"/>
        <pt x="899" y="985" on="1"/>
        <pt x="715" y="985" on="0"/>
        <pt x="665" y="1036" on="1"/>
        <pt x="644" y="1016" on="1"/>
        <pt x="683" y="978" on="0"/>
        <pt x="683" y="853" on="0"/>
        <pt x="644" y="815" on="1"/>
        <pt x="665" y="796" on="1"/>
        <pt x="713" y="846" on="0"/>
        <pt x="867" y="846" on="1"/>
        <pt x="1286" y="823" on="1"/>
        <pt x="1441" y="823" on="0"/>
        <pt x="1491" y="873" on="1"/>
        <pt x="1512" y="853" on="1"/>
        <pt x="1468" y="809" on="0"/>
        <pt x="1468" y="669" on="1"/>
        <pt x="1468" y="630" on="1"/>
        <pt x="1468" y="523" on="0"/>
        <pt x="1512" y="479" on="1"/>
        <pt x="1491" y="458" on="1"/>
        <pt x="1443" y="508" on="0"/>
        <pt x="1288" y="508" on="1"/>
        <pt x="869" y="486" on="1"/>
        <pt x="715" y="486" on="0"/>
        <pt x="665" y="536" on="1"/>
        <pt x="645" y="516" on="1"/>
        <pt x="687" y="473" on="0"/>
        <pt x="687" y="366" on="1"/>
        <pt x="685" y="288" on="1"/>
        <pt x="668" y="168" on="1"/>
        <pt x="668" y="132" on="0"/>
        <pt x="721" y="132" on="0"/>
      </contour>
    </TTGlyph>
    <TTGlyph name="E_E" xMin="104" yMin="-807" xMax="3253" yMax="1369">
      <contour>
        <pt x="3209" y="132" on="1"/>
        <pt x="3209" y="27" on="0"/>
        <pt x="3253" y="-17" on="1"/>
        <pt x="3233" y="-37" on="1"/>
        <pt x="3192" y="2" on="0"/>
        <pt x="3134" y="2" on="1"/>
        <pt x="2159" y="2" on="1"/>
        <pt x="2131" y="2" on="0"/>
        <pt x="2085" y="-36" on="0"/>
        <pt x="2085" y="-63" on="1"/>
        <pt x="2085" y="-292" on="1"/>
        <pt x="2085" y="-342" on="0"/>
        <pt x="2127" y="-536" on="0"/>
        <pt x="2127" y="-620" on="0"/>
        <pt x="2091" y="-674" on="0"/>
        <pt x="2028" y="-674" on="0"/>
        <pt x="1997" y="-618" on="0"/>
        <pt x="1997" y="-526" on="0"/>
        <pt x="2042" y="-302" on="0"/>
        <pt x="2042" y="-217" on="0"/>
        <pt x="2041" y="-187" on="0"/>
        <pt x="2037" y="-117" on="0"/>
        <pt x="2024" y="-73" on="0"/>
        <pt x="2014" y="-48" on="1"/>
        <pt x="1994" y="2" on="0"/>
        <pt x="1945" y="2" on="1"/>
        <pt x="1870" y="3" on="1"/>
        <pt x="1828" y="3" on="0"/>
        <pt x="1799" y="-9" on="0"/>
        <pt x="1772" y="-25" on="0"/>
        <pt x="1766" y="-37" on="1"/>
        <pt x="1751" y="-67" on="0"/>
        <pt x="1751" y="-152" on="0"/>
        <pt x="1777" y="-318" on="0"/>
        <pt x="1777" y="-422" on="0"/>
        <pt x="1687" y="-422" on="0"/>
        <pt x="1687" y="-316" on="0"/>
        <pt x="1725" y="-149" on="0"/>
        <pt x="1725" y="-106" on="1"/>
        <pt x="1722" y="1249" on="1"/>
        <pt x="1722" y="1310" on="0"/>
        <pt x="1683" y="1348" on="1"/>
        <pt x="1703" y="1369" on="1"/>
        <pt x="1744" y="1330" on="0"/>
        <pt x="1803" y="1330" on="1"/>
        <pt x="3087" y="1330" on="1"/>
        <pt x="3146" y="1330" on="0"/>
        <pt x="3187" y="1369" on="1"/>
        <pt x="3207" y="1348" on="1"/>
        <pt x="3163" y="1302" on="0"/>
        <pt x="3163" y="1165" on="1"/>
        <pt x="3163" y="1120" on="1"/>
        <pt x="3163" y="1020" on="0"/>
        <pt x="3207" y="976" on="1"/>
        <pt x="3187" y="957" on="1"/>
        <pt x="3136" y="1008" on="0"/>
        <pt x="2952" y="1008" on="1"/>
        <pt x="2455" y="985" on="1"/>
        <pt x="2271" y="985" on="0"/>
        <pt x="2220" y="1036" on="1"/>
        <pt x="2200" y="1016" on="1"/>
        <pt x="2239" y="978" on="0"/>
        <pt x="2239" y="853" on="0"/>
        <pt x="2200" y="815" on="1"/>
        <pt x="2220" y="796" on="1"/>
        <pt x="2242" y="819" on="0"/>
        <pt x="2282" y="831" on="1"/>
        <pt x="2332" y="846" on="0"/>
        <pt x="2422" y="846" on="1"/>
        <pt x="2842" y="823" on="1"/>
        <pt x="2997" y="823" on="0"/>
        <pt x="3047" y="873" on="1"/>
        <pt x="3068" y="853" on="1"/>
        <pt x="3028" y="813" on="0"/>
        <pt x="3025" y="734" on="1"/>
        <pt x="3024" y="711" on="0"/>
        <pt x="3024" y="688" on="1"/>
        <pt x="3024" y="628" on="1"/>
        <pt x="3024" y="523" on="0"/>
        <pt x="3068" y="479" on="1"/>
        <pt x="3047" y="458" on="1"/>
        <pt x="2999" y="508" on="0"/>
        <pt x="2843" y="508" on="1"/>
        <pt x="2425" y="486" on="1"/>
        <pt x="2271" y="486" on="0"/>
        <pt x="2220" y="536" on="1"/>
        <pt x="2201" y="516" on="1"/>
        <pt x="2243" y="486" on="0"/>
        <pt x="2243" y="346" on="0"/>
        <pt x="2201" y="310" on="1"/>
        <pt x="2220" y="290" on="1"/>
        <pt x="2269" y="339" on="0"/>
        <pt x="2425" y="339" on="1"/>
        <pt x="3134" y="337" on="1"/>
        <pt x="3195" y="337" on="0"/>
        <pt x="3233" y="376" on="1"/>
        <pt x="3253" y="356" on="1"/>
        <pt x="3209" y="310" on="0"/>
        <pt x="3209" y="171" on="1"/>
      </contour>
      <contour>
        <pt x="721" y="166" on="1"/>
        <pt x="705" y="290" on="1"/>
        <pt x="705" y="301" on="1"/>
        <pt x="726" y="338" on="0"/>
        <pt x="762" y="338" on="1"/>
        <pt x="1578" y="337" on="1"/>
        <pt x="1639" y="337" on="0"/>
        <pt x="1677" y="376" on="1"/>
        <pt x="1697" y="356" on="1"/>
        <pt x="1641" y="253" on="0"/>
        <pt x="1641" y="-17" on="1"/>
        <pt x="1641" y="-59" on="0"/>
        <pt x="1678" y="-300" on="0"/>
        <pt x="1678" y="-379" on="0"/>
        <pt x="1652" y="-417" on="0"/>
        <pt x="1616" y="-417" on="0"/>
        <pt x="1589" y="-375" on="0"/>
        <pt x="1589" y="-338" on="1"/>
        <pt x="1605" y="-117" on="1"/>
        <pt x="1605" y="-29" on="0"/>
        <pt x="1543" y="60" on="0"/>
        <pt x="1490" y="60" on="1"/>
        <pt x="1371" y="60" on="0"/>
        <pt x="1371" y="-119" on="1"/>
        <pt x="1371" y="-188" on="0"/>
        <pt x="1412" y="-450" on="0"/>
        <pt x="1412" y="-516" on="0"/>
        <pt x="1382" y="-551" on="0"/>
        <pt x="1343" y="-551" on="0"/>
        <pt x="1314" y="-518" on="0"/>
        <pt x="1314" y="-490" on="1"/>
        <pt x="1332" y="-171" on="1"/>
        <pt x="1332" y="4" on="0"/>
        <pt x="1257" y="4" on="1"/>
        <pt x="1181" y="2" on="1"/>
        <pt x="395" y="2" on="1"/>
        <pt x="306" y="2" on="0"/>
        <pt x="264" y="-32" on="1"/>
        <pt x="216" y="-72" on="0"/>
        <pt x="216" y="-258" on="1"/>
        <pt x="216" y="-333" on="0"/>
        <pt x="262" y="-626" on="0"/>
        <pt x="262" y="-700" on="1"/>
        <pt x="262" y="-807" on="0"/>
        <pt x="186" y="-807" on="1"/>
        <pt x="104" y="-807" on="0"/>
        <pt x="104" y="-697" on="1"/>
        <pt x="104" y="-622" on="0"/>
        <pt x="170" y="-328" on="0"/>
        <pt x="170" y="-252" on="1"/>
        <pt x="165" y="83" on="1"/>
        <pt x="165" y="1249" on="1"/>
        <pt x="165" y="1311" on="0"/>
        <pt x="127" y="1348" on="1"/>
        <pt x="147" y="1369" on="1"/>
        <pt x="188" y="1330" on="0"/>
        <pt x="247" y="1330" on="1"/>
        <pt x="1531" y="1330" on="1"/>
        <pt x="1592" y="1330" on="0"/>
        <pt x="1631" y="1369" on="1"/>
        <pt x="1651" y="1348" on="1"/>
        <pt x="1607" y="1304" on="0"/>
        <pt x="1607" y="1176" on="1"/>
        <pt x="1607" y="1131" on="1"/>
        <pt x="1607" y="1018" on="0"/>
        <pt x="1651" y="976" on="1"/>
        <pt x="1631" y="957" on="1"/>
        <pt x="1581" y="1008" on="0"/>
        <pt x="1396" y="1008" on="1"/>
        <pt x="899" y="985" on="1"/>
        <pt x="715" y="985" on="0"/>
        <pt x="665" y="1036" on="1"/>
        <pt x="644" y="1016" on="1"/>
        <pt x="683" y="978" on="0"/>
        <pt x="683" y="853" on="0"/>
        <pt x="644" y="815" on="1"/>
        <pt x="665" y="796" on="1"/>
        <pt x="713" y="846" on="0"/>
        <pt x="867" y="846" on="1"/>
        <pt x="1286" y="823" on="1"/>
        <pt x="1441" y="823" on="0"/>
        <pt x="1491" y="873" on="1"/>
        <pt x="1512" y="853" on="1"/>
        <pt x="1468" y="809" on="0"/>
        <pt x="1468" y="669" on="1"/>
        <pt x="1468" y="630" on="1"/>
        <pt x="1468" y="523" on="0"/>
        <pt x="1512" y="479" on="1"/>
        <pt x="1491" y="458" on="1"/>
        <pt x="1443" y="508" on="0"/>
        <pt x="1288" y="508" on="1"/>
        <pt x="869" y="486" on="1"/>
        <pt x="715" y="486" on="0"/>
        <pt x="665" y="536" on="1"/>
        <pt x="645" y="516" on="1"/>
        <pt x="687" y="473" on="0"/>
        <pt x="687" y="366" on="1"/>
        <pt x="685" y="288" on="1"/>
        <pt x="668" y="168" on="1"/>
        <pt x="668" y="132" on="0"/>
        <pt x="721" y="132" on="0"/>
      </contour>
    </TTGlyph>
    <TTGlyph name="Eacute" xMin="104" yMin="-807" xMax="1697" yMax="2012">
      <component glyphName="acute" x="722" y="431" flags="0x1004"/>
      <component glyphName="E" x="0" y="0" flags="0x1204"/>
    </TTGlyph>
    <TTGlyph name="Ebreve" xMin="104" yMin="-807" xMax="1697" yMax="1821">
      <component glyphName="breve" x="490" y="110" flags="0x1004"/>
      <component glyphName="E" x="0" y="0" flags="0x1204"/>
    </TTGlyph>
    <TTGlyph name="Ecaron" xMin="104" yMin="-807" xMax="1697" yMax="1978">
      <component glyphName="caron" x="392" y="415" flags="0x1004"/>
      <component glyphName="E" x="0" y="0" flags="0x1204"/>
    </TTGlyph>
    <TTGlyph name="Ecircumflex" xMin="104" yMin="-807" xMax="1697" yMax="1979">
      <component glyphName="circumflex" x="338" y="415" flags="0x1004"/>
      <component glyphName="E" x="0" y="0" flags="0x1204"/>
    </TTGlyph>
    <TTGlyph name="Edieresis" xMin="104" yMin="-807" xMax="1697" yMax="1807">
      <component glyphName="dieresis" x="247" y="428" flags="0x1004"/>
      <component glyphName="E" x="0" y="0" flags="0x1204"/>
    </TTGlyph>
    <TTGlyph name="Edotaccent" xMin="104" yMin="-807" xMax="1697" yMax="1847">
      <component glyphName="dotaccent" x="544" y="61" flags="0x1004"/>
      <component glyphName="E" x="0" y="0" flags="0x1204"/>
    </TTGlyph>
    <TTGlyph name="Egrave" xMin="104" yMin="-807" xMax="1697" yMax="2147">
      <component glyphName="grave" x="198" y="564" flags="0x1004"/>
      <component glyphName="E" x="0" y="0" flags="0x1204"/>
    </TTGlyph>
    <TTGlyph name="Emacron" xMin="104" yMin="-807" xMax="1697" yMax="1828">
      <component glyphName="macron" x="330" y="944" flags="0x1004"/>
      <component glyphName="E" x="0" y="0" flags="0x1204"/>
    </TTGlyph>
    <TTGlyph name="Eogonek" xMin="121" yMin="-807" xMax="1714" yMax="1369">
      <component glyphName="ogonek" x="704" y="80" flags="0x1004"/>
      <component glyphName="E" x="17" y="0" flags="0x1004"/>
    </TTGlyph>
    <TTGlyph name="Eth" xMin="68" yMin="-647" xMax="1907" yMax="1372">
      <contour>
        <pt x="734" y="-247" on="1"/>
        <pt x="755" y="-105" on="1"/>
        <pt x="755" y="42" on="0"/>
        <pt x="441" y="42" on="1"/>
        <pt x="387" y="42" on="0"/>
        <pt x="344" y="-9" on="0"/>
        <pt x="344" y="-128" on="0"/>
        <pt x="381" y="-341" on="0"/>
        <pt x="381" y="-454" on="0"/>
        <pt x="291" y="-454" on="0"/>
        <pt x="291" y="-335" on="0"/>
        <pt x="319" y="-95" on="0"/>
        <pt x="319" y="-52" on="1"/>
        <pt x="319" y="50" on="0"/>
        <pt x="283" y="50" on="1"/>
        <pt x="258" y="50" on="0"/>
        <pt x="258" y="-34" on="0"/>
        <pt x="283" y="-145" on="0"/>
        <pt x="283" y="-173" on="1"/>
        <pt x="283" y="-232" on="0"/>
        <pt x="197" y="-232" on="0"/>
        <pt x="197" y="-172" on="1"/>
        <pt x="219" y="12" on="1"/>
        <pt x="219" y="552" on="1"/>
        <pt x="197" y="552" on="1"/>
        <pt x="172" y="552" on="0"/>
        <pt x="68" y="539" on="1"/>
        <pt x="68" y="820" on="1"/>
        <pt x="117" y="808" on="0"/>
        <pt x="219" y="806" on="1"/>
        <pt x="219" y="1251" on="1"/>
        <pt x="219" y="1313" on="0"/>
        <pt x="180" y="1351" on="1"/>
        <pt x="200" y="1372" on="1"/>
        <pt x="241" y="1332" on="0"/>
        <pt x="300" y="1332" on="1"/>
        <pt x="1126" y="1332" on="1"/>
        <pt x="1723" y="1332" on="0"/>
        <pt x="1866" y="943" on="1"/>
        <pt x="1907" y="833" on="0"/>
        <pt x="1907" y="584" on="0"/>
        <pt x="1877" y="405" on="0"/>
        <pt x="1828" y="270" on="0"/>
        <pt x="1741" y="166" on="0"/>
        <pt x="1655" y="95" on="0"/>
        <pt x="1521" y="45" on="0"/>
        <pt x="1407" y="18" on="0"/>
        <pt x="1321" y="11" on="1"/>
        <pt x="1186" y="0" on="0"/>
        <pt x="1004" y="0" on="1"/>
        <pt x="859" y="0" on="1"/>
        <pt x="775" y="0" on="0"/>
        <pt x="775" y="-120" on="1"/>
        <pt x="791" y="-248" on="1"/>
        <pt x="791" y="-286" on="0"/>
        <pt x="765" y="-286" on="1"/>
        <pt x="734" y="-286" on="0"/>
      </contour>
      <contour>
        <pt x="765" y="552" on="1"/>
        <pt x="734" y="552" on="1"/>
        <pt x="734" y="480" on="0"/>
        <pt x="736" y="342" on="1"/>
        <pt x="963" y="342" on="1"/>
        <pt x="1191" y="342" on="0"/>
        <pt x="1270" y="406" on="1"/>
        <pt x="1341" y="464" on="0"/>
        <pt x="1360" y="566" on="1"/>
        <pt x="1371" y="623" on="0"/>
        <pt x="1371" y="787" on="0"/>
        <pt x="1311" y="907" on="0"/>
        <pt x="1211" y="963" on="0"/>
        <pt x="1089" y="990" on="0"/>
        <pt x="956" y="993" on="0"/>
        <pt x="898" y="994" on="1"/>
        <pt x="756" y="996" on="0"/>
        <pt x="716" y="1036" on="1"/>
        <pt x="696" y="1016" on="1"/>
        <pt x="734" y="979" on="0"/>
        <pt x="734" y="916" on="1"/>
        <pt x="734" y="806" on="1"/>
        <pt x="836" y="806" on="0"/>
        <pt x="888" y="820" on="1"/>
        <pt x="888" y="539" on="1"/>
        <pt x="878" y="540" on="0"/>
        <pt x="854" y="544" on="1"/>
        <pt x="804" y="552" on="0"/>
      </contour>
      <contour>
        <pt x="797" y="-647" on="0"/>
        <pt x="731" y="-647" on="0"/>
        <pt x="731" y="-572" on="0"/>
        <pt x="740" y="-516" on="0"/>
        <pt x="762" y="-429" on="0"/>
        <pt x="764" y="-418" on="1"/>
        <pt x="766" y="-427" on="0"/>
        <pt x="783" y="-494" on="0"/>
        <pt x="786" y="-510" on="1"/>
        <pt x="797" y="-556" on="0"/>
      </contour>
    </TTGlyph>
    <TTGlyph name="Euro" xMin="69" yMin="-649" xMax="2064" yMax="1375">
      <contour>
        <pt x="852" y="-499" on="1"/>
        <pt x="872" y="-24" on="1"/>
        <pt x="364" y="45" on="0"/>
        <pt x="262" y="469" on="1"/>
        <pt x="198" y="469" on="1"/>
        <pt x="122" y="469" on="0"/>
        <pt x="69" y="463" on="1"/>
        <pt x="69" y="615" on="1"/>
        <pt x="121" y="602" on="0"/>
        <pt x="240" y="602" on="1"/>
        <pt x="241" y="602" on="1"/>
        <pt x="239" y="627" on="0"/>
        <pt x="239" y="718" on="0"/>
        <pt x="240" y="738" on="1"/>
        <pt x="198" y="738" on="1"/>
        <pt x="122" y="738" on="0"/>
        <pt x="69" y="732" on="1"/>
        <pt x="69" y="884" on="1"/>
        <pt x="121" y="871" on="0"/>
        <pt x="240" y="871" on="1"/>
        <pt x="261" y="871" on="1"/>
        <pt x="381" y="1375" on="0"/>
        <pt x="1898" y="1375" on="0"/>
        <pt x="1986" y="947" on="1"/>
        <pt x="1998" y="886" on="0"/>
        <pt x="2040" y="852" on="1"/>
        <pt x="2022" y="830" on="1"/>
        <pt x="1979" y="861" on="0"/>
        <pt x="1918" y="861" on="1"/>
        <pt x="1533" y="837" on="1"/>
        <pt x="1466" y="832" on="0"/>
        <pt x="1446" y="788" on="1"/>
        <pt x="1413" y="804" on="1"/>
        <pt x="1424" y="828" on="0"/>
        <pt x="1424" y="842" on="1"/>
        <pt x="1424" y="894" on="0"/>
        <pt x="1355" y="971" on="0"/>
        <pt x="1302" y="990" on="1"/>
        <pt x="1199" y="1027" on="0"/>
        <pt x="1104" y="1027" on="1"/>
        <pt x="916" y="1027" on="0"/>
        <pt x="833" y="871" on="1"/>
        <pt x="939" y="871" on="1"/>
        <pt x="1052" y="871" on="0"/>
        <pt x="1104" y="884" on="1"/>
        <pt x="1104" y="732" on="1"/>
        <pt x="1052" y="738" on="0"/>
        <pt x="981" y="738" on="1"/>
        <pt x="792" y="738" on="1"/>
        <pt x="788" y="718" on="0"/>
        <pt x="788" y="631" on="0"/>
        <pt x="793" y="602" on="1"/>
        <pt x="939" y="602" on="1"/>
        <pt x="1052" y="602" on="0"/>
        <pt x="1104" y="615" on="1"/>
        <pt x="1104" y="463" on="1"/>
        <pt x="1052" y="469" on="0"/>
        <pt x="981" y="469" on="1"/>
        <pt x="834" y="469" on="1"/>
        <pt x="924" y="302" on="0"/>
        <pt x="1144" y="302" on="1"/>
        <pt x="1198" y="302" on="0"/>
        <pt x="1331" y="355" on="0"/>
        <pt x="1435" y="455" on="0"/>
        <pt x="1435" y="511" on="1"/>
        <pt x="1435" y="527" on="0"/>
        <pt x="1424" y="551" on="1"/>
        <pt x="1456" y="568" on="1"/>
        <pt x="1480" y="523" on="0"/>
        <pt x="1588" y="515" on="0"/>
        <pt x="1673" y="508" on="1"/>
        <pt x="1860" y="491" on="0"/>
        <pt x="2006" y="491" on="0"/>
        <pt x="2048" y="522" on="1"/>
        <pt x="2064" y="501" on="1"/>
        <pt x="2025" y="474" on="0"/>
        <pt x="1989" y="322" on="0"/>
        <pt x="1882" y="183" on="0"/>
        <pt x="1748" y="92" on="0"/>
        <pt x="1660" y="57" on="1"/>
        <pt x="1515" y="-1" on="0"/>
        <pt x="1331" y="-27" on="1"/>
        <pt x="1331" y="-119" on="0"/>
        <pt x="1380" y="-481" on="0"/>
        <pt x="1380" y="-601" on="0"/>
        <pt x="1350" y="-649" on="0"/>
        <pt x="1294" y="-649" on="0"/>
        <pt x="1265" y="-601" on="0"/>
        <pt x="1265" y="-496" on="0"/>
        <pt x="1298" y="-194" on="0"/>
        <pt x="1298" y="-92" on="0"/>
        <pt x="1288" y="-56" on="0"/>
        <pt x="1274" y="-37" on="0"/>
        <pt x="1257" y="-32" on="1"/>
        <pt x="1198" y="-17" on="0"/>
        <pt x="1096" y="-35" on="1"/>
        <pt x="1052" y="-43" on="0"/>
        <pt x="1052" y="-64" on="1"/>
        <pt x="1076" y="-336" on="1"/>
        <pt x="1076" y="-401" on="0"/>
        <pt x="1039" y="-401" on="1"/>
        <pt x="1019" y="-401" on="0"/>
        <pt x="1000" y="-360" on="0"/>
        <pt x="1000" y="-291" on="0"/>
        <pt x="1028" y="-109" on="0"/>
        <pt x="1028" y="-30" on="0"/>
        <pt x="1002" y="-30" on="1"/>
        <pt x="915" y="-30" on="0"/>
        <pt x="915" y="-61" on="1"/>
        <pt x="926" y="-494" on="1"/>
        <pt x="926" y="-511" on="0"/>
        <pt x="904" y="-538" on="0"/>
        <pt x="872" y="-538" on="0"/>
        <pt x="852" y="-515" on="0"/>
      </contour>
    </TTGlyph>
    <TTGlyph name="F" xMin="105" yMin="-652" xMax="1693" yMax="1401">
      <contour>
        <pt x="699" y="413" on="1"/>
        <pt x="691" y="209" on="1"/>
        <pt x="691" y="154" on="0"/>
        <pt x="744" y="-61" on="0"/>
        <pt x="744" y="-164" on="0"/>
        <pt x="778" y="-350" on="0"/>
        <pt x="778" y="-463" on="0"/>
        <pt x="681" y="-463" on="0"/>
        <pt x="681" y="-352" on="0"/>
        <pt x="716" y="-167" on="0"/>
        <pt x="716" y="-75" on="0"/>
        <pt x="652" y="0" on="0"/>
        <pt x="608" y="0" on="1"/>
        <pt x="508" y="0" on="0"/>
        <pt x="508" y="-243" on="1"/>
        <pt x="508" y="-300" on="0"/>
        <pt x="538" y="-528" on="0"/>
        <pt x="538" y="-570" on="1"/>
        <pt x="538" y="-652" on="0"/>
        <pt x="489" y="-652" on="1"/>
        <pt x="464" y="-652" on="0"/>
        <pt x="437" y="-609" on="0"/>
        <pt x="437" y="-529" on="0"/>
        <pt x="472" y="-317" on="0"/>
        <pt x="472" y="-221" on="0"/>
        <pt x="461" y="-136" on="0"/>
        <pt x="432" y="-39" on="0"/>
        <pt x="369" y="21" on="0"/>
        <pt x="270" y="21" on="0"/>
        <pt x="191" y="-65" on="0"/>
        <pt x="191" y="-142" on="0"/>
        <pt x="219" y="-226" on="0"/>
        <pt x="219" y="-249" on="1"/>
        <pt x="219" y="-293" on="0"/>
        <pt x="154" y="-293" on="0"/>
        <pt x="154" y="-249" on="1"/>
        <pt x="178" y="-89" on="1"/>
        <pt x="177" y="1184" on="1"/>
        <pt x="177" y="1302" on="0"/>
        <pt x="105" y="1381" on="1"/>
        <pt x="125" y="1401" on="1"/>
        <pt x="205" y="1330" on="0"/>
        <pt x="322" y="1330" on="1"/>
        <pt x="1476" y="1330" on="1"/>
        <pt x="1593" y="1330" on="0"/>
        <pt x="1673" y="1401" on="1"/>
        <pt x="1693" y="1381" on="1"/>
        <pt x="1622" y="1301" on="0"/>
        <pt x="1622" y="1101" on="0"/>
        <pt x="1648" y="991" on="0"/>
        <pt x="1693" y="940" on="1"/>
        <pt x="1673" y="920" on="1"/>
        <pt x="1620" y="991" on="0"/>
        <pt x="1541" y="991" on="1"/>
        <pt x="782" y="991" on="1"/>
        <pt x="726" y="991" on="0"/>
        <pt x="686" y="1029" on="1"/>
        <pt x="667" y="1010" on="1"/>
        <pt x="705" y="970" on="0"/>
        <pt x="705" y="856" on="0"/>
        <pt x="667" y="816" on="1"/>
        <pt x="686" y="797" on="1"/>
        <pt x="719" y="829" on="0"/>
        <pt x="812" y="847" on="0"/>
        <pt x="876" y="847" on="1"/>
        <pt x="1256" y="826" on="1"/>
        <pt x="1349" y="826" on="0"/>
        <pt x="1492" y="858" on="0"/>
        <pt x="1543" y="907" on="1"/>
        <pt x="1563" y="887" on="1"/>
        <pt x="1488" y="805" on="0"/>
        <pt x="1488" y="515" on="0"/>
        <pt x="1557" y="443" on="1"/>
        <pt x="1536" y="423" on="1"/>
        <pt x="1445" y="504" on="0"/>
        <pt x="1242" y="504" on="1"/>
        <pt x="868" y="483" on="1"/>
        <pt x="731" y="483" on="0"/>
        <pt x="681" y="533" on="1"/>
        <pt x="662" y="513" on="1"/>
        <pt x="699" y="475" on="0"/>
      </contour>
    </TTGlyph>
    <TTGlyph name="G" xMin="78" yMin="-607" xMax="1900" yMax="1375">
      <contour>
        <pt x="1350" y="310" on="1"/>
        <pt x="1312" y="340" on="0"/>
        <pt x="1312" y="380" on="1"/>
        <pt x="1312" y="388" on="1"/>
        <pt x="1312" y="428" on="0"/>
        <pt x="1348" y="464" on="1"/>
        <pt x="1334" y="477" on="1"/>
        <pt x="1298" y="441" on="0"/>
        <pt x="1259" y="441" on="1"/>
        <pt x="1162" y="441" on="1"/>
        <pt x="1101" y="441" on="0"/>
        <pt x="1062" y="402" on="1"/>
        <pt x="1041" y="423" on="1"/>
        <pt x="1081" y="463" on="0"/>
        <pt x="1081" y="522" on="1"/>
        <pt x="1081" y="670" on="1"/>
        <pt x="1081" y="730" on="0"/>
        <pt x="1041" y="770" on="1"/>
        <pt x="1062" y="790" on="1"/>
        <pt x="1100" y="752" on="0"/>
        <pt x="1162" y="752" on="1"/>
        <pt x="1776" y="752" on="1"/>
        <pt x="1838" y="752" on="0"/>
        <pt x="1876" y="790" on="1"/>
        <pt x="1895" y="770" on="1"/>
        <pt x="1857" y="732" on="0"/>
        <pt x="1857" y="670" on="1"/>
        <pt x="1857" y="251" on="1"/>
        <pt x="1857" y="220" on="0"/>
        <pt x="1874" y="183" on="0"/>
        <pt x="1900" y="169" on="1"/>
        <pt x="1884" y="140" on="1"/>
        <pt x="1866" y="149" on="0"/>
        <pt x="1821" y="149" on="0"/>
        <pt x="1792" y="130" on="1"/>
        <pt x="1560" y="-25" on="0"/>
        <pt x="1132" y="-44" on="1"/>
        <pt x="1132" y="-140" on="1"/>
        <pt x="1148" y="-251" on="1"/>
        <pt x="1148" y="-275" on="0"/>
        <pt x="1128" y="-301" on="0"/>
        <pt x="1103" y="-301" on="0"/>
        <pt x="1083" y="-277" on="0"/>
        <pt x="1083" y="-254" on="0"/>
        <pt x="1087" y="-234" on="1"/>
        <pt x="1099" y="-172" on="0"/>
        <pt x="1099" y="-44" on="0"/>
        <pt x="1090" y="-44" on="1"/>
        <pt x="894" y="-44" on="0"/>
        <pt x="678" y="-17" on="1"/>
        <pt x="669" y="-14" on="0"/>
        <pt x="669" y="-234" on="0"/>
        <pt x="706" y="-468" on="0"/>
        <pt x="706" y="-514" on="1"/>
        <pt x="706" y="-607" on="0"/>
        <pt x="649" y="-607" on="1"/>
        <pt x="622" y="-607" on="0"/>
        <pt x="583" y="-565" on="0"/>
        <pt x="583" y="-472" on="0"/>
        <pt x="649" y="-233" on="0"/>
        <pt x="649" y="-166" on="1"/>
        <pt x="649" y="-10" on="1"/>
        <pt x="78" y="118" on="0"/>
        <pt x="78" y="679" on="1"/>
        <pt x="78" y="1106" on="0"/>
        <pt x="430" y="1276" on="1"/>
        <pt x="633" y="1375" on="0"/>
        <pt x="926" y="1375" on="1"/>
        <pt x="1399" y="1375" on="0"/>
        <pt x="1652" y="1190" on="1"/>
        <pt x="1789" y="1090" on="0"/>
        <pt x="1827" y="962" on="1"/>
        <pt x="1845" y="902" on="0"/>
        <pt x="1891" y="870" on="1"/>
        <pt x="1876" y="850" on="1"/>
        <pt x="1835" y="880" on="0"/>
        <pt x="1768" y="880" on="1"/>
        <pt x="1346" y="866" on="1"/>
        <pt x="1283" y="862" on="0"/>
        <pt x="1261" y="818" on="1"/>
        <pt x="1228" y="834" on="1"/>
        <pt x="1236" y="851" on="0"/>
        <pt x="1236" y="895" on="0"/>
        <pt x="1168" y="986" on="0"/>
        <pt x="1049" y="1033" on="0"/>
        <pt x="854" y="1033" on="0"/>
        <pt x="732" y="977" on="0"/>
        <pt x="696" y="928" on="1"/>
        <pt x="626" y="829" on="0"/>
        <pt x="626" y="503" on="0"/>
        <pt x="835" y="292" on="0"/>
        <pt x="1173" y="292" on="0"/>
        <pt x="1261" y="314" on="1"/>
        <pt x="1277" y="318" on="0"/>
        <pt x="1307" y="318" on="0"/>
        <pt x="1338" y="294" on="1"/>
      </contour>
    </TTGlyph>
    <TTGlyph name="Gbreve" xMin="78" yMin="-607" xMax="1900" yMax="1821">
      <component glyphName="breve" x="580" y="110" flags="0x1004"/>
      <component glyphName="G" x="0" y="0" flags="0x1204"/>
    </TTGlyph>
    <TTGlyph name="Gcircumflex" xMin="78" yMin="-607" xMax="1900" yMax="1956">
      <component glyphName="circumflex" x="478" y="392" flags="0x1004"/>
      <component glyphName="G" x="0" y="0" flags="0x1204"/>
    </TTGlyph>
    <TTGlyph name="Gcommaaccent" xMin="78" yMin="-951" xMax="1900" yMax="1375">
      <component glyphName="uni0326" x="670" y="-649" flags="0x1004"/>
      <component glyphName="G" x="0" y="0" flags="0x1204"/>
    </TTGlyph>
    <TTGlyph name="Gdotaccent" xMin="78" yMin="-607" xMax="1900" yMax="1824">
      <component glyphName="dotaccent" x="724" y="39" flags="0x1004"/>
      <component glyphName="G" x="0" y="0" flags="0x1204"/>
    </TTGlyph>
    <TTGlyph name="H" xMin="103" yMin="-790" xMax="1819" yMax="1372">
      <contour>
        <pt x="1257" y="974" on="1"/>
        <pt x="1273" y="1202" on="1"/>
        <pt x="1273" y="1304" on="0"/>
        <pt x="1226" y="1351" on="1"/>
        <pt x="1246" y="1372" on="1"/>
        <pt x="1287" y="1332" on="0"/>
        <pt x="1346" y="1332" on="1"/>
        <pt x="1699" y="1332" on="1"/>
        <pt x="1759" y="1332" on="0"/>
        <pt x="1799" y="1372" on="1"/>
        <pt x="1819" y="1351" on="1"/>
        <pt x="1780" y="1312" on="0"/>
        <pt x="1780" y="1251" on="1"/>
        <pt x="1780" y="81" on="1"/>
        <pt x="1780" y="21" on="0"/>
        <pt x="1819" y="-19" on="1"/>
        <pt x="1799" y="-39" on="1"/>
        <pt x="1760" y="0" on="0"/>
        <pt x="1699" y="0" on="1"/>
        <pt x="1346" y="0" on="1"/>
        <pt x="1285" y="0" on="0"/>
        <pt x="1246" y="-39" on="1"/>
        <pt x="1226" y="-19" on="1"/>
        <pt x="1264" y="19" on="0"/>
        <pt x="1264" y="81" on="1"/>
        <pt x="1262" y="417" on="1"/>
        <pt x="1262" y="477" on="0"/>
        <pt x="1300" y="516" on="1"/>
        <pt x="1280" y="536" on="1"/>
        <pt x="1242" y="498" on="0"/>
        <pt x="1180" y="498" on="1"/>
        <pt x="770" y="498" on="1"/>
        <pt x="709" y="498" on="0"/>
        <pt x="670" y="536" on="1"/>
        <pt x="650" y="516" on="1"/>
        <pt x="652" y="493" on="0"/>
        <pt x="652" y="274" on="1"/>
        <pt x="652" y="-177" on="1"/>
        <pt x="652" y="-268" on="0"/>
        <pt x="698" y="-602" on="0"/>
        <pt x="698" y="-740" on="0"/>
        <pt x="665" y="-790" on="0"/>
        <pt x="619" y="-790" on="0"/>
        <pt x="586" y="-741" on="0"/>
        <pt x="586" y="-690" on="0"/>
        <pt x="596" y="-598" on="1"/>
        <pt x="626" y="-320" on="0"/>
        <pt x="626" y="-180" on="1"/>
        <pt x="626" y="-111" on="0"/>
        <pt x="584" y="-60" on="1"/>
        <pt x="502" y="39" on="0"/>
        <pt x="359" y="39" on="1"/>
        <pt x="286" y="39" on="0"/>
        <pt x="187" y="-29" on="0"/>
        <pt x="187" y="-150" on="0"/>
        <pt x="226" y="-384" on="0"/>
        <pt x="226" y="-429" on="1"/>
        <pt x="226" y="-522" on="0"/>
        <pt x="168" y="-522" on="1"/>
        <pt x="141" y="-522" on="0"/>
        <pt x="103" y="-481" on="0"/>
        <pt x="103" y="-388" on="0"/>
        <pt x="168" y="-148" on="0"/>
        <pt x="168" y="-81" on="1"/>
        <pt x="168" y="1251" on="1"/>
        <pt x="168" y="1314" on="0"/>
        <pt x="130" y="1351" on="1"/>
        <pt x="149" y="1372" on="1"/>
        <pt x="190" y="1332" on="0"/>
        <pt x="249" y="1332" on="1"/>
        <pt x="608" y="1332" on="1"/>
        <pt x="667" y="1332" on="0"/>
        <pt x="707" y="1372" on="1"/>
        <pt x="728" y="1351" on="1"/>
        <pt x="682" y="1305" on="0"/>
        <pt x="682" y="1201" on="1"/>
        <pt x="697" y="971" on="1"/>
        <pt x="697" y="868" on="0"/>
        <pt x="650" y="821" on="1"/>
        <pt x="670" y="800" on="1"/>
        <pt x="709" y="839" on="0"/>
        <pt x="770" y="839" on="1"/>
        <pt x="1184" y="839" on="1"/>
        <pt x="1245" y="839" on="0"/>
        <pt x="1283" y="800" on="1"/>
        <pt x="1304" y="821" on="1"/>
        <pt x="1257" y="869" on="0"/>
      </contour>
    </TTGlyph>
    <TTGlyph name="Hcircumflex" xMin="103" yMin="-790" xMax="1819" yMax="1956">
      <component glyphName="circumflex" x="449" y="392" flags="0x1004"/>
      <component glyphName="H" x="0" y="0" flags="0x1204"/>
    </TTGlyph>
    <TTGlyph name="I" xMin="138" yMin="-635" xMax="740" yMax="1372">
      <contour>
        <pt x="638" y="-539" on="1"/>
        <pt x="649" y="-273" on="1"/>
        <pt x="649" y="-144" on="0"/>
        <pt x="630" y="-76" on="0"/>
        <pt x="610" y="-24" on="0"/>
        <pt x="578" y="8" on="0"/>
        <pt x="556" y="22" on="1"/>
        <pt x="514" y="50" on="0"/>
        <pt x="334" y="50" on="0"/>
        <pt x="211" y="-96" on="0"/>
        <pt x="211" y="-198" on="1"/>
        <pt x="211" y="-236" on="0"/>
        <pt x="241" y="-387" on="0"/>
        <pt x="241" y="-425" on="1"/>
        <pt x="241" y="-497" on="0"/>
        <pt x="139" y="-497" on="0"/>
        <pt x="139" y="-427" on="1"/>
        <pt x="139" y="-388" on="0"/>
        <pt x="170" y="-232" on="0"/>
        <pt x="170" y="-192" on="1"/>
        <pt x="177" y="76" on="1"/>
        <pt x="177" y="1251" on="1"/>
        <pt x="177" y="1313" on="0"/>
        <pt x="138" y="1351" on="1"/>
        <pt x="158" y="1372" on="1"/>
        <pt x="200" y="1332" on="0"/>
        <pt x="258" y="1332" on="1"/>
        <pt x="620" y="1332" on="1"/>
        <pt x="680" y="1332" on="0"/>
        <pt x="720" y="1372" on="1"/>
        <pt x="740" y="1351" on="1"/>
        <pt x="701" y="1312" on="0"/>
        <pt x="701" y="1251" on="1"/>
        <pt x="701" y="81" on="1"/>
        <pt x="701" y="29" on="0"/>
        <pt x="679" y="-226" on="0"/>
        <pt x="683" y="-295" on="1"/>
        <pt x="682" y="-295" on="1"/>
        <pt x="719" y="-461" on="0"/>
        <pt x="719" y="-635" on="0"/>
        <pt x="686" y="-635" on="1"/>
        <pt x="638" y="-635" on="0"/>
      </contour>
    </TTGlyph>
    <TTGlyph name="IJ" xMin="138" yMin="-814" xMax="2369" yMax="1372">
      <contour>
        <pt x="638" y="-539" on="1"/>
        <pt x="649" y="-273" on="1"/>
        <pt x="649" y="-144" on="0"/>
        <pt x="630" y="-76" on="0"/>
        <pt x="610" y="-24" on="0"/>
        <pt x="578" y="8" on="0"/>
        <pt x="556" y="22" on="1"/>
        <pt x="514" y="50" on="0"/>
        <pt x="334" y="50" on="0"/>
        <pt x="211" y="-96" on="0"/>
        <pt x="211" y="-198" on="1"/>
        <pt x="211" y="-236" on="0"/>
        <pt x="241" y="-387" on="0"/>
        <pt x="241" y="-425" on="1"/>
        <pt x="241" y="-497" on="0"/>
        <pt x="139" y="-497" on="0"/>
        <pt x="139" y="-427" on="1"/>
        <pt x="139" y="-388" on="0"/>
        <pt x="170" y="-232" on="0"/>
        <pt x="170" y="-192" on="1"/>
        <pt x="177" y="76" on="1"/>
        <pt x="177" y="1251" on="1"/>
        <pt x="177" y="1313" on="0"/>
        <pt x="138" y="1351" on="1"/>
        <pt x="158" y="1372" on="1"/>
        <pt x="200" y="1332" on="0"/>
        <pt x="258" y="1332" on="1"/>
        <pt x="620" y="1332" on="1"/>
        <pt x="680" y="1332" on="0"/>
        <pt x="720" y="1372" on="1"/>
        <pt x="740" y="1351" on="1"/>
        <pt x="701" y="1312" on="0"/>
        <pt x="701" y="1251" on="1"/>
        <pt x="701" y="81" on="1"/>
        <pt x="701" y="29" on="0"/>
        <pt x="679" y="-226" on="0"/>
        <pt x="683" y="-295" on="1"/>
        <pt x="682" y="-295" on="1"/>
        <pt x="719" y="-461" on="0"/>
        <pt x="719" y="-635" on="0"/>
        <pt x="686" y="-635" on="1"/>
        <pt x="638" y="-635" on="0"/>
      </contour>
      <contour>
        <pt x="1525" y="-130" on="1"/>
        <pt x="1545" y="-288" on="1"/>
        <pt x="1545" y="-312" on="0"/>
        <pt x="1528" y="-364" on="0"/>
        <pt x="1509" y="-364" on="1"/>
        <pt x="1479" y="-364" on="0"/>
        <pt x="1479" y="-290" on="1"/>
        <pt x="1479" y="-259" on="0"/>
        <pt x="1507" y="-138" on="0"/>
        <pt x="1507" y="-106" on="1"/>
        <pt x="1507" y="-44" on="0"/>
        <pt x="1443" y="-36" on="1"/>
        <pt x="1214" y="-2" on="0"/>
        <pt x="1096" y="74" on="1"/>
        <pt x="984" y="146" on="0"/>
        <pt x="945" y="234" on="1"/>
        <pt x="909" y="316" on="0"/>
        <pt x="900" y="447" on="0"/>
        <pt x="896" y="481" on="1"/>
        <pt x="888" y="562" on="0"/>
        <pt x="858" y="587" on="1"/>
        <pt x="867" y="597" on="1"/>
        <pt x="896" y="570" on="0"/>
        <pt x="918" y="570" on="1"/>
        <pt x="1006" y="570" on="0"/>
        <pt x="1269" y="617" on="0"/>
        <pt x="1368" y="628" on="0"/>
        <pt x="1404" y="673" on="1"/>
        <pt x="1426" y="656" on="1"/>
        <pt x="1394" y="616" on="0"/>
        <pt x="1394" y="514" on="0"/>
        <pt x="1415" y="423" on="0"/>
        <pt x="1438" y="384" on="1"/>
        <pt x="1488" y="297" on="0"/>
        <pt x="1705" y="297" on="0"/>
        <pt x="1818" y="423" on="0"/>
        <pt x="1818" y="532" on="1"/>
        <pt x="1820" y="1251" on="1"/>
        <pt x="1820" y="1313" on="0"/>
        <pt x="1781" y="1351" on="1"/>
        <pt x="1801" y="1372" on="1"/>
        <pt x="1841" y="1332" on="0"/>
        <pt x="1901" y="1332" on="1"/>
        <pt x="2249" y="1332" on="1"/>
        <pt x="2310" y="1332" on="0"/>
        <pt x="2349" y="1372" on="1"/>
        <pt x="2369" y="1351" on="1"/>
        <pt x="2330" y="1313" on="0"/>
        <pt x="2330" y="1251" on="1"/>
        <pt x="2330" y="473" on="1"/>
        <pt x="2330" y="146" on="0"/>
        <pt x="2031" y="22" on="1"/>
        <pt x="2030" y="22" on="1"/>
        <pt x="2030" y="-195" on="1"/>
        <pt x="2030" y="-230" on="0"/>
        <pt x="2063" y="-366" on="0"/>
        <pt x="2063" y="-400" on="1"/>
        <pt x="2063" y="-454" on="0"/>
        <pt x="2020" y="-454" on="1"/>
        <pt x="1983" y="-454" on="0"/>
        <pt x="1983" y="-372" on="0"/>
        <pt x="2010" y="-248" on="0"/>
        <pt x="2010" y="-159" on="0"/>
        <pt x="1968" y="-114" on="1"/>
        <pt x="1886" y="-29" on="0"/>
        <pt x="1757" y="-29" on="1"/>
        <pt x="1722" y="-29" on="0"/>
        <pt x="1686" y="-80" on="0"/>
        <pt x="1686" y="-164" on="0"/>
        <pt x="1722" y="-345" on="0"/>
        <pt x="1722" y="-380" on="1"/>
        <pt x="1722" y="-457" on="0"/>
        <pt x="1640" y="-457" on="0"/>
        <pt x="1640" y="-385" on="1"/>
        <pt x="1663" y="-95" on="1"/>
        <pt x="1663" y="-62" on="0"/>
        <pt x="1603" y="-21" on="0"/>
        <pt x="1569" y="-21" on="1"/>
        <pt x="1525" y="-21" on="0"/>
      </contour>
      <contour>
        <pt x="2052" y="-777" on="1"/>
        <pt x="2052" y="-814" on="0"/>
        <pt x="2002" y="-814" on="0"/>
        <pt x="2002" y="-778" on="1"/>
        <pt x="2002" y="-694" on="0"/>
        <pt x="2027" y="-587" on="1"/>
        <pt x="2052" y="-692" on="0"/>
      </contour>
    </TTGlyph>
    <TTGlyph name="Iacute" xMin="138" yMin="-635" xMax="1064" yMax="2012">
      <component glyphName="acute" x="261" y="431" flags="0x1004"/>
      <component glyphName="I" x="0" y="0" flags="0x1204"/>
    </TTGlyph>
    <TTGlyph name="Ibreve" xMin="112" yMin="-635" xMax="873" yMax="1821">
      <component glyphName="breve" x="29" y="110" flags="0x1004"/>
      <component glyphName="I" x="0" y="0" flags="0x1204"/>
    </TTGlyph>
    <TTGlyph name="Icircumflex" xMin="-38" yMin="-635" xMax="916" yMax="1979">
      <component glyphName="circumflex" x="-124" y="415" flags="0x1004"/>
      <component glyphName="I" x="0" y="0" flags="0x1204"/>
    </TTGlyph>
    <TTGlyph name="Idieresis" xMin="-83" yMin="-635" xMax="961" yMax="1807">
      <component glyphName="dieresis" x="-214" y="428" flags="0x1004"/>
      <component glyphName="I" x="0" y="0" flags="0x1204"/>
    </TTGlyph>
    <TTGlyph name="Idotaccent" xMin="165" yMin="-39" xMax="696" yMax="1824">
      <component glyphName="dotlessi" x="17" y="0" flags="0x1004"/>
      <component glyphName="dotaccent" x="57" y="39" flags="0x1004"/>
    </TTGlyph>
    <TTGlyph name="Igrave" xMin="-209" yMin="-635" xMax="740" yMax="2147">
      <component glyphName="grave" x="-263" y="564" flags="0x1004"/>
      <component glyphName="I" x="0" y="0" flags="0x1204"/>
    </TTGlyph>
    <TTGlyph name="Imacron" xMin="116" yMin="-635" xMax="936" yMax="1806">
      <component glyphName="macron" x="-45" y="922" flags="0x1004"/>
      <component glyphName="I" x="0" y="0" flags="0x1204"/>
    </TTGlyph>
    <TTGlyph name="Iogonek" xMin="163" yMin="-409" xMax="694" yMax="1372">
      <component glyphName="dotlessi" x="15" y="0" flags="0x1004"/>
      <component glyphName="ogonek" x="106" y="94" flags="0x1004"/>
    </TTGlyph>
    <TTGlyph name="Itilde" xMin="-69" yMin="-635" xMax="1068" yMax="1955">
      <component glyphName="tilde" x="-193" y="401" flags="0x1004"/>
      <component glyphName="I" x="0" y="0" flags="0x1204"/>
    </TTGlyph>
    <TTGlyph name="J" xMin="22" yMin="-814" xMax="1534" yMax="1372">
      <contour>
        <pt x="690" y="-130" on="1"/>
        <pt x="710" y="-288" on="1"/>
        <pt x="710" y="-312" on="0"/>
        <pt x="693" y="-364" on="0"/>
        <pt x="674" y="-364" on="1"/>
        <pt x="644" y="-364" on="0"/>
        <pt x="644" y="-290" on="1"/>
        <pt x="644" y="-259" on="0"/>
        <pt x="672" y="-138" on="0"/>
        <pt x="672" y="-106" on="1"/>
        <pt x="672" y="-44" on="0"/>
        <pt x="608" y="-36" on="1"/>
        <pt x="354" y="2" on="0"/>
        <pt x="234" y="92" on="1"/>
        <pt x="120" y="176" on="0"/>
        <pt x="92" y="278" on="1"/>
        <pt x="64" y="381" on="0"/>
        <pt x="63" y="442" on="1"/>
        <pt x="60" y="553" on="0"/>
        <pt x="22" y="587" on="1"/>
        <pt x="31" y="597" on="1"/>
        <pt x="60" y="570" on="0"/>
        <pt x="83" y="570" on="1"/>
        <pt x="171" y="570" on="0"/>
        <pt x="434" y="617" on="0"/>
        <pt x="533" y="628" on="0"/>
        <pt x="569" y="673" on="1"/>
        <pt x="591" y="656" on="1"/>
        <pt x="559" y="616" on="0"/>
        <pt x="559" y="514" on="0"/>
        <pt x="580" y="423" on="0"/>
        <pt x="602" y="384" on="1"/>
        <pt x="652" y="297" on="0"/>
        <pt x="869" y="297" on="0"/>
        <pt x="983" y="423" on="0"/>
        <pt x="983" y="532" on="1"/>
        <pt x="984" y="1251" on="1"/>
        <pt x="984" y="1314" on="0"/>
        <pt x="946" y="1351" on="1"/>
        <pt x="966" y="1372" on="1"/>
        <pt x="1006" y="1332" on="0"/>
        <pt x="1066" y="1332" on="1"/>
        <pt x="1414" y="1332" on="1"/>
        <pt x="1475" y="1332" on="0"/>
        <pt x="1514" y="1372" on="1"/>
        <pt x="1534" y="1351" on="1"/>
        <pt x="1495" y="1313" on="0"/>
        <pt x="1495" y="1251" on="1"/>
        <pt x="1495" y="473" on="1"/>
        <pt x="1495" y="146" on="0"/>
        <pt x="1196" y="22" on="1"/>
        <pt x="1195" y="22" on="1"/>
        <pt x="1195" y="-195" on="1"/>
        <pt x="1195" y="-230" on="0"/>
        <pt x="1228" y="-366" on="0"/>
        <pt x="1228" y="-400" on="1"/>
        <pt x="1228" y="-454" on="0"/>
        <pt x="1185" y="-454" on="1"/>
        <pt x="1148" y="-454" on="0"/>
        <pt x="1148" y="-371" on="0"/>
        <pt x="1174" y="-247" on="0"/>
        <pt x="1174" y="-159" on="0"/>
        <pt x="1132" y="-114" on="1"/>
        <pt x="1051" y="-29" on="0"/>
        <pt x="922" y="-29" on="1"/>
        <pt x="887" y="-29" on="0"/>
        <pt x="850" y="-80" on="0"/>
        <pt x="850" y="-164" on="0"/>
        <pt x="886" y="-345" on="0"/>
        <pt x="886" y="-380" on="1"/>
        <pt x="886" y="-457" on="0"/>
        <pt x="846" y="-457" on="1"/>
        <pt x="824" y="-457" on="0"/>
        <pt x="804" y="-410" on="0"/>
        <pt x="804" y="-385" on="1"/>
        <pt x="828" y="-95" on="1"/>
        <pt x="828" y="-62" on="0"/>
        <pt x="768" y="-21" on="0"/>
        <pt x="734" y="-21" on="1"/>
        <pt x="690" y="-21" on="0"/>
      </contour>
      <contour>
        <pt x="1217" y="-814" on="0"/>
        <pt x="1167" y="-814" on="0"/>
        <pt x="1167" y="-778" on="1"/>
        <pt x="1167" y="-694" on="0"/>
        <pt x="1192" y="-587" on="1"/>
        <pt x="1217" y="-692" on="0"/>
        <pt x="1217" y="-777" on="1"/>
      </contour>
    </TTGlyph>
    <TTGlyph name="Jcircumflex" xMin="22" yMin="-814" xMax="1534" yMax="1956">
      <component glyphName="circumflex" x="266" y="392" flags="0x1004"/>
      <component glyphName="J" x="0" y="0" flags="0x1204"/>
    </TTGlyph>
    <TTGlyph name="K" xMin="148" yMin="-45" xMax="1975" yMax="1377">
      <contour>
        <pt x="651" y="376" on="1"/>
        <pt x="696" y="354" on="0"/>
        <pt x="696" y="294" on="1"/>
        <pt x="696" y="81" on="1"/>
        <pt x="696" y="20" on="0"/>
        <pt x="735" y="-19" on="1"/>
        <pt x="715" y="-39" on="1"/>
        <pt x="676" y="0" on="0"/>
        <pt x="615" y="0" on="1"/>
        <pt x="268" y="0" on="1"/>
        <pt x="207" y="0" on="0"/>
        <pt x="168" y="-39" on="1"/>
        <pt x="148" y="-19" on="1"/>
        <pt x="187" y="20" on="0"/>
        <pt x="187" y="81" on="1"/>
        <pt x="187" y="1251" on="1"/>
        <pt x="187" y="1312" on="0"/>
        <pt x="148" y="1351" on="1"/>
        <pt x="168" y="1372" on="1"/>
        <pt x="208" y="1332" on="0"/>
        <pt x="268" y="1332" on="1"/>
        <pt x="615" y="1332" on="1"/>
        <pt x="675" y="1332" on="0"/>
        <pt x="715" y="1372" on="1"/>
        <pt x="735" y="1351" on="1"/>
        <pt x="696" y="1312" on="0"/>
        <pt x="696" y="1251" on="1"/>
        <pt x="696" y="940" on="1"/>
        <pt x="696" y="880" on="0"/>
        <pt x="672" y="825" on="1"/>
        <pt x="687" y="819" on="1"/>
        <pt x="710" y="873" on="0"/>
        <pt x="754" y="915" on="1"/>
        <pt x="1131" y="1276" on="1"/>
        <pt x="1154" y="1298" on="0"/>
        <pt x="1165" y="1334" on="0"/>
        <pt x="1156" y="1364" on="1"/>
        <pt x="1191" y="1377" on="1"/>
        <pt x="1210" y="1332" on="0"/>
        <pt x="1270" y="1332" on="1"/>
        <pt x="1772" y="1332" on="1"/>
        <pt x="1828" y="1332" on="0"/>
        <pt x="1888" y="1354" on="1"/>
        <pt x="1893" y="1340" on="1"/>
        <pt x="1837" y="1319" on="0"/>
        <pt x="1792" y="1279" on="1"/>
        <pt x="1386" y="926" on="1"/>
        <pt x="1342" y="886" on="0"/>
        <pt x="1287" y="893" on="1"/>
        <pt x="1283" y="862" on="1"/>
        <pt x="1337" y="857" on="0"/>
        <pt x="1371" y="806" on="1"/>
        <pt x="1889" y="67" on="1"/>
        <pt x="1923" y="17" on="0"/>
        <pt x="1975" y="-11" on="1"/>
        <pt x="1966" y="-27" on="1"/>
        <pt x="1915" y="0" on="0"/>
        <pt x="1854" y="0" on="1"/>
        <pt x="1371" y="0" on="1"/>
        <pt x="1311" y="0" on="0"/>
        <pt x="1287" y="-45" on="1"/>
        <pt x="1255" y="-28" on="1"/>
        <pt x="1269" y="1" on="0"/>
        <pt x="1263" y="40" on="0"/>
        <pt x="1245" y="68" on="1"/>
        <pt x="959" y="490" on="1"/>
        <pt x="926" y="541" on="0"/>
        <pt x="933" y="596" on="1"/>
        <pt x="906" y="599" on="1"/>
        <pt x="899" y="545" on="0"/>
        <pt x="851" y="506" on="1"/>
        <pt x="759" y="427" on="1"/>
        <pt x="733" y="406" on="0"/>
        <pt x="696" y="398" on="0"/>
        <pt x="667" y="409" on="1"/>
      </contour>
    </TTGlyph>
    <TTGlyph name="Kcommaaccent" xMin="148" yMin="-770" xMax="1975" yMax="1377">
      <component glyphName="uni0326" x="795" y="-468" flags="0x1004"/>
      <component glyphName="K" x="0" y="0" flags="0x1204"/>
    </TTGlyph>
    <TTGlyph name="L" xMin="118" yMin="-697" xMax="1613" yMax="1372">
      <contour>
        <pt x="1573" y="264" on="1"/>
        <pt x="1569" y="134" on="1"/>
        <pt x="1569" y="25" on="0"/>
        <pt x="1613" y="-19" on="1"/>
        <pt x="1592" y="-39" on="1"/>
        <pt x="1554" y="0" on="0"/>
        <pt x="1492" y="0" on="1"/>
        <pt x="1201" y="0" on="1"/>
        <pt x="1202" y="-14" on="0"/>
        <pt x="1202" y="-37" on="1"/>
        <pt x="1202" y="-93" on="0"/>
        <pt x="1146" y="-93" on="0"/>
        <pt x="1146" y="-30" on="1"/>
        <pt x="1146" y="-11" on="0"/>
        <pt x="1147" y="0" on="1"/>
        <pt x="252" y="0" on="1"/>
        <pt x="228" y="0" on="0"/>
        <pt x="193" y="-173" on="0"/>
        <pt x="193" y="-277" on="0"/>
        <pt x="241" y="-546" on="0"/>
        <pt x="241" y="-697" on="0"/>
        <pt x="182" y="-697" on="1"/>
        <pt x="118" y="-697" on="0"/>
        <pt x="118" y="-541" on="0"/>
        <pt x="172" y="-264" on="0"/>
        <pt x="172" y="-194" on="1"/>
        <pt x="171" y="1251" on="1"/>
        <pt x="171" y="1312" on="0"/>
        <pt x="131" y="1351" on="1"/>
        <pt x="152" y="1372" on="1"/>
        <pt x="193" y="1332" on="0"/>
        <pt x="252" y="1332" on="1"/>
        <pt x="610" y="1332" on="1"/>
        <pt x="671" y="1332" on="0"/>
        <pt x="710" y="1372" on="1"/>
        <pt x="731" y="1351" on="1"/>
        <pt x="691" y="1312" on="0"/>
        <pt x="691" y="1251" on="1"/>
        <pt x="691" y="426" on="1"/>
        <pt x="691" y="366" on="0"/>
        <pt x="652" y="327" on="1"/>
        <pt x="673" y="306" on="1"/>
        <pt x="724" y="357" on="0"/>
        <pt x="896" y="357" on="1"/>
        <pt x="1370" y="333" on="1"/>
        <pt x="1541" y="333" on="0"/>
        <pt x="1592" y="384" on="1"/>
        <pt x="1613" y="364" on="1"/>
        <pt x="1573" y="325" on="0"/>
      </contour>
      <contour>
        <pt x="1208" y="-485" on="0"/>
        <pt x="1140" y="-485" on="0"/>
        <pt x="1140" y="-436" on="1"/>
        <pt x="1140" y="-393" on="0"/>
        <pt x="1173" y="-268" on="0"/>
        <pt x="1174" y="-263" on="1"/>
        <pt x="1176" y="-273" on="0"/>
        <pt x="1192" y="-335" on="0"/>
        <pt x="1196" y="-352" on="1"/>
        <pt x="1208" y="-403" on="0"/>
      </contour>
    </TTGlyph>
    <TTGlyph name="Lacute" xMin="118" yMin="-697" xMax="1613" yMax="2012">
      <component glyphName="acute" x="688" y="431" flags="0x1004"/>
      <component glyphName="L" x="0" y="0" flags="0x1204"/>
    </TTGlyph>
    <TTGlyph name="Lcaron" xMin="136" yMin="-697" xMax="1651" yMax="1376">
      <component glyphName="comma" x="1059" y="1050" flags="0x1004"/>
      <component glyphName="L" x="18" y="0" flags="0x1004"/>
    </TTGlyph>
    <TTGlyph name="Lcommaaccent" xMin="118" yMin="-876" xMax="1613" yMax="1372">
      <component glyphName="uni0326" x="634" y="-574" flags="0x1004"/>
      <component glyphName="L" x="0" y="0" flags="0x1204"/>
    </TTGlyph>
    <TTGlyph name="Ldotaccent" xMin="118" yMin="-697" xMax="1613" yMax="1372">
      <contour>
        <pt x="1447" y="745" on="1"/>
        <pt x="1304" y="745" on="1"/>
        <pt x="1299" y="745" on="0"/>
        <pt x="1213" y="744" on="0"/>
        <pt x="1181" y="760" on="0"/>
        <pt x="1181" y="803" on="1"/>
        <pt x="1181" y="1037" on="1"/>
        <pt x="1181" y="1079" on="0"/>
        <pt x="1213" y="1095" on="0"/>
        <pt x="1299" y="1095" on="0"/>
        <pt x="1304" y="1095" on="1"/>
        <pt x="1447" y="1095" on="1"/>
        <pt x="1452" y="1095" on="0"/>
        <pt x="1485" y="1095" on="0"/>
        <pt x="1504" y="1095" on="0"/>
        <pt x="1534" y="1093" on="0"/>
        <pt x="1543" y="1091" on="0"/>
        <pt x="1559" y="1084" on="0"/>
        <pt x="1563" y="1077" on="0"/>
        <pt x="1565" y="1070" on="1"/>
        <pt x="1569" y="1062" on="0"/>
        <pt x="1569" y="1037" on="1"/>
        <pt x="1569" y="803" on="1"/>
        <pt x="1569" y="760" on="0"/>
        <pt x="1537" y="744" on="0"/>
        <pt x="1459" y="745" on="0"/>
        <pt x="1457" y="745" on="1"/>
        <pt x="1451" y="745" on="0"/>
      </contour>
      <contour>
        <pt x="1573" y="264" on="1"/>
        <pt x="1569" y="134" on="1"/>
        <pt x="1569" y="25" on="0"/>
        <pt x="1613" y="-19" on="1"/>
        <pt x="1592" y="-39" on="1"/>
        <pt x="1554" y="0" on="0"/>
        <pt x="1492" y="0" on="1"/>
        <pt x="1201" y="0" on="1"/>
        <pt x="1202" y="-14" on="0"/>
        <pt x="1202" y="-37" on="1"/>
        <pt x="1202" y="-93" on="0"/>
        <pt x="1146" y="-93" on="0"/>
        <pt x="1146" y="-30" on="1"/>
        <pt x="1146" y="-11" on="0"/>
        <pt x="1147" y="0" on="1"/>
        <pt x="252" y="0" on="1"/>
        <pt x="228" y="0" on="0"/>
        <pt x="193" y="-173" on="0"/>
        <pt x="193" y="-277" on="0"/>
        <pt x="241" y="-546" on="0"/>
        <pt x="241" y="-697" on="0"/>
        <pt x="182" y="-697" on="1"/>
        <pt x="118" y="-697" on="0"/>
        <pt x="118" y="-541" on="0"/>
        <pt x="172" y="-264" on="0"/>
        <pt x="172" y="-194" on="1"/>
        <pt x="171" y="1251" on="1"/>
        <pt x="171" y="1312" on="0"/>
        <pt x="131" y="1351" on="1"/>
        <pt x="152" y="1372" on="1"/>
        <pt x="193" y="1332" on="0"/>
        <pt x="252" y="1332" on="1"/>
        <pt x="610" y="1332" on="1"/>
        <pt x="671" y="1332" on="0"/>
        <pt x="710" y="1372" on="1"/>
        <pt x="731" y="1351" on="1"/>
        <pt x="691" y="1312" on="0"/>
        <pt x="691" y="1251" on="1"/>
        <pt x="691" y="426" on="1"/>
        <pt x="691" y="366" on="0"/>
        <pt x="652" y="327" on="1"/>
        <pt x="673" y="306" on="1"/>
        <pt x="724" y="357" on="0"/>
        <pt x="896" y="357" on="1"/>
        <pt x="1370" y="333" on="1"/>
        <pt x="1541" y="333" on="0"/>
        <pt x="1592" y="384" on="1"/>
        <pt x="1613" y="364" on="1"/>
        <pt x="1573" y="325" on="0"/>
      </contour>
      <contour>
        <pt x="1208" y="-485" on="0"/>
        <pt x="1140" y="-485" on="0"/>
        <pt x="1140" y="-436" on="1"/>
        <pt x="1140" y="-393" on="0"/>
        <pt x="1173" y="-268" on="0"/>
        <pt x="1174" y="-263" on="1"/>
        <pt x="1176" y="-273" on="0"/>
        <pt x="1192" y="-335" on="0"/>
        <pt x="1196" y="-352" on="1"/>
        <pt x="1208" y="-403" on="0"/>
      </contour>
    </TTGlyph>
    <TTGlyph name="Lslash" xMin="73" yMin="-697" xMax="1746" yMax="1372">
      <contour>
        <pt x="986" y="704" on="1"/>
        <pt x="264" y="557" on="1"/>
        <pt x="181" y="539" on="0"/>
        <pt x="139" y="524" on="1"/>
        <pt x="74" y="849" on="1"/>
        <pt x="125" y="846" on="0"/>
        <pt x="244" y="871" on="1"/>
        <pt x="884" y="1002" on="1"/>
        <pt x="998" y="1025" on="0"/>
        <pt x="1045" y="1047" on="1"/>
        <pt x="1110" y="722" on="1"/>
        <pt x="1055" y="717" on="0"/>
      </contour>
      <contour>
        <pt x="1708" y="264" on="1"/>
        <pt x="1703" y="134" on="1"/>
        <pt x="1703" y="24" on="0"/>
        <pt x="1746" y="-19" on="1"/>
        <pt x="1726" y="-39" on="1"/>
        <pt x="1688" y="0" on="0"/>
        <pt x="1627" y="0" on="1"/>
        <pt x="1335" y="0" on="1"/>
        <pt x="1336" y="-14" on="0"/>
        <pt x="1336" y="-37" on="1"/>
        <pt x="1336" y="-93" on="0"/>
        <pt x="1280" y="-93" on="0"/>
        <pt x="1280" y="-30" on="1"/>
        <pt x="1280" y="-11" on="0"/>
        <pt x="1281" y="0" on="1"/>
        <pt x="386" y="0" on="1"/>
        <pt x="362" y="0" on="0"/>
        <pt x="327" y="-173" on="0"/>
        <pt x="327" y="-277" on="0"/>
        <pt x="376" y="-546" on="0"/>
        <pt x="376" y="-697" on="0"/>
        <pt x="252" y="-697" on="0"/>
        <pt x="252" y="-541" on="0"/>
        <pt x="306" y="-264" on="0"/>
        <pt x="306" y="-194" on="1"/>
        <pt x="304" y="1251" on="1"/>
        <pt x="304" y="1314" on="0"/>
        <pt x="266" y="1351" on="1"/>
        <pt x="286" y="1372" on="1"/>
        <pt x="327" y="1332" on="0"/>
        <pt x="386" y="1332" on="1"/>
        <pt x="745" y="1332" on="1"/>
        <pt x="805" y="1332" on="0"/>
        <pt x="844" y="1372" on="1"/>
        <pt x="864" y="1351" on="1"/>
        <pt x="826" y="1314" on="0"/>
        <pt x="826" y="1251" on="1"/>
        <pt x="826" y="426" on="1"/>
        <pt x="826" y="366" on="0"/>
        <pt x="787" y="327" on="1"/>
        <pt x="807" y="306" on="1"/>
        <pt x="858" y="357" on="0"/>
        <pt x="1030" y="357" on="1"/>
        <pt x="1503" y="333" on="1"/>
        <pt x="1675" y="333" on="0"/>
        <pt x="1726" y="384" on="1"/>
        <pt x="1746" y="364" on="1"/>
        <pt x="1708" y="327" on="0"/>
      </contour>
      <contour>
        <pt x="1341" y="-485" on="0"/>
        <pt x="1275" y="-485" on="0"/>
        <pt x="1275" y="-395" on="0"/>
        <pt x="1308" y="-263" on="1"/>
        <pt x="1309" y="-269" on="0"/>
        <pt x="1327" y="-338" on="0"/>
        <pt x="1330" y="-352" on="1"/>
        <pt x="1341" y="-406" on="0"/>
      </contour>
    </TTGlyph>
    <TTGlyph name="M" xMin="105" yMin="-464" xMax="2312" yMax="1408">
      <contour>
        <pt x="1730" y="-194" on="1"/>
        <pt x="1744" y="-83" on="1"/>
        <pt x="1742" y="81" on="1"/>
        <pt x="1742" y="856" on="1"/>
        <pt x="1742" y="918" on="0"/>
        <pt x="1786" y="977" on="1"/>
        <pt x="1731" y="977" on="1"/>
        <pt x="1702" y="834" on="0"/>
        <pt x="1551" y="469" on="1"/>
        <pt x="1408" y="123" on="0"/>
        <pt x="1408" y="29" on="1"/>
        <pt x="1410" y="-191" on="1"/>
        <pt x="1410" y="-227" on="0"/>
        <pt x="1443" y="-370" on="0"/>
        <pt x="1443" y="-407" on="1"/>
        <pt x="1443" y="-464" on="0"/>
        <pt x="1355" y="-464" on="0"/>
        <pt x="1355" y="-406" on="1"/>
        <pt x="1355" y="-368" on="0"/>
        <pt x="1391" y="-219" on="0"/>
        <pt x="1391" y="-181" on="1"/>
        <pt x="1391" y="-61" on="0"/>
        <pt x="1272" y="56" on="0"/>
        <pt x="1127" y="56" on="0"/>
        <pt x="1033" y="-6" on="0"/>
        <pt x="1033" y="-52" on="1"/>
        <pt x="1045" y="-161" on="1"/>
        <pt x="1045" y="-198" on="0"/>
        <pt x="991" y="-198" on="0"/>
        <pt x="991" y="-158" on="1"/>
        <pt x="1009" y="29" on="1"/>
        <pt x="1009" y="125" on="0"/>
        <pt x="865" y="466" on="1"/>
        <pt x="715" y="823" on="0"/>
        <pt x="687" y="976" on="1"/>
        <pt x="632" y="976" on="1"/>
        <pt x="674" y="920" on="0"/>
        <pt x="674" y="856" on="1"/>
        <pt x="674" y="-132" on="1"/>
        <pt x="694" y="-300" on="1"/>
        <pt x="694" y="-353" on="0"/>
        <pt x="622" y="-353" on="0"/>
        <pt x="622" y="-302" on="1"/>
        <pt x="644" y="-138" on="1"/>
        <pt x="644" y="-100" on="0"/>
        <pt x="629" y="-83" on="1"/>
        <pt x="596" y="-46" on="0"/>
        <pt x="212" y="-46" on="0"/>
        <pt x="212" y="-48" on="1"/>
        <pt x="217" y="-180" on="1"/>
        <pt x="217" y="-203" on="0"/>
        <pt x="171" y="-203" on="0"/>
        <pt x="171" y="-182" on="1"/>
        <pt x="177" y="-43" on="1"/>
        <pt x="177" y="1186" on="1"/>
        <pt x="177" y="1304" on="0"/>
        <pt x="105" y="1383" on="1"/>
        <pt x="126" y="1404" on="1"/>
        <pt x="208" y="1332" on="0"/>
        <pt x="323" y="1332" on="1"/>
        <pt x="834" y="1332" on="1"/>
        <pt x="965" y="1332" on="0"/>
        <pt x="1022" y="1408" on="1"/>
        <pt x="1048" y="1389" on="1"/>
        <pt x="997" y="1315" on="0"/>
        <pt x="997" y="1190" on="0"/>
        <pt x="1061" y="1039" on="0"/>
        <pt x="1099" y="971" on="1"/>
        <pt x="1202" y="787" on="0"/>
        <pt x="1202" y="670" on="1"/>
        <pt x="1216" y="670" on="1"/>
        <pt x="1216" y="791" on="0"/>
        <pt x="1318" y="971" on="1"/>
        <pt x="1419" y="1149" on="0"/>
        <pt x="1419" y="1316" on="0"/>
        <pt x="1369" y="1389" on="1"/>
        <pt x="1395" y="1408" on="1"/>
        <pt x="1452" y="1332" on="0"/>
        <pt x="1583" y="1332" on="1"/>
        <pt x="2095" y="1332" on="1"/>
        <pt x="2211" y="1332" on="0"/>
        <pt x="2292" y="1404" on="1"/>
        <pt x="2312" y="1383" on="1"/>
        <pt x="2241" y="1303" on="0"/>
        <pt x="2241" y="1186" on="1"/>
        <pt x="2241" y="81" on="1"/>
        <pt x="2241" y="35" on="0"/>
        <pt x="2239" y="-19" on="1"/>
        <pt x="2219" y="-39" on="1"/>
        <pt x="2199" y="0" on="0"/>
        <pt x="2160" y="0" on="1"/>
        <pt x="1823" y="0" on="1"/>
        <pt x="1801" y="0" on="0"/>
        <pt x="1765" y="-54" on="0"/>
        <pt x="1765" y="-77" on="1"/>
        <pt x="1782" y="-201" on="1"/>
        <pt x="1782" y="-237" on="0"/>
        <pt x="1730" y="-237" on="0"/>
      </contour>
    </TTGlyph>
    <TTGlyph name="N" xMin="112" yMin="-603" xMax="1893" yMax="1409">
      <contour>
        <pt x="537" y="-310" on="1"/>
        <pt x="561" y="-39" on="1"/>
        <pt x="561" y="-7" on="0"/>
        <pt x="525" y="14" on="1"/>
        <pt x="466" y="47" on="0"/>
        <pt x="381" y="47" on="1"/>
        <pt x="267" y="47" on="0"/>
        <pt x="224" y="2" on="1"/>
        <pt x="205" y="-18" on="0"/>
        <pt x="205" y="-95" on="0"/>
        <pt x="251" y="-287" on="0"/>
        <pt x="251" y="-366" on="0"/>
        <pt x="222" y="-413" on="0"/>
        <pt x="166" y="-413" on="0"/>
        <pt x="136" y="-366" on="0"/>
        <pt x="136" y="-286" on="0"/>
        <pt x="185" y="-90" on="0"/>
        <pt x="185" y="-40" on="1"/>
        <pt x="184" y="1186" on="1"/>
        <pt x="184" y="1304" on="0"/>
        <pt x="112" y="1383" on="1"/>
        <pt x="133" y="1404" on="1"/>
        <pt x="214" y="1332" on="0"/>
        <pt x="330" y="1332" on="1"/>
        <pt x="629" y="1332" on="1"/>
        <pt x="693" y="1332" on="0"/>
        <pt x="782" y="1363" on="0"/>
        <pt x="809" y="1409" on="1"/>
        <pt x="842" y="1393" on="1"/>
        <pt x="816" y="1331" on="0"/>
        <pt x="816" y="1276" on="1"/>
        <pt x="816" y="1231" on="0"/>
        <pt x="974" y="1050" on="1"/>
        <pt x="1180" y="814" on="0"/>
        <pt x="1298" y="652" on="0"/>
        <pt x="1316" y="602" on="1"/>
        <pt x="1376" y="602" on="1"/>
        <pt x="1327" y="674" on="0"/>
        <pt x="1327" y="805" on="1"/>
        <pt x="1327" y="866" on="0"/>
        <pt x="1357" y="1109" on="0"/>
        <pt x="1357" y="1170" on="1"/>
        <pt x="1357" y="1334" on="0"/>
        <pt x="1253" y="1383" on="1"/>
        <pt x="1274" y="1404" on="1"/>
        <pt x="1355" y="1332" on="0"/>
        <pt x="1471" y="1332" on="1"/>
        <pt x="1676" y="1332" on="1"/>
        <pt x="1792" y="1332" on="0"/>
        <pt x="1873" y="1404" on="1"/>
        <pt x="1893" y="1383" on="1"/>
        <pt x="1822" y="1303" on="0"/>
        <pt x="1822" y="1186" on="1"/>
        <pt x="1820" y="-35" on="1"/>
        <pt x="1820" y="-78" on="0"/>
        <pt x="1860" y="-249" on="0"/>
        <pt x="1860" y="-292" on="1"/>
        <pt x="1860" y="-356" on="0"/>
        <pt x="1762" y="-356" on="0"/>
        <pt x="1762" y="-292" on="1"/>
        <pt x="1762" y="-250" on="0"/>
        <pt x="1800" y="-87" on="0"/>
        <pt x="1800" y="-26" on="0"/>
        <pt x="1760" y="0" on="0"/>
        <pt x="1741" y="0" on="1"/>
        <pt x="1346" y="0" on="1"/>
        <pt x="1262" y="0" on="0"/>
        <pt x="1262" y="-153" on="1"/>
        <pt x="1262" y="-216" on="0"/>
        <pt x="1309" y="-455" on="0"/>
        <pt x="1309" y="-516" on="1"/>
        <pt x="1309" y="-603" on="0"/>
        <pt x="1179" y="-603" on="0"/>
        <pt x="1179" y="-515" on="1"/>
        <pt x="1179" y="-459" on="0"/>
        <pt x="1230" y="-245" on="0"/>
        <pt x="1231" y="-191" on="1"/>
        <pt x="1233" y="-58" on="1"/>
        <pt x="1236" y="35" on="0"/>
        <pt x="1214" y="63" on="1"/>
        <pt x="735" y="670" on="1"/>
        <pt x="716" y="695" on="0"/>
        <pt x="693" y="774" on="1"/>
        <pt x="632" y="772" on="1"/>
        <pt x="684" y="718" on="0"/>
        <pt x="684" y="652" on="1"/>
        <pt x="684" y="81" on="1"/>
        <pt x="703" y="-425" on="1"/>
        <pt x="703" y="-441" on="0"/>
        <pt x="684" y="-464" on="0"/>
        <pt x="651" y="-464" on="0"/>
        <pt x="629" y="-437" on="0"/>
        <pt x="629" y="-420" on="1"/>
        <pt x="641" y="-36" on="1"/>
        <pt x="641" y="-24" on="0"/>
        <pt x="623" y="-4" on="0"/>
        <pt x="611" y="-4" on="1"/>
        <pt x="585" y="-4" on="0"/>
        <pt x="585" y="-84" on="0"/>
        <pt x="612" y="-266" on="0"/>
        <pt x="612" y="-300" on="1"/>
        <pt x="612" y="-376" on="0"/>
        <pt x="537" y="-376" on="0"/>
      </contour>
    </TTGlyph>
    <TTGlyph name="Nacute" xMin="112" yMin="-603" xMax="1893" yMax="2046">
      <component glyphName="acute" x="824" y="465" flags="0x1004"/>
      <component glyphName="N" x="0" y="0" flags="0x1204"/>
    </TTGlyph>
    <TTGlyph name="Ncaron" xMin="112" yMin="-603" xMax="1893" yMax="2012">
      <component glyphName="caron" x="494" y="449" flags="0x1004"/>
      <component glyphName="N" x="0" y="0" flags="0x1204"/>
    </TTGlyph>
    <TTGlyph name="Ncommaaccent" xMin="112" yMin="-1328" xMax="1893" yMax="1409">
      <component glyphName="uni0326" x="736" y="-1026" flags="0x1004"/>
      <component glyphName="N" x="0" y="0" flags="0x1204"/>
    </TTGlyph>
    <TTGlyph name="Ntilde" xMin="112" yMin="-603" xMax="1893" yMax="1990">
      <component glyphName="tilde" x="371" y="436" flags="0x1004"/>
      <component glyphName="N" x="0" y="0" flags="0x1204"/>
    </TTGlyph>
    <TTGlyph name="O" xMin="76" yMin="-683" xMax="1885" yMax="1375">
      <contour>
        <pt x="1011" y="-162" on="1"/>
        <pt x="1018" y="-66" on="1"/>
        <pt x="1018" y="-41" on="0"/>
        <pt x="970" y="-14" on="0"/>
        <pt x="914" y="-14" on="0"/>
        <pt x="870" y="-44" on="0"/>
        <pt x="870" y="-72" on="1"/>
        <pt x="870" y="-302" on="1"/>
        <pt x="870" y="-352" on="0"/>
        <pt x="912" y="-546" on="0"/>
        <pt x="912" y="-629" on="0"/>
        <pt x="876" y="-683" on="0"/>
        <pt x="813" y="-683" on="0"/>
        <pt x="781" y="-627" on="0"/>
        <pt x="781" y="-537" on="0"/>
        <pt x="827" y="-315" on="0"/>
        <pt x="827" y="-254" on="1"/>
        <pt x="827" y="-7" on="0"/>
        <pt x="735" y="-7" on="1"/>
        <pt x="611" y="-7" on="0"/>
        <pt x="611" y="3" on="1"/>
        <pt x="611" y="1" on="1"/>
        <pt x="611" y="-68" on="0"/>
        <pt x="672" y="-335" on="0"/>
        <pt x="672" y="-451" on="0"/>
        <pt x="630" y="-526" on="0"/>
        <pt x="543" y="-526" on="0"/>
        <pt x="494" y="-454" on="0"/>
        <pt x="494" y="-339" on="0"/>
        <pt x="552" y="-60" on="0"/>
        <pt x="552" y="12" on="1"/>
        <pt x="315" y="87" on="0"/>
        <pt x="76" y="427" on="0"/>
        <pt x="76" y="677" on="1"/>
        <pt x="76" y="1195" on="0"/>
        <pt x="598" y="1331" on="1"/>
        <pt x="767" y="1375" on="0"/>
        <pt x="1128" y="1375" on="0"/>
        <pt x="1381" y="1335" on="0"/>
        <pt x="1618" y="1234" on="0"/>
        <pt x="1785" y="1079" on="0"/>
        <pt x="1885" y="834" on="0"/>
        <pt x="1885" y="677" on="1"/>
        <pt x="1885" y="357" on="0"/>
        <pt x="1525" y="6" on="0"/>
        <pt x="1199" y="-34" on="1"/>
        <pt x="1195" y="-41" on="0"/>
        <pt x="1195" y="-56" on="1"/>
        <pt x="1200" y="-111" on="1"/>
        <pt x="1200" y="-162" on="0"/>
        <pt x="1144" y="-162" on="0"/>
        <pt x="1144" y="-113" on="1"/>
        <pt x="1147" y="-57" on="1"/>
        <pt x="1147" y="-27" on="0"/>
        <pt x="1104" y="-27" on="1"/>
        <pt x="1100" y="-36" on="0"/>
        <pt x="1100" y="-61" on="1"/>
        <pt x="1105" y="-158" on="1"/>
        <pt x="1105" y="-188" on="0"/>
        <pt x="1083" y="-244" on="0"/>
        <pt x="1057" y="-244" on="1"/>
        <pt x="1011" y="-244" on="0"/>
      </contour>
      <contour>
        <pt x="633" y="676" on="1"/>
        <pt x="633" y="310" on="0"/>
        <pt x="1329" y="310" on="0"/>
        <pt x="1329" y="676" on="1"/>
        <pt x="1329" y="844" on="0"/>
        <pt x="1149" y="1022" on="0"/>
        <pt x="813" y="1022" on="0"/>
        <pt x="633" y="844" on="0"/>
      </contour>
    </TTGlyph>
    <TTGlyph name="OE" xMin="82" yMin="-37" xMax="2648" yMax="1371">
      <contour>
        <pt x="100" y="500" on="1"/>
        <pt x="82" y="582" on="0"/>
        <pt x="82" y="818" on="0"/>
        <pt x="171" y="1040" on="0"/>
        <pt x="329" y="1191" on="0"/>
        <pt x="443" y="1240" on="1"/>
        <pt x="656" y="1333" on="0"/>
        <pt x="986" y="1333" on="1"/>
        <pt x="2482" y="1332" on="1"/>
        <pt x="2542" y="1332" on="0"/>
        <pt x="2581" y="1371" on="1"/>
        <pt x="2602" y="1350" on="1"/>
        <pt x="2563" y="1311" on="0"/>
        <pt x="2563" y="1251" on="1"/>
        <pt x="2563" y="1076" on="1"/>
        <pt x="2563" y="1015" on="0"/>
        <pt x="2602" y="976" on="1"/>
        <pt x="2581" y="957" on="1"/>
        <pt x="2543" y="995" on="0"/>
        <pt x="2482" y="995" on="1"/>
        <pt x="1835" y="995" on="1"/>
        <pt x="1775" y="995" on="0"/>
        <pt x="1736" y="1034" on="1"/>
        <pt x="1715" y="1014" on="1"/>
        <pt x="1754" y="975" on="0"/>
        <pt x="1754" y="916" on="1"/>
        <pt x="1754" y="914" on="1"/>
        <pt x="1754" y="854" on="0"/>
        <pt x="1715" y="815" on="1"/>
        <pt x="1736" y="796" on="1"/>
        <pt x="1774" y="834" on="0"/>
        <pt x="1835" y="834" on="1"/>
        <pt x="2343" y="834" on="1"/>
        <pt x="2404" y="834" on="0"/>
        <pt x="2443" y="873" on="1"/>
        <pt x="2462" y="853" on="1"/>
        <pt x="2424" y="815" on="0"/>
        <pt x="2424" y="753" on="1"/>
        <pt x="2424" y="579" on="1"/>
        <pt x="2424" y="517" on="0"/>
        <pt x="2462" y="479" on="1"/>
        <pt x="2443" y="458" on="1"/>
        <pt x="2403" y="498" on="0"/>
        <pt x="2343" y="498" on="1"/>
        <pt x="1833" y="498" on="1"/>
        <pt x="1774" y="498" on="0"/>
        <pt x="1736" y="536" on="1"/>
        <pt x="1716" y="516" on="1"/>
        <pt x="1754" y="478" on="0"/>
        <pt x="1754" y="359" on="0"/>
        <pt x="1715" y="320" on="1"/>
        <pt x="1736" y="301" on="1"/>
        <pt x="1773" y="338" on="0"/>
        <pt x="1833" y="338" on="1"/>
        <pt x="2528" y="337" on="1"/>
        <pt x="2589" y="337" on="0"/>
        <pt x="2628" y="376" on="1"/>
        <pt x="2648" y="356" on="1"/>
        <pt x="2609" y="317" on="0"/>
        <pt x="2609" y="256" on="1"/>
        <pt x="2609" y="83" on="1"/>
        <pt x="2609" y="22" on="0"/>
        <pt x="2648" y="-17" on="1"/>
        <pt x="2628" y="-37" on="1"/>
        <pt x="2589" y="2" on="0"/>
        <pt x="2528" y="2" on="1"/>
        <pt x="986" y="-1" on="1"/>
        <pt x="213" y="-1" on="0"/>
      </contour>
      <contour>
        <pt x="986" y="310" on="1"/>
        <pt x="1155" y="311" on="1"/>
        <pt x="1216" y="313" on="0"/>
        <pt x="1255" y="274" on="1"/>
        <pt x="1276" y="294" on="1"/>
        <pt x="1237" y="333" on="0"/>
        <pt x="1237" y="393" on="1"/>
        <pt x="1237" y="940" on="1"/>
        <pt x="1237" y="1001" on="0"/>
        <pt x="1276" y="1040" on="1"/>
        <pt x="1255" y="1060" on="1"/>
        <pt x="1217" y="1022" on="0"/>
        <pt x="1155" y="1022" on="1"/>
        <pt x="1070" y="1022" on="0"/>
        <pt x="986" y="1022" on="1"/>
        <pt x="823" y="1022" on="0"/>
        <pt x="638" y="850" on="0"/>
        <pt x="638" y="676" on="1"/>
        <pt x="638" y="310" on="0"/>
      </contour>
    </TTGlyph>
    <TTGlyph name="Oacute" xMin="76" yMin="-683" xMax="1885" yMax="2012">
      <component glyphName="acute" x="802" y="431" flags="0x1004"/>
      <component glyphName="O" x="0" y="0" flags="0x1204"/>
    </TTGlyph>
    <TTGlyph name="Obreve" xMin="76" yMin="-683" xMax="1885" yMax="1821">
      <component glyphName="breve" x="571" y="110" flags="0x1004"/>
      <component glyphName="O" x="0" y="0" flags="0x1204"/>
    </TTGlyph>
    <TTGlyph name="Ocircumflex" xMin="76" yMin="-683" xMax="1885" yMax="1979">
      <component glyphName="circumflex" x="418" y="415" flags="0x1004"/>
      <component glyphName="O" x="0" y="0" flags="0x1204"/>
    </TTGlyph>
    <TTGlyph name="Odieresis" xMin="76" yMin="-683" xMax="1885" yMax="1807">
      <component glyphName="dieresis" x="327" y="428" flags="0x1004"/>
      <component glyphName="O" x="0" y="0" flags="0x1204"/>
    </TTGlyph>
    <TTGlyph name="Ograve" xMin="76" yMin="-683" xMax="1885" yMax="2147">
      <component glyphName="grave" x="278" y="564" flags="0x1004"/>
      <component glyphName="O" x="0" y="0" flags="0x1204"/>
    </TTGlyph>
    <TTGlyph name="Ohungarumlaut" xMin="76" yMin="-683" xMax="1885" yMax="2184">
      <component glyphName="hungarumlaut" x="480" y="529" flags="0x1004"/>
      <component glyphName="O" x="0" y="0" flags="0x1204"/>
    </TTGlyph>
    <TTGlyph name="Omacron" xMin="76" yMin="-683" xMax="1885" yMax="1828">
      <component glyphName="macron" x="410" y="944" flags="0x1004"/>
      <component glyphName="O" x="0" y="0" flags="0x1204"/>
    </TTGlyph>
    <TTGlyph name="Oslash" xMin="76" yMin="-683" xMax="1992" yMax="1588">
      <contour>
        <pt x="1030" y="-162" on="1"/>
        <pt x="1037" y="-66" on="1"/>
        <pt x="1037" y="-41" on="0"/>
        <pt x="989" y="-14" on="0"/>
        <pt x="933" y="-14" on="0"/>
        <pt x="889" y="-44" on="0"/>
        <pt x="889" y="-72" on="1"/>
        <pt x="889" y="-302" on="1"/>
        <pt x="889" y="-353" on="0"/>
        <pt x="930" y="-546" on="0"/>
        <pt x="930" y="-629" on="0"/>
        <pt x="895" y="-683" on="0"/>
        <pt x="832" y="-683" on="0"/>
        <pt x="800" y="-627" on="0"/>
        <pt x="800" y="-537" on="0"/>
        <pt x="846" y="-315" on="0"/>
        <pt x="846" y="-254" on="1"/>
        <pt x="846" y="-7" on="0"/>
        <pt x="754" y="-7" on="1"/>
        <pt x="630" y="-7" on="0"/>
        <pt x="630" y="3" on="1"/>
        <pt x="630" y="1" on="1"/>
        <pt x="630" y="-68" on="0"/>
        <pt x="691" y="-335" on="0"/>
        <pt x="691" y="-451" on="0"/>
        <pt x="649" y="-526" on="0"/>
        <pt x="562" y="-526" on="0"/>
        <pt x="513" y="-454" on="0"/>
        <pt x="513" y="-339" on="0"/>
        <pt x="570" y="-60" on="0"/>
        <pt x="570" y="12" on="1"/>
        <pt x="534" y="23" on="0"/>
        <pt x="501" y="37" on="1"/>
        <pt x="355" y="-101" on="1"/>
        <pt x="298" y="-149" on="0"/>
        <pt x="245" y="-234" on="1"/>
        <pt x="76" y="-67" on="1"/>
        <pt x="120" y="-43" on="0"/>
        <pt x="224" y="46" on="1"/>
        <pt x="324" y="140" on="1"/>
        <pt x="95" y="326" on="0"/>
        <pt x="95" y="677" on="1"/>
        <pt x="95" y="1195" on="0"/>
        <pt x="617" y="1331" on="1"/>
        <pt x="786" y="1375" on="0"/>
        <pt x="1000" y="1375" on="1"/>
        <pt x="1317" y="1375" on="0"/>
        <pt x="1529" y="1281" on="1"/>
        <pt x="1716" y="1457" on="1"/>
        <pt x="1777" y="1510" on="0"/>
        <pt x="1823" y="1588" on="1"/>
        <pt x="1992" y="1421" on="1"/>
        <pt x="1952" y="1399" on="0"/>
        <pt x="1848" y="1310" on="1"/>
        <pt x="1702" y="1172" on="1"/>
        <pt x="1903" y="996" on="0"/>
        <pt x="1903" y="357" on="0"/>
        <pt x="1544" y="6" on="0"/>
        <pt x="1218" y="-34" on="1"/>
        <pt x="1214" y="-41" on="0"/>
        <pt x="1214" y="-56" on="1"/>
        <pt x="1218" y="-111" on="1"/>
        <pt x="1218" y="-162" on="0"/>
        <pt x="1163" y="-162" on="0"/>
        <pt x="1163" y="-113" on="1"/>
        <pt x="1166" y="-57" on="1"/>
        <pt x="1166" y="-27" on="0"/>
        <pt x="1123" y="-27" on="1"/>
        <pt x="1118" y="-38" on="0"/>
        <pt x="1118" y="-61" on="1"/>
        <pt x="1124" y="-158" on="1"/>
        <pt x="1124" y="-188" on="0"/>
        <pt x="1102" y="-244" on="0"/>
        <pt x="1076" y="-244" on="1"/>
        <pt x="1030" y="-244" on="0"/>
      </contour>
      <contour>
        <pt x="824" y="342" on="1"/>
        <pt x="897" y="310" on="0"/>
        <pt x="1000" y="310" on="1"/>
        <pt x="1348" y="310" on="0"/>
        <pt x="1348" y="676" on="1"/>
        <pt x="1348" y="755" on="0"/>
        <pt x="1327" y="818" on="1"/>
      </contour>
      <contour>
        <pt x="1205" y="974" on="1"/>
        <pt x="1123" y="1022" on="0"/>
        <pt x="1000" y="1022" on="1"/>
        <pt x="832" y="1022" on="0"/>
        <pt x="651" y="843" on="0"/>
        <pt x="651" y="676" on="1"/>
        <pt x="651" y="561" on="0"/>
        <pt x="686" y="482" on="1"/>
      </contour>
    </TTGlyph>
    <TTGlyph name="Otilde" xMin="76" yMin="-683" xMax="1885" yMax="1955">
      <component glyphName="tilde" x="349" y="401" flags="0x1004"/>
      <component glyphName="O" x="0" y="0" flags="0x1204"/>
    </TTGlyph>
    <TTGlyph name="P" xMin="134" yMin="-535" xMax="1812" yMax="1374">
      <contour>
        <pt x="178" y="-122" on="1"/>
        <pt x="176" y="81" on="1"/>
        <pt x="176" y="1255" on="1"/>
        <pt x="176" y="1316" on="0"/>
        <pt x="138" y="1354" on="1"/>
        <pt x="158" y="1374" on="1"/>
        <pt x="196" y="1336" on="0"/>
        <pt x="257" y="1336" on="1"/>
        <pt x="1120" y="1336" on="1"/>
        <pt x="1327" y="1336" on="0"/>
        <pt x="1474" y="1312" on="0"/>
        <pt x="1584" y="1283" on="0"/>
        <pt x="1658" y="1243" on="0"/>
        <pt x="1736" y="1181" on="0"/>
        <pt x="1759" y="1142" on="1"/>
        <pt x="1812" y="1052" on="0"/>
        <pt x="1812" y="829" on="0"/>
        <pt x="1763" y="672" on="0"/>
        <pt x="1709" y="610" on="1"/>
        <pt x="1597" y="480" on="0"/>
        <pt x="1328" y="480" on="1"/>
        <pt x="777" y="480" on="1"/>
        <pt x="715" y="480" on="0"/>
        <pt x="677" y="518" on="1"/>
        <pt x="656" y="499" on="1"/>
        <pt x="696" y="459" on="0"/>
        <pt x="696" y="399" on="1"/>
        <pt x="696" y="81" on="1"/>
        <pt x="696" y="4" on="0"/>
        <pt x="694" y="-108" on="1"/>
        <pt x="649" y="-112" on="1"/>
        <pt x="636" y="0" on="0"/>
        <pt x="615" y="0" on="1"/>
        <pt x="257" y="0" on="1"/>
        <pt x="245" y="0" on="0"/>
        <pt x="230" y="-97" on="0"/>
        <pt x="230" y="-186" on="0"/>
        <pt x="268" y="-400" on="0"/>
        <pt x="268" y="-443" on="1"/>
        <pt x="268" y="-535" on="0"/>
        <pt x="134" y="-535" on="0"/>
        <pt x="134" y="-441" on="1"/>
        <pt x="134" y="-396" on="0"/>
        <pt x="178" y="-168" on="0"/>
      </contour>
      <contour>
        <pt x="696" y="921" on="1"/>
        <pt x="696" y="862" on="1"/>
        <pt x="696" y="803" on="0"/>
        <pt x="656" y="763" on="1"/>
        <pt x="677" y="742" on="1"/>
        <pt x="716" y="781" on="0"/>
        <pt x="777" y="781" on="1"/>
        <pt x="1101" y="781" on="1"/>
        <pt x="1202" y="781" on="0"/>
        <pt x="1242" y="804" on="0"/>
        <pt x="1256" y="816" on="1"/>
        <pt x="1280" y="838" on="0"/>
        <pt x="1280" y="920" on="0"/>
        <pt x="1263" y="959" on="0"/>
        <pt x="1231" y="981" on="0"/>
        <pt x="1199" y="995" on="0"/>
        <pt x="1176" y="998" on="1"/>
        <pt x="1144" y="1002" on="0"/>
        <pt x="1105" y="1002" on="1"/>
        <pt x="777" y="1002" on="1"/>
        <pt x="715" y="1002" on="0"/>
        <pt x="677" y="1040" on="1"/>
        <pt x="656" y="1021" on="1"/>
        <pt x="696" y="981" on="0"/>
      </contour>
      <contour>
        <pt x="456" y="-68" on="1"/>
        <pt x="482" y="-305" on="1"/>
        <pt x="482" y="-366" on="0"/>
        <pt x="393" y="-366" on="0"/>
        <pt x="393" y="-304" on="1"/>
        <pt x="393" y="-268" on="0"/>
        <pt x="430" y="-89" on="0"/>
        <pt x="430" y="-34" on="0"/>
        <pt x="429" y="52" on="0"/>
        <pt x="429" y="81" on="1"/>
        <pt x="474" y="28" on="1"/>
        <pt x="467" y="28" on="0"/>
        <pt x="456" y="-37" on="0"/>
      </contour>
    </TTGlyph>
    <TTGlyph name="Q" xMin="83" yMin="-272" xMax="1996" yMax="1400">
      <contour>
        <pt x="144" y="367" on="0"/>
        <pt x="83" y="575" on="0"/>
        <pt x="83" y="850" on="0"/>
        <pt x="172" y="1087" on="0"/>
        <pt x="330" y="1247" on="0"/>
        <pt x="558" y="1353" on="0"/>
        <pt x="827" y="1400" on="0"/>
        <pt x="1147" y="1400" on="0"/>
        <pt x="1416" y="1353" on="0"/>
        <pt x="1645" y="1247" on="0"/>
        <pt x="1724" y="1167" on="1"/>
        <pt x="1892" y="997" on="0"/>
        <pt x="1892" y="426" on="0"/>
        <pt x="1748" y="270" on="1"/>
        <pt x="1705" y="224" on="0"/>
        <pt x="1652" y="219" on="1"/>
        <pt x="1655" y="193" on="1"/>
        <pt x="1711" y="199" on="0"/>
        <pt x="1760" y="166" on="1"/>
        <pt x="1887" y="80" on="1"/>
        <pt x="1940" y="46" on="0"/>
        <pt x="1994" y="50" on="1"/>
        <pt x="1996" y="25" on="1"/>
        <pt x="1938" y="21" on="0"/>
        <pt x="1894" y="-19" on="1"/>
        <pt x="1710" y="-177" on="1"/>
        <pt x="1664" y="-218" on="0"/>
        <pt x="1668" y="-270" on="1"/>
        <pt x="1636" y="-272" on="1"/>
        <pt x="1631" y="-219" on="0"/>
        <pt x="1581" y="-187" on="1"/>
        <pt x="1327" y="-22" on="1"/>
        <pt x="1299" y="-4" on="0"/>
        <pt x="1279" y="30" on="0"/>
        <pt x="1285" y="58" on="1"/>
        <pt x="1248" y="67" on="1"/>
        <pt x="1242" y="39" on="0"/>
        <pt x="1209" y="16" on="0"/>
        <pt x="1073" y="-4" on="0"/>
        <pt x="897" y="-4" on="0"/>
        <pt x="735" y="10" on="0"/>
        <pt x="548" y="50" on="0"/>
        <pt x="393" y="114" on="0"/>
        <pt x="245" y="224" on="0"/>
      </contour>
      <contour>
        <pt x="636" y="706" on="1"/>
        <pt x="636" y="342" on="0"/>
        <pt x="1341" y="342" on="0"/>
        <pt x="1341" y="706" on="1"/>
        <pt x="1341" y="880" on="0"/>
        <pt x="1152" y="1053" on="0"/>
        <pt x="826" y="1053" on="0"/>
        <pt x="636" y="880" on="0"/>
      </contour>
    </TTGlyph>
    <TTGlyph name="R" xMin="138" yMin="-716" xMax="2040" yMax="1374">
      <contour>
        <pt x="1768" y="-328" on="1"/>
        <pt x="1790" y="-121" on="1"/>
        <pt x="1790" y="5" on="0"/>
        <pt x="1585" y="138" on="0"/>
        <pt x="1359" y="123" on="0"/>
        <pt x="1314" y="54" on="1"/>
        <pt x="1291" y="21" on="0"/>
        <pt x="1291" y="-24" on="1"/>
        <pt x="1286" y="-292" on="1"/>
        <pt x="1286" y="-347" on="0"/>
        <pt x="1320" y="-564" on="0"/>
        <pt x="1320" y="-619" on="1"/>
        <pt x="1320" y="-716" on="0"/>
        <pt x="1210" y="-716" on="0"/>
        <pt x="1210" y="-622" on="1"/>
        <pt x="1210" y="-560" on="0"/>
        <pt x="1246" y="-328" on="0"/>
        <pt x="1251" y="-208" on="0"/>
        <pt x="1251" y="-12" on="1"/>
        <pt x="1251" y="40" on="0"/>
        <pt x="1187" y="176" on="0"/>
        <pt x="1049" y="414" on="0"/>
        <pt x="1005" y="505" on="1"/>
        <pt x="975" y="522" on="1"/>
        <pt x="951" y="478" on="0"/>
        <pt x="890" y="478" on="1"/>
        <pt x="806" y="475" on="1"/>
        <pt x="720" y="475" on="0"/>
        <pt x="677" y="517" on="1"/>
        <pt x="656" y="497" on="1"/>
        <pt x="659" y="460" on="0"/>
        <pt x="659" y="339" on="1"/>
        <pt x="658" y="94" on="1"/>
        <pt x="658" y="-16" on="0"/>
        <pt x="662" y="-68" on="1"/>
        <pt x="681" y="-215" on="1"/>
        <pt x="681" y="-256" on="0"/>
        <pt x="625" y="-256" on="0"/>
        <pt x="625" y="-218" on="1"/>
        <pt x="641" y="-94" on="1"/>
        <pt x="641" y="-49" on="0"/>
        <pt x="588" y="4" on="0"/>
        <pt x="503" y="4" on="0"/>
        <pt x="438" y="-71" on="0"/>
        <pt x="438" y="-191" on="0"/>
        <pt x="482" y="-396" on="0"/>
        <pt x="482" y="-441" on="1"/>
        <pt x="482" y="-535" on="0"/>
        <pt x="348" y="-535" on="0"/>
        <pt x="348" y="-443" on="1"/>
        <pt x="348" y="-400" on="0"/>
        <pt x="387" y="-186" on="0"/>
        <pt x="387" y="-60" on="0"/>
        <pt x="329" y="21" on="0"/>
        <pt x="255" y="21" on="0"/>
        <pt x="203" y="-30" on="0"/>
        <pt x="203" y="-68" on="1"/>
        <pt x="230" y="-305" on="1"/>
        <pt x="230" y="-366" on="0"/>
        <pt x="140" y="-366" on="0"/>
        <pt x="140" y="-304" on="1"/>
        <pt x="140" y="-268" on="0"/>
        <pt x="178" y="-89" on="0"/>
        <pt x="176" y="11" on="0"/>
        <pt x="176" y="1255" on="1"/>
        <pt x="176" y="1317" on="0"/>
        <pt x="138" y="1354" on="1"/>
        <pt x="158" y="1374" on="1"/>
        <pt x="197" y="1336" on="0"/>
        <pt x="257" y="1336" on="1"/>
        <pt x="1153" y="1336" on="1"/>
        <pt x="1363" y="1336" on="0"/>
        <pt x="1508" y="1311" on="0"/>
        <pt x="1617" y="1283" on="0"/>
        <pt x="1692" y="1242" on="0"/>
        <pt x="1769" y="1181" on="0"/>
        <pt x="1792" y="1142" on="1"/>
        <pt x="1845" y="1053" on="0"/>
        <pt x="1845" y="853" on="0"/>
        <pt x="1814" y="726" on="0"/>
        <pt x="1778" y="670" on="1"/>
        <pt x="1700" y="549" on="0"/>
        <pt x="1504" y="549" on="1"/>
        <pt x="1496" y="526" on="1"/>
        <pt x="1559" y="501" on="0"/>
        <pt x="1580" y="457" on="1"/>
        <pt x="1668" y="265" on="0"/>
        <pt x="1752" y="162" on="0"/>
        <pt x="1824" y="100" on="0"/>
        <pt x="1958" y="36" on="0"/>
        <pt x="1986" y="17" on="0"/>
        <pt x="1986" y="11" on="1"/>
        <pt x="1986" y="-89" on="0"/>
        <pt x="2040" y="-403" on="0"/>
        <pt x="2040" y="-493" on="0"/>
        <pt x="2033" y="-533" on="0"/>
        <pt x="2009" y="-572" on="0"/>
        <pt x="1963" y="-572" on="0"/>
        <pt x="1940" y="-506" on="0"/>
        <pt x="1940" y="-410" on="0"/>
        <pt x="1966" y="-163" on="0"/>
        <pt x="1966" y="-100" on="1"/>
        <pt x="1966" y="25" on="0"/>
        <pt x="1885" y="25" on="1"/>
        <pt x="1845" y="25" on="0"/>
        <pt x="1806" y="-3" on="0"/>
        <pt x="1806" y="-90" on="0"/>
        <pt x="1842" y="-280" on="0"/>
        <pt x="1842" y="-377" on="0"/>
        <pt x="1768" y="-377" on="0"/>
      </contour>
      <contour>
        <pt x="1102" y="1004" on="1"/>
        <pt x="866" y="997" on="1"/>
        <pt x="721" y="997" on="0"/>
        <pt x="677" y="1040" on="1"/>
        <pt x="656" y="1021" on="1"/>
        <pt x="696" y="982" on="0"/>
        <pt x="696" y="921" on="1"/>
        <pt x="696" y="854" on="1"/>
        <pt x="696" y="794" on="0"/>
        <pt x="656" y="754" on="1"/>
        <pt x="677" y="734" on="1"/>
        <pt x="720" y="778" on="0"/>
        <pt x="855" y="778" on="1"/>
        <pt x="1108" y="769" on="1"/>
        <pt x="1209" y="769" on="0"/>
        <pt x="1320" y="822" on="0"/>
        <pt x="1320" y="893" on="1"/>
        <pt x="1320" y="938" on="0"/>
        <pt x="1258" y="989" on="0"/>
        <pt x="1170" y="1004" on="0"/>
      </contour>
    </TTGlyph>
    <TTGlyph name="Racute" xMin="138" yMin="-716" xMax="2040" yMax="2012">
      <component glyphName="acute" x="911" y="431" flags="0x1004"/>
      <component glyphName="R" x="0" y="0" flags="0x1204"/>
    </TTGlyph>
    <TTGlyph name="Rcaron" xMin="138" yMin="-716" xMax="2040" yMax="1978">
      <component glyphName="caron" x="436" y="415" flags="0x1004"/>
      <component glyphName="R" x="0" y="0" flags="0x1204"/>
    </TTGlyph>
    <TTGlyph name="Rcommaaccent" xMin="138" yMin="-775" xMax="2040" yMax="1374">
      <component glyphName="uni0326" x="612" y="-473" flags="0x1004"/>
      <component glyphName="R" x="0" y="0" flags="0x1204"/>
    </TTGlyph>
    <TTGlyph name="S" xMin="48" yMin="-328" xMax="1786" yMax="1410">
      <contour>
        <pt x="762" y="-292" on="1"/>
        <pt x="772" y="-191" on="1"/>
        <pt x="772" y="-4" on="1"/>
        <pt x="503" y="10" on="0"/>
        <pt x="237" y="129" on="0"/>
        <pt x="174" y="219" on="1"/>
        <pt x="136" y="272" on="0"/>
        <pt x="95" y="403" on="0"/>
        <pt x="48" y="436" on="1"/>
        <pt x="63" y="457" on="1"/>
        <pt x="108" y="427" on="0"/>
        <pt x="213" y="427" on="0"/>
        <pt x="377" y="435" on="0"/>
        <pt x="583" y="446" on="0"/>
        <pt x="671" y="450" on="0"/>
        <pt x="713" y="471" on="0"/>
        <pt x="722" y="499" on="1"/>
        <pt x="767" y="484" on="1"/>
        <pt x="764" y="476" on="0"/>
        <pt x="764" y="463" on="1"/>
        <pt x="764" y="430" on="0"/>
        <pt x="874" y="346" on="0"/>
        <pt x="1018" y="346" on="1"/>
        <pt x="1115" y="346" on="0"/>
        <pt x="1156" y="379" on="1"/>
        <pt x="1174" y="394" on="0"/>
        <pt x="1174" y="415" on="1"/>
        <pt x="1174" y="464" on="0"/>
        <pt x="1066" y="496" on="0"/>
        <pt x="913" y="519" on="0"/>
        <pt x="760" y="533" on="0"/>
        <pt x="582" y="559" on="0"/>
        <pt x="424" y="590" on="0"/>
        <pt x="275" y="650" on="0"/>
        <pt x="169" y="731" on="0"/>
        <pt x="104" y="858" on="0"/>
        <pt x="104" y="1020" on="0"/>
        <pt x="155" y="1154" on="0"/>
        <pt x="243" y="1250" on="0"/>
        <pt x="368" y="1324" on="0"/>
        <pt x="505" y="1370" on="0"/>
        <pt x="586" y="1384" on="1"/>
        <pt x="727" y="1410" on="0"/>
        <pt x="977" y="1410" on="0"/>
        <pt x="1108" y="1403" on="0"/>
        <pt x="1285" y="1384" on="0"/>
        <pt x="1428" y="1341" on="0"/>
        <pt x="1498" y="1308" on="1"/>
        <pt x="1644" y="1240" on="0"/>
        <pt x="1703" y="1097" on="1"/>
        <pt x="1727" y="1046" on="0"/>
        <pt x="1769" y="1002" on="1"/>
        <pt x="1756" y="979" on="1"/>
        <pt x="1714" y="1008" on="0"/>
        <pt x="1659" y="1008" on="1"/>
        <pt x="1646" y="1008" on="1"/>
        <pt x="1566" y="1005" on="0"/>
        <pt x="1269" y="988" on="0"/>
        <pt x="1184" y="984" on="0"/>
        <pt x="1147" y="964" on="0"/>
        <pt x="1139" y="936" on="1"/>
        <pt x="1095" y="948" on="1"/>
        <pt x="1098" y="957" on="0"/>
        <pt x="1098" y="967" on="1"/>
        <pt x="1098" y="1009" on="0"/>
        <pt x="962" y="1070" on="0"/>
        <pt x="876" y="1070" on="1"/>
        <pt x="708" y="1070" on="0"/>
        <pt x="708" y="1004" on="1"/>
        <pt x="708" y="945" on="0"/>
        <pt x="960" y="918" on="1"/>
        <pt x="1019" y="911" on="0"/>
        <pt x="1094" y="904" on="1"/>
        <pt x="1355" y="877" on="0"/>
        <pt x="1494" y="833" on="1"/>
        <pt x="1786" y="741" on="0"/>
        <pt x="1786" y="482" on="1"/>
        <pt x="1786" y="376" on="0"/>
        <pt x="1698" y="207" on="0"/>
        <pt x="1557" y="101" on="0"/>
        <pt x="1461" y="66" on="1"/>
        <pt x="1288" y="3" on="0"/>
        <pt x="1066" y="3" on="1"/>
        <pt x="1006" y="3" on="0"/>
        <pt x="995" y="4" on="1"/>
        <pt x="941" y="4" on="0"/>
        <pt x="941" y="-79" on="1"/>
        <pt x="941" y="-103" on="1"/>
        <pt x="941" y="-130" on="0"/>
        <pt x="968" y="-235" on="0"/>
        <pt x="968" y="-261" on="1"/>
        <pt x="968" y="-314" on="0"/>
        <pt x="931" y="-314" on="1"/>
        <pt x="912" y="-314" on="0"/>
        <pt x="891" y="-282" on="0"/>
        <pt x="891" y="-234" on="0"/>
        <pt x="916" y="-119" on="0"/>
        <pt x="916" y="-67" on="0"/>
        <pt x="915" y="-46" on="0"/>
        <pt x="910" y="-15" on="0"/>
        <pt x="904" y="-8" on="1"/>
        <pt x="890" y="10" on="0"/>
        <pt x="856" y="10" on="1"/>
        <pt x="794" y="10" on="0"/>
        <pt x="794" y="-98" on="1"/>
        <pt x="800" y="-262" on="1"/>
        <pt x="800" y="-328" on="0"/>
        <pt x="762" y="-328" on="0"/>
      </contour>
    </TTGlyph>
    <TTGlyph name="Sacute" xMin="48" yMin="-328" xMax="1786" yMax="2047">
      <component glyphName="acute" x="739" y="466" flags="0x1004"/>
      <component glyphName="S" x="0" y="0" flags="0x1204"/>
    </TTGlyph>
    <TTGlyph name="Scaron" xMin="48" yMin="-328" xMax="1786" yMax="2013">
      <component glyphName="caron" x="408" y="450" flags="0x1004"/>
      <component glyphName="S" x="0" y="0" flags="0x1204"/>
    </TTGlyph>
    <TTGlyph name="Scedilla" xMin="48" yMin="-484" xMax="1786" yMax="1410">
      <component glyphName="scedilla" x="0" y="0" flags="0x1004"/>
    </TTGlyph>
    <TTGlyph name="Scircumflex" xMin="48" yMin="-328" xMax="1786" yMax="2014">
      <component glyphName="circumflex" x="354" y="450" flags="0x1004"/>
      <component glyphName="S" x="0" y="0" flags="0x1204"/>
    </TTGlyph>
    <TTGlyph name="T" xMin="54" yMin="-728" xMax="1606" yMax="1373">
      <contour>
        <pt x="92" y="1073" on="1"/>
        <pt x="97" y="1201" on="1"/>
        <pt x="97" y="1311" on="0"/>
        <pt x="54" y="1353" on="1"/>
        <pt x="74" y="1373" on="1"/>
        <pt x="114" y="1334" on="0"/>
        <pt x="173" y="1334" on="1"/>
        <pt x="1486" y="1334" on="1"/>
        <pt x="1547" y="1334" on="0"/>
        <pt x="1586" y="1373" on="1"/>
        <pt x="1606" y="1353" on="1"/>
        <pt x="1568" y="1315" on="0"/>
        <pt x="1568" y="1253" on="1"/>
        <pt x="1563" y="1125" on="1"/>
        <pt x="1563" y="1017" on="0"/>
        <pt x="1606" y="974" on="1"/>
        <pt x="1586" y="953" on="1"/>
        <pt x="1541" y="999" on="0"/>
        <pt x="1440" y="999" on="1"/>
        <pt x="1219" y="985" on="1"/>
        <pt x="1114" y="985" on="0"/>
        <pt x="1068" y="1031" on="1"/>
        <pt x="1047" y="1011" on="1"/>
        <pt x="1086" y="973" on="0"/>
        <pt x="1086" y="911" on="1"/>
        <pt x="1086" y="81" on="1"/>
        <pt x="1086" y="-23" on="0"/>
        <pt x="1123" y="-435" on="0"/>
        <pt x="1123" y="-500" on="1"/>
        <pt x="1123" y="-614" on="0"/>
        <pt x="1041" y="-614" on="0"/>
        <pt x="1041" y="-452" on="0"/>
        <pt x="1068" y="-175" on="0"/>
        <pt x="1068" y="-105" on="1"/>
        <pt x="1068" y="4" on="0"/>
        <pt x="1025" y="4" on="1"/>
        <pt x="1004" y="4" on="0"/>
        <pt x="980" y="-46" on="0"/>
        <pt x="980" y="-70" on="1"/>
        <pt x="1003" y="-279" on="1"/>
        <pt x="1003" y="-351" on="0"/>
        <pt x="962" y="-351" on="1"/>
        <pt x="941" y="-351" on="0"/>
        <pt x="921" y="-309" on="0"/>
        <pt x="921" y="-253" on="0"/>
        <pt x="957" y="-126" on="0"/>
        <pt x="957" y="-46" on="0"/>
        <pt x="888" y="-4" on="0"/>
        <pt x="783" y="-4" on="0"/>
        <pt x="670" y="-46" on="0"/>
        <pt x="584" y="-135" on="0"/>
        <pt x="584" y="-222" on="0"/>
        <pt x="611" y="-346" on="0"/>
        <pt x="611" y="-429" on="0"/>
        <pt x="574" y="-429" on="1"/>
        <pt x="532" y="-429" on="0"/>
        <pt x="532" y="-340" on="0"/>
        <pt x="564" y="-204" on="0"/>
        <pt x="564" y="-170" on="1"/>
        <pt x="564" y="90" on="1"/>
        <pt x="566" y="638" on="0"/>
        <pt x="566" y="911" on="1"/>
        <pt x="566" y="974" on="0"/>
        <pt x="604" y="1011" on="1"/>
        <pt x="584" y="1031" on="1"/>
        <pt x="540" y="986" on="0"/>
        <pt x="438" y="986" on="1"/>
        <pt x="223" y="999" on="1"/>
        <pt x="120" y="999" on="0"/>
        <pt x="74" y="953" on="1"/>
        <pt x="54" y="974" on="1"/>
        <pt x="92" y="1012" on="0"/>
      </contour>
      <contour>
        <pt x="954" y="-502" on="1"/>
        <pt x="978" y="-612" on="0"/>
        <pt x="978" y="-693" on="1"/>
        <pt x="978" y="-728" on="0"/>
        <pt x="928" y="-728" on="0"/>
        <pt x="928" y="-696" on="1"/>
        <pt x="928" y="-606" on="0"/>
      </contour>
    </TTGlyph>
    <TTGlyph name="Tcaron" xMin="54" yMin="-728" xMax="1606" yMax="1978">
      <component glyphName="caron" x="322" y="415" flags="0x1004"/>
      <component glyphName="T" x="0" y="0" flags="0x1204"/>
    </TTGlyph>
    <TTGlyph name="Tcommaaccent" xMin="54" yMin="-798" xMax="1606" yMax="1373">
      <contour>
        <pt x="92" y="1073" on="1"/>
        <pt x="97" y="1201" on="1"/>
        <pt x="97" y="1311" on="0"/>
        <pt x="54" y="1353" on="1"/>
        <pt x="74" y="1373" on="1"/>
        <pt x="114" y="1334" on="0"/>
        <pt x="173" y="1334" on="1"/>
        <pt x="1486" y="1334" on="1"/>
        <pt x="1547" y="1334" on="0"/>
        <pt x="1586" y="1373" on="1"/>
        <pt x="1606" y="1353" on="1"/>
        <pt x="1568" y="1315" on="0"/>
        <pt x="1568" y="1253" on="1"/>
        <pt x="1563" y="1125" on="1"/>
        <pt x="1563" y="1017" on="0"/>
        <pt x="1606" y="974" on="1"/>
        <pt x="1586" y="953" on="1"/>
        <pt x="1541" y="999" on="0"/>
        <pt x="1440" y="999" on="1"/>
        <pt x="1219" y="985" on="1"/>
        <pt x="1114" y="985" on="0"/>
        <pt x="1068" y="1031" on="1"/>
        <pt x="1047" y="1011" on="1"/>
        <pt x="1086" y="973" on="0"/>
        <pt x="1086" y="911" on="1"/>
        <pt x="1086" y="1" on="1"/>
        <pt x="564" y="0" on="1"/>
        <pt x="564" y="90" on="1"/>
        <pt x="566" y="638" on="0"/>
        <pt x="566" y="911" on="1"/>
        <pt x="566" y="974" on="0"/>
        <pt x="604" y="1011" on="1"/>
        <pt x="584" y="1031" on="1"/>
        <pt x="540" y="986" on="0"/>
        <pt x="438" y="986" on="1"/>
        <pt x="223" y="999" on="1"/>
        <pt x="120" y="999" on="0"/>
        <pt x="74" y="953" on="1"/>
        <pt x="54" y="974" on="1"/>
        <pt x="92" y="1012" on="0"/>
      </contour>
      <contour>
        <pt x="924" y="-572" on="1"/>
        <pt x="948" y="-682" on="0"/>
        <pt x="948" y="-763" on="1"/>
        <pt x="948" y="-798" on="0"/>
        <pt x="898" y="-798" on="0"/>
        <pt x="898" y="-766" on="1"/>
        <pt x="898" y="-676" on="0"/>
      </contour>
      <contour>
        <pt x="709" y="-151" on="1"/>
        <pt x="709" y="-1" on="1"/>
        <pt x="893" y="-1" on="1"/>
        <pt x="867" y="-67" on="1"/>
        <pt x="1132" y="-108" on="0"/>
        <pt x="1132" y="-286" on="1"/>
        <pt x="1132" y="-402" on="0"/>
        <pt x="991" y="-504" on="0"/>
        <pt x="766" y="-504" on="0"/>
        <pt x="637" y="-463" on="1"/>
        <pt x="658" y="-332" on="1"/>
        <pt x="750" y="-365" on="0"/>
        <pt x="842" y="-365" on="0"/>
        <pt x="890" y="-345" on="0"/>
        <pt x="901" y="-329" on="1"/>
        <pt x="921" y="-300" on="0"/>
        <pt x="921" y="-252" on="0"/>
        <pt x="907" y="-218" on="0"/>
        <pt x="890" y="-198" on="1"/>
        <pt x="852" y="-150" on="0"/>
        <pt x="748" y="-150" on="1"/>
        <pt x="723" y="-150" on="0"/>
      </contour>
    </TTGlyph>
    <TTGlyph name="Thorn" xMin="133" yMin="-535" xMax="1811" yMax="1372">
      <contour>
        <pt x="177" y="-122" on="1"/>
        <pt x="175" y="81" on="1"/>
        <pt x="175" y="1138" on="1"/>
        <pt x="176" y="1138" on="1"/>
        <pt x="176" y="1251" on="1"/>
        <pt x="176" y="1314" on="0"/>
        <pt x="138" y="1351" on="1"/>
        <pt x="157" y="1372" on="1"/>
        <pt x="199" y="1332" on="0"/>
        <pt x="257" y="1332" on="1"/>
        <pt x="619" y="1332" on="1"/>
        <pt x="679" y="1332" on="0"/>
        <pt x="719" y="1372" on="1"/>
        <pt x="739" y="1351" on="1"/>
        <pt x="700" y="1312" on="0"/>
        <pt x="700" y="1251" on="1"/>
        <pt x="700" y="1139" on="1"/>
        <pt x="1119" y="1141" on="1"/>
        <pt x="1335" y="1141" on="0"/>
        <pt x="1474" y="1117" on="0"/>
        <pt x="1583" y="1088" on="0"/>
        <pt x="1658" y="1048" on="0"/>
        <pt x="1735" y="986" on="0"/>
        <pt x="1758" y="947" on="1"/>
        <pt x="1811" y="860" on="0"/>
        <pt x="1811" y="634" on="0"/>
        <pt x="1762" y="477" on="0"/>
        <pt x="1708" y="414" on="1"/>
        <pt x="1596" y="285" on="0"/>
        <pt x="1327" y="285" on="1"/>
        <pt x="776" y="285" on="1"/>
        <pt x="714" y="285" on="0"/>
        <pt x="676" y="324" on="1"/>
        <pt x="656" y="304" on="1"/>
        <pt x="695" y="265" on="0"/>
        <pt x="695" y="204" on="1"/>
        <pt x="695" y="81" on="1"/>
        <pt x="695" y="4" on="0"/>
        <pt x="693" y="-108" on="1"/>
        <pt x="649" y="-112" on="1"/>
        <pt x="636" y="0" on="0"/>
        <pt x="614" y="0" on="1"/>
        <pt x="462" y="0" on="1"/>
        <pt x="455" y="-26" on="0"/>
        <pt x="455" y="-68" on="1"/>
        <pt x="481" y="-305" on="1"/>
        <pt x="481" y="-366" on="0"/>
        <pt x="392" y="-366" on="0"/>
        <pt x="392" y="-304" on="1"/>
        <pt x="392" y="-268" on="0"/>
        <pt x="429" y="-89" on="0"/>
        <pt x="429" y="-52" on="1"/>
        <pt x="429" y="0" on="1"/>
        <pt x="256" y="0" on="1"/>
        <pt x="244" y="0" on="0"/>
        <pt x="229" y="-97" on="0"/>
        <pt x="229" y="-186" on="0"/>
        <pt x="267" y="-400" on="0"/>
        <pt x="267" y="-443" on="1"/>
        <pt x="267" y="-535" on="0"/>
        <pt x="133" y="-535" on="0"/>
        <pt x="133" y="-441" on="1"/>
        <pt x="133" y="-396" on="0"/>
        <pt x="177" y="-168" on="0"/>
      </contour>
      <contour>
        <pt x="695" y="726" on="1"/>
        <pt x="695" y="668" on="1"/>
        <pt x="695" y="608" on="0"/>
        <pt x="656" y="569" on="1"/>
        <pt x="676" y="548" on="1"/>
        <pt x="715" y="587" on="0"/>
        <pt x="776" y="587" on="1"/>
        <pt x="1100" y="587" on="1"/>
        <pt x="1200" y="587" on="0"/>
        <pt x="1241" y="609" on="0"/>
        <pt x="1254" y="621" on="1"/>
        <pt x="1279" y="643" on="0"/>
        <pt x="1279" y="725" on="0"/>
        <pt x="1262" y="764" on="0"/>
        <pt x="1230" y="786" on="0"/>
        <pt x="1198" y="800" on="0"/>
        <pt x="1174" y="803" on="1"/>
        <pt x="1143" y="807" on="0"/>
        <pt x="1104" y="807" on="1"/>
        <pt x="776" y="807" on="1"/>
        <pt x="715" y="807" on="0"/>
        <pt x="676" y="846" on="1"/>
        <pt x="656" y="826" on="1"/>
        <pt x="695" y="787" on="0"/>
      </contour>
    </TTGlyph>
    <TTGlyph name="U" xMin="106" yMin="-602" xMax="1773" yMax="1354">
      <contour>
        <pt x="1732" y="1130" on="1"/>
        <pt x="1741" y="619" on="1"/>
        <pt x="1741" y="352" on="0"/>
        <pt x="1675" y="228" on="1"/>
        <pt x="1613" y="110" on="0"/>
        <pt x="1498" y="51" on="1"/>
        <pt x="1367" y="-17" on="0"/>
        <pt x="1150" y="-37" on="1"/>
        <pt x="1150" y="-224" on="1"/>
        <pt x="1160" y="-327" on="1"/>
        <pt x="1160" y="-361" on="0"/>
        <pt x="1122" y="-361" on="0"/>
        <pt x="1122" y="-295" on="1"/>
        <pt x="1128" y="-132" on="1"/>
        <pt x="1128" y="-24" on="0"/>
        <pt x="1061" y="-24" on="1"/>
        <pt x="1009" y="-24" on="0"/>
        <pt x="1009" y="-109" on="1"/>
        <pt x="1009" y="-109" on="0"/>
        <pt x="1014" y="-196" on="1"/>
        <pt x="1014" y="-226" on="0"/>
        <pt x="1039" y="-341" on="0"/>
        <pt x="1039" y="-389" on="0"/>
        <pt x="1019" y="-421" on="0"/>
        <pt x="981" y="-421" on="0"/>
        <pt x="962" y="-388" on="0"/>
        <pt x="962" y="-342" on="0"/>
        <pt x="989" y="-237" on="0"/>
        <pt x="989" y="-207" on="0"/>
        <pt x="989" y="-176" on="0"/>
        <pt x="987" y="-144" on="0"/>
        <pt x="983" y="-120" on="1"/>
        <pt x="975" y="-70" on="0"/>
        <pt x="935" y="-70" on="1"/>
        <pt x="861" y="-70" on="0"/>
        <pt x="861" y="-216" on="1"/>
        <pt x="861" y="-262" on="1"/>
        <pt x="861" y="-299" on="0"/>
        <pt x="897" y="-441" on="0"/>
        <pt x="897" y="-472" on="1"/>
        <pt x="897" y="-549" on="0"/>
        <pt x="847" y="-549" on="1"/>
        <pt x="822" y="-549" on="0"/>
        <pt x="793" y="-507" on="0"/>
        <pt x="793" y="-441" on="0"/>
        <pt x="826" y="-283" on="0"/>
        <pt x="826" y="-242" on="1"/>
        <pt x="826" y="-43" on="1"/>
        <pt x="542" y="-30" on="0"/>
        <pt x="400" y="40" on="1"/>
        <pt x="152" y="160" on="0"/>
        <pt x="145" y="496" on="1"/>
        <pt x="143" y="589" on="0"/>
        <pt x="143" y="773" on="1"/>
        <pt x="145" y="1235" on="1"/>
        <pt x="145" y="1294" on="0"/>
        <pt x="106" y="1334" on="1"/>
        <pt x="127" y="1354" on="1"/>
        <pt x="164" y="1316" on="0"/>
        <pt x="226" y="1316" on="1"/>
        <pt x="580" y="1316" on="1"/>
        <pt x="641" y="1316" on="0"/>
        <pt x="679" y="1354" on="1"/>
        <pt x="700" y="1334" on="1"/>
        <pt x="662" y="1295" on="0"/>
        <pt x="662" y="1235" on="1"/>
        <pt x="664" y="721" on="1"/>
        <pt x="664" y="572" on="0"/>
        <pt x="680" y="492" on="0"/>
        <pt x="699" y="425" on="0"/>
        <pt x="726" y="385" on="0"/>
        <pt x="768" y="340" on="0"/>
        <pt x="795" y="328" on="1"/>
        <pt x="858" y="300" on="0"/>
        <pt x="979" y="300" on="0"/>
        <pt x="1046" y="311" on="0"/>
        <pt x="1097" y="336" on="0"/>
        <pt x="1138" y="365" on="0"/>
        <pt x="1167" y="410" on="0"/>
        <pt x="1189" y="451" on="0"/>
        <pt x="1202" y="513" on="0"/>
        <pt x="1210" y="560" on="0"/>
        <pt x="1212" y="596" on="1"/>
        <pt x="1215" y="651" on="0"/>
        <pt x="1215" y="721" on="1"/>
        <pt x="1217" y="1235" on="1"/>
        <pt x="1217" y="1296" on="0"/>
        <pt x="1180" y="1334" on="1"/>
        <pt x="1199" y="1354" on="1"/>
        <pt x="1237" y="1316" on="0"/>
        <pt x="1299" y="1316" on="1"/>
        <pt x="1653" y="1316" on="1"/>
        <pt x="1716" y="1316" on="0"/>
        <pt x="1753" y="1354" on="1"/>
        <pt x="1773" y="1334" on="1"/>
        <pt x="1732" y="1292" on="0"/>
      </contour>
      <contour>
        <pt x="1174" y="-602" on="0"/>
        <pt x="1108" y="-602" on="0"/>
        <pt x="1108" y="-553" on="1"/>
        <pt x="1108" y="-505" on="0"/>
        <pt x="1137" y="-438" on="0"/>
        <pt x="1143" y="-438" on="0"/>
        <pt x="1151" y="-456" on="1"/>
        <pt x="1174" y="-508" on="0"/>
      </contour>
    </TTGlyph>
    <TTGlyph name="Uacute" xMin="106" yMin="-602" xMax="1773" yMax="2012">
      <component glyphName="acute" x="762" y="431" flags="0x1004"/>
      <component glyphName="U" x="0" y="0" flags="0x1204"/>
    </TTGlyph>
    <TTGlyph name="Ubreve" xMin="106" yMin="-602" xMax="1773" yMax="1821">
      <component glyphName="breve" x="529" y="110" flags="0x1004"/>
      <component glyphName="U" x="0" y="0" flags="0x1204"/>
    </TTGlyph>
    <TTGlyph name="Ucircumflex" xMin="106" yMin="-602" xMax="1773" yMax="1979">
      <component glyphName="circumflex" x="377" y="415" flags="0x1004"/>
      <component glyphName="U" x="0" y="0" flags="0x1204"/>
    </TTGlyph>
    <TTGlyph name="Udieresis" xMin="106" yMin="-602" xMax="1773" yMax="1807">
      <component glyphName="dieresis" x="286" y="428" flags="0x1004"/>
      <component glyphName="U" x="0" y="0" flags="0x1204"/>
    </TTGlyph>
    <TTGlyph name="Ugrave" xMin="106" yMin="-602" xMax="1773" yMax="2147">
      <component glyphName="grave" x="238" y="564" flags="0x1004"/>
      <component glyphName="U" x="0" y="0" flags="0x1204"/>
    </TTGlyph>
    <TTGlyph name="Uhungarumlaut" xMin="106" yMin="-602" xMax="1773" yMax="2184">
      <component glyphName="hungarumlaut" x="439" y="529" flags="0x1004"/>
      <component glyphName="U" x="0" y="0" flags="0x1204"/>
    </TTGlyph>
    <TTGlyph name="Umacron" xMin="106" yMin="-602" xMax="1773" yMax="1828">
      <component glyphName="macron" x="368" y="944" flags="0x1004"/>
      <component glyphName="U" x="0" y="0" flags="0x1204"/>
    </TTGlyph>
    <TTGlyph name="Uogonek" xMin="106" yMin="-498" xMax="1773" yMax="1354">
      <contour>
        <pt x="1732" y="1130" on="1"/>
        <pt x="1741" y="619" on="1"/>
        <pt x="1741" y="203" on="0"/>
        <pt x="1409" y="32" on="1"/>
        <pt x="1215" y="-68" on="0"/>
        <pt x="935" y="-70" on="1"/>
        <pt x="694" y="-70" on="0"/>
        <pt x="511" y="-30" on="0"/>
        <pt x="396" y="13" on="0"/>
        <pt x="311" y="71" on="0"/>
        <pt x="230" y="157" on="0"/>
        <pt x="204" y="211" on="1"/>
        <pt x="149" y="329" on="0"/>
        <pt x="145" y="496" on="1"/>
        <pt x="143" y="589" on="0"/>
        <pt x="143" y="773" on="1"/>
        <pt x="145" y="1235" on="1"/>
        <pt x="145" y="1294" on="0"/>
        <pt x="106" y="1334" on="1"/>
        <pt x="127" y="1354" on="1"/>
        <pt x="164" y="1316" on="0"/>
        <pt x="226" y="1316" on="1"/>
        <pt x="580" y="1316" on="1"/>
        <pt x="641" y="1316" on="0"/>
        <pt x="679" y="1354" on="1"/>
        <pt x="700" y="1334" on="1"/>
        <pt x="662" y="1295" on="0"/>
        <pt x="662" y="1235" on="1"/>
        <pt x="664" y="721" on="1"/>
        <pt x="664" y="572" on="0"/>
        <pt x="680" y="492" on="0"/>
        <pt x="699" y="425" on="0"/>
        <pt x="726" y="385" on="0"/>
        <pt x="768" y="340" on="0"/>
        <pt x="795" y="328" on="1"/>
        <pt x="858" y="300" on="0"/>
        <pt x="979" y="300" on="0"/>
        <pt x="1046" y="311" on="0"/>
        <pt x="1097" y="336" on="0"/>
        <pt x="1138" y="365" on="0"/>
        <pt x="1167" y="410" on="0"/>
        <pt x="1189" y="451" on="0"/>
        <pt x="1202" y="513" on="0"/>
        <pt x="1210" y="560" on="0"/>
        <pt x="1212" y="596" on="1"/>
        <pt x="1215" y="651" on="0"/>
        <pt x="1215" y="721" on="1"/>
        <pt x="1217" y="1235" on="1"/>
        <pt x="1217" y="1296" on="0"/>
        <pt x="1180" y="1334" on="1"/>
        <pt x="1199" y="1354" on="1"/>
        <pt x="1237" y="1316" on="0"/>
        <pt x="1299" y="1316" on="1"/>
        <pt x="1653" y="1316" on="1"/>
        <pt x="1716" y="1316" on="0"/>
        <pt x="1753" y="1354" on="1"/>
        <pt x="1773" y="1334" on="1"/>
        <pt x="1732" y="1292" on="0"/>
      </contour>
      <contour>
        <pt x="942" y="5" on="1"/>
        <pt x="942" y="-72" on="1"/>
        <pt x="787" y="-109" on="0"/>
        <pt x="746" y="-192" on="1"/>
        <pt x="730" y="-224" on="0"/>
        <pt x="730" y="-261" on="1"/>
        <pt x="730" y="-351" on="0"/>
        <pt x="817" y="-351" on="1"/>
        <pt x="863" y="-351" on="0"/>
        <pt x="936" y="-326" on="1"/>
        <pt x="957" y="-457" on="1"/>
        <pt x="845" y="-498" on="0"/>
        <pt x="744" y="-498" on="1"/>
        <pt x="520" y="-498" on="0"/>
        <pt x="520" y="-280" on="1"/>
        <pt x="520" y="-157" on="0"/>
        <pt x="709" y="-20" on="0"/>
      </contour>
    </TTGlyph>
    <TTGlyph name="Uring" xMin="106" yMin="-602" xMax="1773" yMax="2236">
      <component glyphName="ring" x="476" y="133" flags="0x1004"/>
      <component glyphName="U" x="0" y="0" flags="0x1204"/>
    </TTGlyph>
    <TTGlyph name="Utilde" xMin="106" yMin="-602" xMax="1773" yMax="1955">
      <component glyphName="tilde" x="308" y="401" flags="0x1004"/>
      <component glyphName="U" x="0" y="0" flags="0x1204"/>
    </TTGlyph>
    <TTGlyph name="V" xMin="-13" yMin="-596" xMax="1762" yMax="1413">
      <contour>
        <pt x="622" y="-262" on="1"/>
        <pt x="622" y="-295" on="0"/>
        <pt x="592" y="-295" on="1"/>
        <pt x="577" y="-295" on="0"/>
        <pt x="559" y="-274" on="0"/>
        <pt x="559" y="-216" on="0"/>
        <pt x="587" y="-47" on="0"/>
        <pt x="587" y="80" on="0"/>
        <pt x="554" y="155" on="1"/>
        <pt x="58" y="1296" on="1"/>
        <pt x="36" y="1350" on="0"/>
        <pt x="-13" y="1383" on="1"/>
        <pt x="0" y="1402" on="1"/>
        <pt x="47" y="1371" on="0"/>
        <pt x="108" y="1371" on="1"/>
        <pt x="457" y="1371" on="1"/>
        <pt x="518" y="1371" on="0"/>
        <pt x="545" y="1413" on="1"/>
        <pt x="574" y="1395" on="1"/>
        <pt x="557" y="1373" on="0"/>
        <pt x="557" y="1332" on="0"/>
        <pt x="612" y="1188" on="0"/>
        <pt x="702" y="971" on="0"/>
        <pt x="781" y="785" on="0"/>
        <pt x="869" y="581" on="0"/>
        <pt x="874" y="569" on="1"/>
        <pt x="879" y="581" on="0"/>
        <pt x="967" y="785" on="0"/>
        <pt x="1046" y="971" on="0"/>
        <pt x="1091" y="1080" on="1"/>
        <pt x="1191" y="1321" on="0"/>
        <pt x="1191" y="1375" on="0"/>
        <pt x="1175" y="1395" on="1"/>
        <pt x="1203" y="1413" on="1"/>
        <pt x="1230" y="1371" on="0"/>
        <pt x="1291" y="1371" on="1"/>
        <pt x="1641" y="1371" on="1"/>
        <pt x="1703" y="1371" on="0"/>
        <pt x="1750" y="1402" on="1"/>
        <pt x="1762" y="1383" on="1"/>
        <pt x="1713" y="1350" on="0"/>
        <pt x="1691" y="1296" on="1"/>
        <pt x="1188" y="106" on="1"/>
        <pt x="1175" y="76" on="0"/>
        <pt x="1175" y="-152" on="0"/>
        <pt x="1222" y="-431" on="0"/>
        <pt x="1222" y="-499" on="1"/>
        <pt x="1222" y="-596" on="0"/>
        <pt x="1083" y="-596" on="0"/>
        <pt x="1083" y="-500" on="1"/>
        <pt x="1083" y="-435" on="0"/>
        <pt x="1133" y="-180" on="0"/>
        <pt x="1133" y="32" on="0"/>
        <pt x="1107" y="32" on="1"/>
        <pt x="623" y="32" on="1"/>
        <pt x="607" y="32" on="0"/>
        <pt x="607" y="-42" on="1"/>
      </contour>
    </TTGlyph>
    <TTGlyph name="W" xMin="12" yMin="-328" xMax="2556" yMax="1397">
      <contour>
        <pt x="502" y="-328" on="1"/>
        <pt x="462" y="-328" on="0"/>
        <pt x="462" y="-210" on="0"/>
        <pt x="490" y="-11" on="0"/>
        <pt x="490" y="73" on="0"/>
        <pt x="484" y="95" on="1"/>
        <pt x="78" y="1276" on="1"/>
        <pt x="56" y="1337" on="0"/>
        <pt x="12" y="1367" on="1"/>
        <pt x="26" y="1387" on="1"/>
        <pt x="74" y="1354" on="0"/>
        <pt x="133" y="1354" on="1"/>
        <pt x="500" y="1354" on="1"/>
        <pt x="562" y="1354" on="0"/>
        <pt x="592" y="1396" on="1"/>
        <pt x="618" y="1376" on="1"/>
        <pt x="597" y="1349" on="0"/>
        <pt x="597" y="1261" on="0"/>
        <pt x="659" y="1070" on="0"/>
        <pt x="696" y="982" on="1"/>
        <pt x="794" y="746" on="0"/>
        <pt x="794" y="607" on="1"/>
        <pt x="807" y="607" on="1"/>
        <pt x="807" y="740" on="0"/>
        <pt x="1044" y="1227" on="0"/>
        <pt x="1044" y="1324" on="1"/>
        <pt x="1044" y="1351" on="0"/>
        <pt x="1026" y="1377" on="1"/>
        <pt x="1052" y="1397" on="1"/>
        <pt x="1082" y="1354" on="0"/>
        <pt x="1143" y="1354" on="1"/>
        <pt x="1426" y="1354" on="1"/>
        <pt x="1486" y="1354" on="0"/>
        <pt x="1516" y="1397" on="1"/>
        <pt x="1543" y="1377" on="1"/>
        <pt x="1524" y="1352" on="0"/>
        <pt x="1524" y="1272" on="0"/>
        <pt x="1597" y="1079" on="0"/>
        <pt x="1641" y="988" on="1"/>
        <pt x="1759" y="744" on="0"/>
        <pt x="1761" y="607" on="1"/>
        <pt x="1774" y="607" on="1"/>
        <pt x="1774" y="750" on="0"/>
        <pt x="1970" y="1213" on="0"/>
        <pt x="1970" y="1318" on="1"/>
        <pt x="1970" y="1351" on="0"/>
        <pt x="1951" y="1376" on="1"/>
        <pt x="1977" y="1396" on="1"/>
        <pt x="2007" y="1354" on="0"/>
        <pt x="2069" y="1354" on="1"/>
        <pt x="2436" y="1354" on="1"/>
        <pt x="2495" y="1354" on="0"/>
        <pt x="2543" y="1387" on="1"/>
        <pt x="2556" y="1367" on="1"/>
        <pt x="2512" y="1337" on="0"/>
        <pt x="2491" y="1276" on="1"/>
        <pt x="2484" y="1255" on="0"/>
        <pt x="2376" y="955" on="0"/>
        <pt x="2268" y="648" on="0"/>
        <pt x="2210" y="478" on="1"/>
        <pt x="2077" y="93" on="0"/>
        <pt x="2077" y="21" on="0"/>
        <pt x="2096" y="-4" on="1"/>
        <pt x="2069" y="-24" on="1"/>
        <pt x="2039" y="19" on="0"/>
        <pt x="1978" y="19" on="1"/>
        <pt x="1607" y="20" on="1"/>
        <pt x="1545" y="20" on="0"/>
        <pt x="1516" y="-22" on="1"/>
        <pt x="1489" y="-4" on="1"/>
        <pt x="1507" y="20" on="0"/>
        <pt x="1507" y="105" on="0"/>
        <pt x="1439" y="290" on="0"/>
        <pt x="1398" y="375" on="1"/>
        <pt x="1290" y="603" on="0"/>
        <pt x="1290" y="733" on="1"/>
        <pt x="1278" y="733" on="1"/>
        <pt x="1278" y="601" on="0"/>
        <pt x="1060" y="146" on="0"/>
        <pt x="1060" y="51" on="1"/>
        <pt x="1060" y="19" on="0"/>
        <pt x="1079" y="-4" on="1"/>
        <pt x="1052" y="-22" on="1"/>
        <pt x="1023" y="20" on="0"/>
        <pt x="961" y="20" on="1"/>
        <pt x="591" y="19" on="1"/>
        <pt x="532" y="19" on="0"/>
        <pt x="532" y="-16" on="1"/>
        <pt x="549" y="-261" on="1"/>
        <pt x="549" y="-286" on="0"/>
        <pt x="525" y="-328" on="0"/>
      </contour>
    </TTGlyph>
    <TTGlyph name="Wcircumflex" xMin="12" yMin="-328" xMax="2556" yMax="2001">
      <component glyphName="circumflex" x="722" y="437" flags="0x1004"/>
      <component glyphName="W" x="0" y="0" flags="0x1204"/>
    </TTGlyph>
    <TTGlyph name="X" xMin="-21" yMin="-742" xMax="1836" yMax="1395">
      <contour>
        <pt x="657" y="-30" on="1"/>
        <pt x="633" y="14" on="0"/>
        <pt x="573" y="14" on="1"/>
        <pt x="101" y="14" on="1"/>
        <pt x="41" y="14" on="0"/>
        <pt x="-13" y="-11" on="1"/>
        <pt x="-21" y="4" on="1"/>
        <pt x="36" y="32" on="0"/>
        <pt x="72" y="77" on="1"/>
        <pt x="555" y="660" on="1"/>
        <pt x="594" y="706" on="0"/>
        <pt x="648" y="706" on="1"/>
        <pt x="648" y="737" on="1"/>
        <pt x="595" y="737" on="0"/>
        <pt x="558" y="786" on="1"/>
        <pt x="166" y="1288" on="1"/>
        <pt x="129" y="1336" on="0"/>
        <pt x="76" y="1362" on="1"/>
        <pt x="84" y="1378" on="1"/>
        <pt x="136" y="1352" on="0"/>
        <pt x="197" y="1352" on="1"/>
        <pt x="643" y="1350" on="1"/>
        <pt x="704" y="1350" on="0"/>
        <pt x="726" y="1395" on="1"/>
        <pt x="758" y="1379" on="1"/>
        <pt x="748" y="1356" on="0"/>
        <pt x="747" y="1318" on="0"/>
        <pt x="773" y="1285" on="1"/>
        <pt x="889" y="1135" on="1"/>
        <pt x="925" y="1089" on="0"/>
        <pt x="925" y="1030" on="1"/>
        <pt x="950" y="1030" on="1"/>
        <pt x="950" y="1088" on="0"/>
        <pt x="987" y="1135" on="1"/>
        <pt x="1103" y="1285" on="1"/>
        <pt x="1127" y="1317" on="0"/>
        <pt x="1127" y="1358" on="0"/>
        <pt x="1118" y="1379" on="1"/>
        <pt x="1150" y="1395" on="1"/>
        <pt x="1172" y="1350" on="0"/>
        <pt x="1233" y="1350" on="1"/>
        <pt x="1668" y="1352" on="1"/>
        <pt x="1728" y="1352" on="0"/>
        <pt x="1782" y="1377" on="1"/>
        <pt x="1789" y="1362" on="1"/>
        <pt x="1736" y="1336" on="0"/>
        <pt x="1698" y="1289" on="1"/>
        <pt x="1287" y="785" on="1"/>
        <pt x="1249" y="738" on="0"/>
        <pt x="1195" y="738" on="1"/>
        <pt x="1195" y="706" on="1"/>
        <pt x="1249" y="706" on="0"/>
        <pt x="1286" y="659" on="1"/>
        <pt x="1745" y="77" on="1"/>
        <pt x="1780" y="32" on="0"/>
        <pt x="1836" y="4" on="1"/>
        <pt x="1828" y="-12" on="1"/>
        <pt x="1776" y="14" on="0"/>
        <pt x="1715" y="14" on="1"/>
        <pt x="1253" y="14" on="1"/>
        <pt x="1209" y="14" on="0"/>
        <pt x="1159" y="-44" on="0"/>
        <pt x="1159" y="-195" on="0"/>
        <pt x="1201" y="-565" on="0"/>
        <pt x="1201" y="-688" on="0"/>
        <pt x="1154" y="-742" on="0"/>
        <pt x="1093" y="-742" on="0"/>
        <pt x="1050" y="-695" on="0"/>
        <pt x="1050" y="-578" on="0"/>
        <pt x="1119" y="-184" on="0"/>
        <pt x="1119" y="-110" on="1"/>
        <pt x="1120" y="80" on="1"/>
        <pt x="961" y="306" on="1"/>
        <pt x="925" y="359" on="0"/>
        <pt x="925" y="412" on="1"/>
        <pt x="900" y="412" on="1"/>
        <pt x="900" y="355" on="0"/>
        <pt x="865" y="306" on="1"/>
        <pt x="702" y="80" on="1"/>
        <pt x="679" y="47" on="0"/>
        <pt x="679" y="9" on="0"/>
        <pt x="690" y="-13" on="1"/>
      </contour>
    </TTGlyph>
    <TTGlyph name="Y" xMin="-6" yMin="-450" xMax="1765" yMax="1384">
      <contour>
        <pt x="720" y="-354" on="1"/>
        <pt x="731" y="-158" on="1"/>
        <pt x="731" y="10" on="0"/>
        <pt x="647" y="10" on="0"/>
        <pt x="647" y="-96" on="1"/>
        <pt x="647" y="-125" on="1"/>
        <pt x="647" y="-168" on="0"/>
        <pt x="686" y="-338" on="0"/>
        <pt x="686" y="-382" on="1"/>
        <pt x="686" y="-450" on="0"/>
        <pt x="585" y="-450" on="0"/>
        <pt x="585" y="-382" on="1"/>
        <pt x="585" y="-336" on="0"/>
        <pt x="627" y="-160" on="0"/>
        <pt x="627" y="-114" on="1"/>
        <pt x="625" y="294" on="1"/>
        <pt x="625" y="325" on="0"/>
        <pt x="642" y="359" on="0"/>
        <pt x="669" y="367" on="1"/>
        <pt x="659" y="405" on="1"/>
        <pt x="645" y="401" on="0"/>
        <pt x="624" y="401" on="0"/>
        <pt x="613" y="408" on="1"/>
        <pt x="600" y="417" on="0"/>
        <pt x="583" y="444" on="1"/>
        <pt x="76" y="1270" on="1"/>
        <pt x="46" y="1319" on="0"/>
        <pt x="-6" y="1350" on="1"/>
        <pt x="3" y="1367" on="1"/>
        <pt x="53" y="1339" on="0"/>
        <pt x="116" y="1339" on="1"/>
        <pt x="519" y="1341" on="1"/>
        <pt x="579" y="1341" on="0"/>
        <pt x="604" y="1384" on="1"/>
        <pt x="635" y="1367" on="1"/>
        <pt x="622" y="1343" on="0"/>
        <pt x="622" y="1286" on="0"/>
        <pt x="703" y="1148" on="0"/>
        <pt x="800" y="1018" on="0"/>
        <pt x="881" y="860" on="0"/>
        <pt x="881" y="802" on="1"/>
        <pt x="902" y="802" on="1"/>
        <pt x="902" y="810" on="1"/>
        <pt x="902" y="904" on="0"/>
        <pt x="1162" y="1264" on="0"/>
        <pt x="1162" y="1325" on="1"/>
        <pt x="1162" y="1341" on="0"/>
        <pt x="1148" y="1367" on="1"/>
        <pt x="1179" y="1384" on="1"/>
        <pt x="1204" y="1341" on="0"/>
        <pt x="1265" y="1341" on="1"/>
        <pt x="1644" y="1339" on="1"/>
        <pt x="1706" y="1339" on="0"/>
        <pt x="1756" y="1367" on="1"/>
        <pt x="1765" y="1350" on="1"/>
        <pt x="1711" y="1318" on="0"/>
        <pt x="1682" y="1270" on="1"/>
        <pt x="1170" y="444" on="1"/>
        <pt x="1144" y="401" on="0"/>
        <pt x="1117" y="401" on="1"/>
        <pt x="1106" y="401" on="0"/>
        <pt x="1094" y="405" on="1"/>
        <pt x="1082" y="368" on="1"/>
        <pt x="1130" y="353" on="0"/>
        <pt x="1130" y="268" on="1"/>
        <pt x="1124" y="129" on="1"/>
        <pt x="1124" y="33" on="0"/>
        <pt x="1166" y="-9" on="1"/>
        <pt x="1145" y="-29" on="1"/>
        <pt x="1106" y="10" on="0"/>
        <pt x="1046" y="10" on="1"/>
        <pt x="812" y="10" on="1"/>
        <pt x="748" y="10" on="0"/>
        <pt x="748" y="-171" on="1"/>
        <pt x="763" y="-357" on="1"/>
        <pt x="763" y="-392" on="0"/>
        <pt x="720" y="-392" on="0"/>
      </contour>
    </TTGlyph>
    <TTGlyph name="Yacute" xMin="-6" yMin="-450" xMax="1765" yMax="2021">
      <component glyphName="acute" x="702" y="440" flags="0x1004"/>
      <component glyphName="Y" x="0" y="0" flags="0x1204"/>
    </TTGlyph>
    <TTGlyph name="Ycircumflex" xMin="-6" yMin="-450" xMax="1765" yMax="1988">
      <component glyphName="circumflex" x="317" y="424" flags="0x1004"/>
      <component glyphName="Y" x="0" y="0" flags="0x1204"/>
    </TTGlyph>
    <TTGlyph name="Ydieresis" xMin="-6" yMin="-450" xMax="1765" yMax="1816">
      <component glyphName="dieresis" x="226" y="437" flags="0x1004"/>
      <component glyphName="Y" x="0" y="0" flags="0x1204"/>
    </TTGlyph>
    <TTGlyph name="Z" xMin="84" yMin="-39" xMax="1780" yMax="1372">
      <contour>
        <pt x="1735" y="1096" on="1"/>
        <pt x="1735" y="1036" on="0"/>
        <pt x="1780" y="1014" on="1"/>
        <pt x="1765" y="981" on="1"/>
        <pt x="1736" y="992" on="0"/>
        <pt x="1699" y="984" on="0"/>
        <pt x="1673" y="963" on="1"/>
        <pt x="996" y="395" on="1"/>
        <pt x="950" y="358" on="0"/>
        <pt x="894" y="337" on="1"/>
        <pt x="899" y="323" on="1"/>
        <pt x="956" y="344" on="0"/>
        <pt x="1015" y="344" on="1"/>
        <pt x="1624" y="344" on="1"/>
        <pt x="1686" y="344" on="0"/>
        <pt x="1724" y="382" on="1"/>
        <pt x="1744" y="362" on="1"/>
        <pt x="1706" y="324" on="0"/>
        <pt x="1706" y="263" on="1"/>
        <pt x="1706" y="81" on="1"/>
        <pt x="1706" y="19" on="0"/>
        <pt x="1744" y="-19" on="1"/>
        <pt x="1724" y="-39" on="1"/>
        <pt x="1685" y="0" on="0"/>
        <pt x="1624" y="0" on="1"/>
        <pt x="210" y="0" on="1"/>
        <pt x="149" y="0" on="0"/>
        <pt x="110" y="-39" on="1"/>
        <pt x="89" y="-19" on="1"/>
        <pt x="129" y="21" on="0"/>
        <pt x="129" y="81" on="1"/>
        <pt x="129" y="211" on="1"/>
        <pt x="129" y="271" on="0"/>
        <pt x="84" y="292" on="1"/>
        <pt x="99" y="326" on="1"/>
        <pt x="127" y="314" on="0"/>
        <pt x="165" y="323" on="0"/>
        <pt x="190" y="344" on="1"/>
        <pt x="890" y="946" on="1"/>
        <pt x="938" y="986" on="0"/>
        <pt x="992" y="1006" on="1"/>
        <pt x="987" y="1020" on="1"/>
        <pt x="930" y="999" on="0"/>
        <pt x="870" y="999" on="1"/>
        <pt x="277" y="999" on="1"/>
        <pt x="218" y="999" on="0"/>
        <pt x="178" y="959" on="1"/>
        <pt x="158" y="980" on="1"/>
        <pt x="196" y="1018" on="0"/>
        <pt x="196" y="1080" on="1"/>
        <pt x="196" y="1251" on="1"/>
        <pt x="196" y="1313" on="0"/>
        <pt x="158" y="1351" on="1"/>
        <pt x="178" y="1372" on="1"/>
        <pt x="218" y="1332" on="0"/>
        <pt x="277" y="1332" on="1"/>
        <pt x="1654" y="1332" on="1"/>
        <pt x="1714" y="1332" on="0"/>
        <pt x="1754" y="1372" on="1"/>
        <pt x="1774" y="1351" on="1"/>
        <pt x="1735" y="1312" on="0"/>
        <pt x="1735" y="1251" on="1"/>
      </contour>
    </TTGlyph>
    <TTGlyph name="Zacute" xMin="84" yMin="-39" xMax="1780" yMax="2012">
      <component glyphName="acute" x="754" y="431" flags="0x1004"/>
      <component glyphName="Z" x="0" y="0" flags="0x1204"/>
    </TTGlyph>
    <TTGlyph name="Zcaron" xMin="84" yMin="-39" xMax="1780" yMax="1978">
      <component glyphName="caron" x="424" y="415" flags="0x1004"/>
      <component glyphName="Z" x="0" y="0" flags="0x1204"/>
    </TTGlyph>
    <TTGlyph name="Zdotaccent" xMin="84" yMin="-39" xMax="1780" yMax="1847">
      <component glyphName="dotaccent" x="575" y="61" flags="0x1004"/>
      <component glyphName="Z" x="0" y="0" flags="0x1204"/>
    </TTGlyph>
    <TTGlyph name="a" xMin="-9" yMin="-462" xMax="1775" yMax="1375">
      <contour>
        <pt x="81" y="-64" on="1"/>
        <pt x="84" y="-223" on="1"/>
        <pt x="84" y="-271" on="0"/>
        <pt x="54" y="-320" on="0"/>
        <pt x="33" y="-320" on="1"/>
        <pt x="-9" y="-320" on="0"/>
        <pt x="-9" y="-158" on="0"/>
        <pt x="31" y="39" on="0"/>
        <pt x="46" y="76" on="1"/>
        <pt x="526" y="1257" on="1"/>
        <pt x="536" y="1283" on="0"/>
        <pt x="536" y="1333" on="0"/>
        <pt x="519" y="1357" on="1"/>
        <pt x="547" y="1375" on="1"/>
        <pt x="576" y="1332" on="0"/>
        <pt x="637" y="1332" on="1"/>
        <pt x="1097" y="1332" on="1"/>
        <pt x="1157" y="1332" on="0"/>
        <pt x="1186" y="1375" on="1"/>
        <pt x="1215" y="1357" on="1"/>
        <pt x="1198" y="1333" on="0"/>
        <pt x="1198" y="1289" on="0"/>
        <pt x="1210" y="1258" on="1"/>
        <pt x="1704" y="75" on="1"/>
        <pt x="1727" y="19" on="0"/>
        <pt x="1775" y="-13" on="1"/>
        <pt x="1763" y="-32" on="1"/>
        <pt x="1714" y="0" on="0"/>
        <pt x="1654" y="0" on="1"/>
        <pt x="1458" y="0" on="1"/>
        <pt x="1460" y="-22" on="0"/>
        <pt x="1460" y="-31" on="1"/>
        <pt x="1460" y="-64" on="0"/>
        <pt x="1433" y="-64" on="1"/>
        <pt x="1421" y="-64" on="0"/>
        <pt x="1402" y="-45" on="0"/>
        <pt x="1402" y="-10" on="0"/>
        <pt x="1404" y="0" on="1"/>
        <pt x="1283" y="0" on="1"/>
        <pt x="1239" y="0" on="0"/>
        <pt x="1226" y="-48" on="1"/>
        <pt x="1210" y="-107" on="0"/>
        <pt x="1210" y="-260" on="0"/>
        <pt x="1230" y="-386" on="0"/>
        <pt x="1230" y="-433" on="0"/>
        <pt x="1207" y="-462" on="0"/>
        <pt x="1173" y="-462" on="0"/>
        <pt x="1149" y="-434" on="0"/>
        <pt x="1149" y="-384" on="0"/>
        <pt x="1174" y="-240" on="0"/>
        <pt x="1174" y="-204" on="1"/>
        <pt x="1174" y="77" on="1"/>
        <pt x="1164" y="104" on="0"/>
        <pt x="1164" y="150" on="0"/>
        <pt x="1182" y="176" on="1"/>
        <pt x="1156" y="195" on="1"/>
        <pt x="1126" y="152" on="0"/>
        <pt x="1066" y="152" on="1"/>
        <pt x="655" y="152" on="1"/>
        <pt x="595" y="152" on="0"/>
        <pt x="565" y="194" on="1"/>
        <pt x="539" y="176" on="1"/>
        <pt x="558" y="149" on="0"/>
        <pt x="558" y="103" on="0"/>
        <pt x="551" y="77" on="1"/>
        <pt x="551" y="76" on="1"/>
        <pt x="542" y="42" on="0"/>
        <pt x="542" y="6" on="0"/>
        <pt x="562" y="-23" on="1"/>
        <pt x="536" y="-42" on="1"/>
        <pt x="506" y="0" on="0"/>
        <pt x="446" y="0" on="1"/>
        <pt x="84" y="0" on="1"/>
        <pt x="81" y="-19" on="0"/>
      </contour>
      <contour>
        <pt x="758" y="429" on="1"/>
        <pt x="949" y="429" on="1"/>
        <pt x="1009" y="429" on="0"/>
        <pt x="1057" y="397" on="1"/>
        <pt x="1070" y="416" on="1"/>
        <pt x="1023" y="448" on="0"/>
        <pt x="1002" y="505" on="1"/>
        <pt x="875" y="830" on="1"/>
        <pt x="853" y="887" on="0"/>
        <pt x="852" y="946" on="1"/>
        <pt x="839" y="946" on="1"/>
        <pt x="837" y="880" on="0"/>
        <pt x="819" y="830" on="1"/>
        <pt x="704" y="506" on="1"/>
        <pt x="683" y="448" on="0"/>
        <pt x="637" y="416" on="1"/>
        <pt x="650" y="396" on="1"/>
        <pt x="697" y="429" on="0"/>
      </contour>
      <contour>
        <pt x="1407" y="-331" on="1"/>
        <pt x="1407" y="-262" on="0"/>
        <pt x="1433" y="-158" on="1"/>
        <pt x="1462" y="-278" on="0"/>
        <pt x="1462" y="-314" on="1"/>
        <pt x="1462" y="-367" on="0"/>
        <pt x="1407" y="-367" on="0"/>
      </contour>
    </TTGlyph>
    <TTGlyph name="aacute" xMin="-9" yMin="-462" xMax="1775" yMax="2012">
      <component glyphName="acute" x="705" y="431" flags="0x1004"/>
      <component glyphName="a" x="0" y="0" flags="0x1204"/>
    </TTGlyph>
    <TTGlyph name="abreve" xMin="-9" yMin="-462" xMax="1775" yMax="1847">
      <component glyphName="breve" x="423" y="136" flags="0x1004"/>
      <component glyphName="a" x="0" y="0" flags="0x1204"/>
    </TTGlyph>
    <TTGlyph name="acircumflex" xMin="-9" yMin="-462" xMax="1775" yMax="1979">
      <component glyphName="circumflex" x="320" y="415" flags="0x1004"/>
      <component glyphName="a" x="0" y="0" flags="0x1204"/>
    </TTGlyph>
    <TTGlyph name="acute" xMin="87" yMin="1066" xMax="803" yMax="1581">
      <contour>
        <pt x="723" y="1207" on="1"/>
        <pt x="262" y="1095" on="1"/>
        <pt x="210" y="1082" on="0"/>
        <pt x="179" y="1066" on="0"/>
        <pt x="178" y="1066" on="1"/>
        <pt x="164" y="1112" on="0"/>
        <pt x="124" y="1189" on="0"/>
        <pt x="99" y="1226" on="0"/>
        <pt x="87" y="1239" on="0"/>
        <pt x="87" y="1242" on="0"/>
        <pt x="94" y="1244" on="1"/>
        <pt x="126" y="1250" on="0"/>
        <pt x="170" y="1276" on="1"/>
        <pt x="599" y="1526" on="1"/>
        <pt x="645" y="1553" on="0"/>
        <pt x="673" y="1581" on="0"/>
        <pt x="675" y="1581" on="0"/>
        <pt x="676" y="1573" on="1"/>
        <pt x="681" y="1534" on="0"/>
        <pt x="698" y="1492" on="1"/>
        <pt x="773" y="1300" on="1"/>
        <pt x="803" y="1226" on="0"/>
        <pt x="803" y="1219" on="0"/>
        <pt x="789" y="1216" on="0"/>
        <pt x="745" y="1213" on="0"/>
      </contour>
    </TTGlyph>
    <TTGlyph name="adieresis" xMin="-9" yMin="-462" xMax="1775" yMax="1807">
      <component glyphName="dieresis" x="230" y="428" flags="0x1004"/>
      <component glyphName="a" x="0" y="0" flags="0x1204"/>
    </TTGlyph>
    <TTGlyph name="ae" xMin="-38" yMin="-807" xMax="2727" yMax="1375">
      <contour>
        <pt x="2136" y="557" on="1"/>
        <pt x="1713" y="556" on="1"/>
        <pt x="1713" y="338" on="1"/>
        <pt x="2607" y="337" on="1"/>
        <pt x="2668" y="337" on="0"/>
        <pt x="2706" y="376" on="1"/>
        <pt x="2727" y="356" on="1"/>
        <pt x="2670" y="251" on="0"/>
        <pt x="2670" y="-17" on="1"/>
        <pt x="2670" y="-59" on="0"/>
        <pt x="2708" y="-300" on="0"/>
        <pt x="2708" y="-379" on="0"/>
        <pt x="2682" y="-417" on="0"/>
        <pt x="2646" y="-417" on="0"/>
        <pt x="2619" y="-375" on="0"/>
        <pt x="2619" y="-338" on="1"/>
        <pt x="2634" y="-117" on="1"/>
        <pt x="2634" y="-29" on="0"/>
        <pt x="2572" y="60" on="0"/>
        <pt x="2519" y="60" on="1"/>
        <pt x="2401" y="60" on="0"/>
        <pt x="2401" y="-119" on="1"/>
        <pt x="2401" y="-188" on="0"/>
        <pt x="2442" y="-450" on="0"/>
        <pt x="2442" y="-516" on="0"/>
        <pt x="2411" y="-551" on="0"/>
        <pt x="2372" y="-551" on="0"/>
        <pt x="2343" y="-518" on="0"/>
        <pt x="2343" y="-490" on="1"/>
        <pt x="2361" y="-171" on="1"/>
        <pt x="2361" y="4" on="0"/>
        <pt x="2287" y="4" on="1"/>
        <pt x="2210" y="2" on="1"/>
        <pt x="1442" y="2" on="1"/>
        <pt x="1437" y="0" on="1"/>
        <pt x="1437" y="-29" on="1"/>
        <pt x="1437" y="-58" on="0"/>
        <pt x="1383" y="-58" on="0"/>
        <pt x="1383" y="-29" on="1"/>
        <pt x="1383" y="0" on="1"/>
        <pt x="1297" y="-9" on="0"/>
        <pt x="1245" y="-118" on="0"/>
        <pt x="1245" y="-333" on="0"/>
        <pt x="1291" y="-626" on="0"/>
        <pt x="1291" y="-700" on="1"/>
        <pt x="1291" y="-807" on="0"/>
        <pt x="1215" y="-807" on="1"/>
        <pt x="1134" y="-807" on="0"/>
        <pt x="1134" y="-697" on="1"/>
        <pt x="1134" y="-622" on="0"/>
        <pt x="1200" y="-328" on="0"/>
        <pt x="1200" y="-252" on="1"/>
        <pt x="1195" y="83" on="1"/>
        <pt x="1195" y="153" on="1"/>
        <pt x="1166" y="152" on="0"/>
        <pt x="1109" y="152" on="1"/>
        <pt x="697" y="152" on="1"/>
        <pt x="638" y="152" on="0"/>
        <pt x="625" y="194" on="1"/>
        <pt x="591" y="176" on="1"/>
        <pt x="595" y="167" on="0"/>
        <pt x="595" y="122" on="0"/>
        <pt x="562" y="77" on="1"/>
        <pt x="560" y="76" on="1"/>
        <pt x="527" y="32" on="0"/>
        <pt x="527" y="-14" on="0"/>
        <pt x="531" y="-23" on="1"/>
        <pt x="498" y="-42" on="1"/>
        <pt x="485" y="0" on="0"/>
        <pt x="426" y="0" on="1"/>
        <pt x="64" y="0" on="1"/>
        <pt x="56" y="-64" on="1"/>
        <pt x="58" y="-166" on="0"/>
        <pt x="58" y="-263" on="0"/>
        <pt x="27" y="-310" on="0"/>
        <pt x="-11" y="-310" on="0"/>
        <pt x="-38" y="-269" on="0"/>
        <pt x="-38" y="-151" on="0"/>
        <pt x="-6" y="-3" on="0"/>
        <pt x="14" y="21" on="1"/>
        <pt x="1034" y="1257" on="1"/>
        <pt x="1073" y="1306" on="0"/>
        <pt x="1073" y="1348" on="0"/>
        <pt x="1070" y="1357" on="1"/>
        <pt x="1106" y="1375" on="1"/>
        <pt x="1119" y="1332" on="0"/>
        <pt x="1178" y="1332" on="1"/>
        <pt x="1638" y="1332" on="1"/>
        <pt x="2560" y="1330" on="1"/>
        <pt x="2621" y="1330" on="0"/>
        <pt x="2660" y="1369" on="1"/>
        <pt x="2680" y="1348" on="1"/>
        <pt x="2637" y="1305" on="0"/>
        <pt x="2637" y="1196" on="1"/>
        <pt x="2637" y="1131" on="1"/>
        <pt x="2637" y="1016" on="0"/>
        <pt x="2680" y="976" on="1"/>
        <pt x="2660" y="957" on="1"/>
        <pt x="2610" y="1008" on="0"/>
        <pt x="2425" y="1008" on="1"/>
        <pt x="1928" y="985" on="1"/>
        <pt x="1744" y="985" on="0"/>
        <pt x="1694" y="1036" on="1"/>
        <pt x="1674" y="1016" on="1"/>
        <pt x="1713" y="978" on="0"/>
        <pt x="1713" y="917" on="1"/>
        <pt x="1713" y="822" on="1"/>
        <pt x="1714" y="822" on="1"/>
        <pt x="2134" y="823" on="1"/>
        <pt x="2290" y="823" on="0"/>
        <pt x="2340" y="873" on="1"/>
        <pt x="2360" y="853" on="1"/>
        <pt x="2316" y="813" on="0"/>
        <pt x="2316" y="693" on="1"/>
        <pt x="2316" y="659" on="1"/>
        <pt x="2316" y="565" on="0"/>
        <pt x="2360" y="527" on="1"/>
        <pt x="2340" y="507" on="1"/>
        <pt x="2292" y="557" on="0"/>
      </contour>
      <contour>
        <pt x="917" y="429" on="1"/>
        <pt x="1109" y="429" on="1"/>
        <pt x="1173" y="429" on="0"/>
        <pt x="1195" y="428" on="1"/>
        <pt x="1195" y="903" on="1"/>
        <pt x="1169" y="856" on="0"/>
        <pt x="1148" y="830" on="1"/>
        <pt x="895" y="506" on="1"/>
        <pt x="891" y="501" on="0"/>
        <pt x="873" y="478" on="0"/>
        <pt x="868" y="473" on="1"/>
        <pt x="854" y="457" on="0"/>
        <pt x="840" y="448" on="1"/>
        <pt x="844" y="428" on="1"/>
        <pt x="869" y="429" on="0"/>
      </contour>
      <contour>
        <pt x="33" y="-598" on="1"/>
        <pt x="31" y="-631" on="0"/>
        <pt x="6" y="-631" on="1"/>
        <pt x="-5" y="-631" on="0"/>
        <pt x="-23" y="-612" on="0"/>
        <pt x="-23" y="-539" on="0"/>
        <pt x="6" y="-423" on="1"/>
        <pt x="33" y="-544" on="0"/>
      </contour>
    </TTGlyph>
    <TTGlyph name="agrave" xMin="-9" yMin="-462" xMax="1775" yMax="2147">
      <component glyphName="grave" x="181" y="564" flags="0x1004"/>
      <component glyphName="a" x="0" y="0" flags="0x1204"/>
    </TTGlyph>
    <TTGlyph name="amacron" xMin="-9" yMin="-462" xMax="1775" yMax="1828">
      <component glyphName="macron" x="312" y="944" flags="0x1004"/>
      <component glyphName="a" x="0" y="0" flags="0x1204"/>
    </TTGlyph>
    <TTGlyph name="ampersand" xMin="62" yMin="-44" xMax="1826" yMax="1330">
      <contour>
        <pt x="561" y="805" on="1"/>
        <pt x="431" y="853" on="0"/>
        <pt x="431" y="1022" on="1"/>
        <pt x="431" y="1173" on="0"/>
        <pt x="584" y="1254" on="1"/>
        <pt x="729" y="1330" on="0"/>
        <pt x="984" y="1330" on="1"/>
        <pt x="1248" y="1330" on="0"/>
        <pt x="1396" y="1217" on="1"/>
        <pt x="1505" y="1133" on="0"/>
        <pt x="1505" y="994" on="1"/>
        <pt x="1505" y="893" on="0"/>
        <pt x="1359" y="758" on="0"/>
        <pt x="1232" y="710" on="1"/>
        <pt x="1178" y="689" on="0"/>
        <pt x="1123" y="703" on="1"/>
        <pt x="1117" y="682" on="1"/>
        <pt x="1174" y="668" on="0"/>
        <pt x="1213" y="626" on="1"/>
        <pt x="1223" y="615" on="0"/>
        <pt x="1261" y="572" on="0"/>
        <pt x="1269" y="563" on="1"/>
        <pt x="1311" y="520" on="0"/>
        <pt x="1305" y="465" on="1"/>
        <pt x="1336" y="462" on="1"/>
        <pt x="1341" y="516" on="0"/>
        <pt x="1391" y="551" on="1"/>
        <pt x="1483" y="615" on="0"/>
        <pt x="1595" y="710" on="0"/>
        <pt x="1600" y="765" on="1"/>
        <pt x="1628" y="763" on="1"/>
        <pt x="1623" y="710" on="0"/>
        <pt x="1663" y="662" on="1"/>
        <pt x="1728" y="587" on="1"/>
        <pt x="1768" y="541" on="0"/>
        <pt x="1822" y="536" on="1"/>
        <pt x="1820" y="507" on="1"/>
        <pt x="1765" y="512" on="0"/>
        <pt x="1658" y="421" on="0"/>
        <pt x="1563" y="349" on="1"/>
        <pt x="1514" y="314" on="0"/>
        <pt x="1459" y="319" on="1"/>
        <pt x="1457" y="292" on="1"/>
        <pt x="1511" y="287" on="0"/>
        <pt x="1555" y="243" on="1"/>
        <pt x="1730" y="58" on="1"/>
        <pt x="1775" y="13" on="0"/>
        <pt x="1826" y="-9" on="1"/>
        <pt x="1820" y="-23" on="1"/>
        <pt x="1767" y="0" on="0"/>
        <pt x="1705" y="0" on="1"/>
        <pt x="1305" y="0" on="1"/>
        <pt x="1276" y="0" on="0"/>
        <pt x="1244" y="-18" on="0"/>
        <pt x="1232" y="-44" on="1"/>
        <pt x="1203" y="-30" on="1"/>
        <pt x="1214" y="-2" on="0"/>
        <pt x="1208" y="30" on="0"/>
        <pt x="1158" y="90" on="0"/>
        <pt x="1167" y="141" on="1"/>
        <pt x="1140" y="147" on="1"/>
        <pt x="1130" y="96" on="0"/>
        <pt x="1081" y="72" on="1"/>
        <pt x="876" y="-29" on="0"/>
        <pt x="594" y="-29" on="1"/>
        <pt x="448" y="-29" on="0"/>
        <pt x="311" y="34" on="1"/>
        <pt x="158" y="104" on="0"/>
        <pt x="96" y="230" on="1"/>
        <pt x="62" y="299" on="0"/>
        <pt x="62" y="382" on="1"/>
        <pt x="62" y="532" on="0"/>
        <pt x="278" y="739" on="0"/>
        <pt x="447" y="787" on="1"/>
        <pt x="500" y="803" on="0"/>
        <pt x="554" y="783" on="1"/>
      </contour>
      <contour>
        <pt x="620" y="291" on="0"/>
        <pt x="729" y="254" on="0"/>
        <pt x="817" y="254" on="0"/>
        <pt x="960" y="286" on="0"/>
        <pt x="1003" y="273" on="1"/>
        <pt x="1008" y="295" on="1"/>
        <pt x="951" y="313" on="0"/>
        <pt x="911" y="358" on="1"/>
        <pt x="735" y="556" on="1"/>
        <pt x="696" y="599" on="0"/>
        <pt x="704" y="652" on="1"/>
        <pt x="673" y="657" on="1"/>
        <pt x="666" y="605" on="0"/>
        <pt x="616" y="574" on="1"/>
        <pt x="543" y="532" on="0"/>
        <pt x="543" y="384" on="0"/>
      </contour>
      <contour>
        <pt x="1150" y="1029" on="0"/>
        <pt x="1075" y="1082" on="0"/>
        <pt x="978" y="1082" on="0"/>
        <pt x="909" y="1031" on="0"/>
        <pt x="909" y="987" on="1"/>
        <pt x="909" y="972" on="0"/>
        <pt x="971" y="871" on="0"/>
        <pt x="956" y="821" on="1"/>
        <pt x="987" y="812" on="1"/>
        <pt x="1003" y="865" on="0"/>
        <pt x="1050" y="886" on="1"/>
        <pt x="1150" y="932" on="0"/>
        <pt x="1150" y="984" on="1"/>
      </contour>
    </TTGlyph>
    <TTGlyph name="aogonek" xMin="-1" yMin="-462" xMax="1783" yMax="1375">
      <component glyphName="ogonek" x="1211" y="74" flags="0x1004"/>
      <component glyphName="a" x="8" y="0" flags="0x1004"/>
    </TTGlyph>
    <TTGlyph name="aring" xMin="-9" yMin="-462" xMax="1775" yMax="2236">
      <component glyphName="ring" x="420" y="133" flags="0x1004"/>
      <component glyphName="a" x="0" y="0" flags="0x1204"/>
    </TTGlyph>
    <TTGlyph name="asciicircum" xMin="57" yMin="305" xMax="1351" yMax="1023">
      <contour>
        <pt x="530" y="1023" on="1"/>
        <pt x="530" y="1023" on="0"/>
        <pt x="882" y="1023" on="1"/>
        <pt x="900" y="1023" on="0"/>
        <pt x="920" y="992" on="1"/>
        <pt x="1290" y="389" on="1"/>
        <pt x="1312" y="352" on="0"/>
        <pt x="1351" y="330" on="1"/>
        <pt x="1344" y="318" on="1"/>
        <pt x="1310" y="338" on="0"/>
        <pt x="1262" y="338" on="1"/>
        <pt x="967" y="337" on="1"/>
        <pt x="923" y="337" on="0"/>
        <pt x="905" y="305" on="1"/>
        <pt x="883" y="318" on="1"/>
        <pt x="892" y="341" on="0"/>
        <pt x="892" y="378" on="0"/>
        <pt x="833" y="478" on="0"/>
        <pt x="798" y="526" on="1"/>
        <pt x="704" y="653" on="0"/>
        <pt x="704" y="731" on="1"/>
        <pt x="688" y="731" on="1"/>
        <pt x="688" y="725" on="1"/>
        <pt x="688" y="679" on="0"/>
        <pt x="593" y="523" on="0"/>
        <pt x="498" y="380" on="0"/>
        <pt x="498" y="338" on="0"/>
        <pt x="508" y="318" on="1"/>
        <pt x="486" y="305" on="1"/>
        <pt x="468" y="337" on="0"/>
        <pt x="423" y="337" on="1"/>
        <pt x="146" y="338" on="1"/>
        <pt x="101" y="338" on="0"/>
        <pt x="65" y="318" on="1"/>
        <pt x="57" y="330" on="1"/>
        <pt x="96" y="352" on="0"/>
        <pt x="118" y="389" on="1"/>
        <pt x="492" y="992" on="1"/>
        <pt x="513" y="1023" on="0"/>
      </contour>
    </TTGlyph>
    <TTGlyph name="asciitilde" xMin="124" yMin="1073" xMax="1261" yMax="1554">
      <contour>
        <pt x="518" y="1195" on="1"/>
        <pt x="474" y="1195" on="0"/>
        <pt x="474" y="1094" on="1"/>
        <pt x="127" y="1097" on="1"/>
        <pt x="124" y="1126" on="0"/>
        <pt x="124" y="1286" on="0"/>
        <pt x="171" y="1436" on="0"/>
        <pt x="215" y="1477" on="1"/>
        <pt x="298" y="1554" on="0"/>
        <pt x="434" y="1554" on="1"/>
        <pt x="563" y="1554" on="0"/>
        <pt x="818" y="1438" on="0"/>
        <pt x="858" y="1438" on="1"/>
        <pt x="912" y="1438" on="0"/>
        <pt x="912" y="1528" on="1"/>
        <pt x="1259" y="1526" on="1"/>
        <pt x="1261" y="1476" on="0"/>
        <pt x="1261" y="1346" on="0"/>
        <pt x="1220" y="1193" on="0"/>
        <pt x="1182" y="1151" on="1"/>
        <pt x="1110" y="1073" on="0"/>
        <pt x="985" y="1073" on="1"/>
        <pt x="814" y="1073" on="0"/>
        <pt x="547" y="1195" on="0"/>
      </contour>
    </TTGlyph>
    <TTGlyph name="asterisk" xMin="91" yMin="310" xMax="1075" yMax="1333">
      <contour>
        <pt x="495" y="672" on="1"/>
        <pt x="318" y="547" on="1"/>
        <pt x="235" y="482" on="0"/>
        <pt x="209" y="453" on="1"/>
        <pt x="92" y="615" on="1"/>
        <pt x="155" y="651" on="0"/>
        <pt x="213" y="691" on="1"/>
        <pt x="399" y="823" on="1"/>
        <pt x="213" y="955" on="1"/>
        <pt x="193" y="969" on="0"/>
        <pt x="116" y="1011" on="0"/>
        <pt x="91" y="1028" on="1"/>
        <pt x="209" y="1193" on="1"/>
        <pt x="243" y="1154" on="0"/>
        <pt x="470" y="989" on="0"/>
        <pt x="495" y="972" on="1"/>
        <pt x="495" y="1190" on="1"/>
        <pt x="495" y="1270" on="0"/>
        <pt x="480" y="1333" on="1"/>
        <pt x="682" y="1333" on="1"/>
        <pt x="672" y="1226" on="0"/>
        <pt x="672" y="1191" on="1"/>
        <pt x="672" y="970" on="1"/>
        <pt x="701" y="991" on="0"/>
        <pt x="820" y="1077" on="0"/>
        <pt x="920" y="1150" on="0"/>
        <pt x="957" y="1192" on="1"/>
        <pt x="1073" y="1029" on="1"/>
        <pt x="1005" y="990" on="0"/>
        <pt x="953" y="953" on="1"/>
        <pt x="767" y="822" on="1"/>
        <pt x="953" y="689" on="1"/>
        <pt x="985" y="666" on="0"/>
        <pt x="1075" y="615" on="1"/>
        <pt x="957" y="450" on="1"/>
        <pt x="908" y="501" on="0"/>
        <pt x="809" y="575" on="0"/>
        <pt x="780" y="597" on="0"/>
        <pt x="676" y="668" on="0"/>
        <pt x="672" y="671" on="1"/>
        <pt x="672" y="452" on="1"/>
        <pt x="672" y="420" on="0"/>
        <pt x="682" y="310" on="1"/>
        <pt x="480" y="310" on="1"/>
        <pt x="495" y="373" on="0"/>
        <pt x="495" y="453" on="1"/>
      </contour>
    </TTGlyph>
    <TTGlyph name="at" xMin="95" yMin="-374" xMax="2061" yMax="1552">
      <contour>
        <pt x="1218" y="535" on="1"/>
        <pt x="1134" y="537" on="1"/>
        <pt x="853" y="537" on="0"/>
        <pt x="853" y="423" on="1"/>
        <pt x="853" y="330" on="0"/>
        <pt x="1014" y="330" on="1"/>
        <pt x="1210" y="330" on="0"/>
        <pt x="1260" y="450" on="1"/>
        <pt x="1285" y="509" on="0"/>
        <pt x="1329" y="538" on="1"/>
        <pt x="1317" y="561" on="1"/>
        <pt x="1277" y="535" on="0"/>
      </contour>
      <contour>
        <pt x="2007" y="932" on="1"/>
        <pt x="2061" y="767" on="0"/>
        <pt x="2061" y="460" on="0"/>
        <pt x="1995" y="285" on="0"/>
        <pt x="1940" y="232" on="1"/>
        <pt x="1827" y="126" on="0"/>
        <pt x="1548" y="126" on="0"/>
        <pt x="1336" y="228" on="0"/>
        <pt x="1287" y="321" on="1"/>
        <pt x="1271" y="323" on="1"/>
        <pt x="1258" y="231" on="0"/>
        <pt x="1041" y="126" on="0"/>
        <pt x="853" y="126" on="1"/>
        <pt x="640" y="126" on="0"/>
        <pt x="520" y="215" on="1"/>
        <pt x="422" y="288" on="0"/>
        <pt x="422" y="425" on="1"/>
        <pt x="422" y="696" on="0"/>
        <pt x="1071" y="696" on="1"/>
        <pt x="1196" y="696" on="0"/>
        <pt x="1282" y="676" on="0"/>
        <pt x="1308" y="657" on="1"/>
        <pt x="1320" y="672" on="1"/>
        <pt x="1280" y="701" on="0"/>
        <pt x="1260" y="755" on="1"/>
        <pt x="1246" y="791" on="0"/>
        <pt x="1163" y="815" on="0"/>
        <pt x="888" y="815" on="0"/>
        <pt x="730" y="774" on="1"/>
        <pt x="682" y="761" on="0"/>
        <pt x="665" y="719" on="1"/>
        <pt x="642" y="729" on="1"/>
        <pt x="648" y="748" on="0"/>
        <pt x="648" y="788" on="0"/>
        <pt x="627" y="823" on="0"/>
        <pt x="596" y="876" on="0"/>
        <pt x="581" y="899" on="0"/>
        <pt x="566" y="918" on="1"/>
        <pt x="542" y="949" on="0"/>
        <pt x="506" y="964" on="1"/>
        <pt x="514" y="985" on="1"/>
        <pt x="545" y="974" on="0"/>
        <pt x="586" y="974" on="0"/>
        <pt x="705" y="1008" on="0"/>
        <pt x="975" y="1040" on="0"/>
        <pt x="1270" y="1040" on="0"/>
        <pt x="1365" y="1023" on="1"/>
        <pt x="1670" y="965" on="0"/>
        <pt x="1671" y="715" on="1"/>
        <pt x="1671" y="530" on="1"/>
        <pt x="1671" y="393" on="0"/>
        <pt x="1705" y="320" on="0"/>
        <pt x="1718" y="320" on="1"/>
        <pt x="1782" y="320" on="0"/>
        <pt x="1876" y="454" on="0"/>
        <pt x="1876" y="731" on="0"/>
        <pt x="1789" y="1001" on="0"/>
        <pt x="1641" y="1185" on="0"/>
        <pt x="1542" y="1250" on="1"/>
        <pt x="1351" y="1373" on="0"/>
        <pt x="1100" y="1373" on="1"/>
        <pt x="844" y="1373" on="0"/>
        <pt x="636" y="1238" on="1"/>
        <pt x="410" y="1090" on="0"/>
        <pt x="326" y="844" on="1"/>
        <pt x="280" y="709" on="0"/>
        <pt x="280" y="419" on="0"/>
        <pt x="367" y="180" on="0"/>
        <pt x="520" y="1" on="0"/>
        <pt x="622" y="-64" on="1"/>
        <pt x="828" y="-196" on="0"/>
        <pt x="1087" y="-196" on="1"/>
        <pt x="1396" y="-196" on="0"/>
        <pt x="1644" y="-6" on="1"/>
        <pt x="1757" y="-153" on="1"/>
        <pt x="1454" y="-374" on="0"/>
        <pt x="1086" y="-374" on="1"/>
        <pt x="764" y="-374" on="0"/>
        <pt x="514" y="-211" on="1"/>
        <pt x="247" y="-38" on="0"/>
        <pt x="148" y="239" on="1"/>
        <pt x="95" y="387" on="0"/>
        <pt x="95" y="713" on="0"/>
        <pt x="174" y="995" on="0"/>
        <pt x="315" y="1211" on="0"/>
        <pt x="506" y="1384" on="0"/>
        <pt x="618" y="1439" on="1"/>
        <pt x="848" y="1552" on="0"/>
        <pt x="1100" y="1552" on="1"/>
        <pt x="1408" y="1552" on="0"/>
        <pt x="1646" y="1400" on="1"/>
        <pt x="1908" y="1235" on="0"/>
      </contour>
    </TTGlyph>
    <TTGlyph name="atilde" xMin="-9" yMin="-462" xMax="1775" yMax="1955">
      <component glyphName="tilde" x="251" y="401" flags="0x1004"/>
      <component glyphName="a" x="0" y="0" flags="0x1204"/>
    </TTGlyph>
    <TTGlyph name="b" xMin="138" yMin="-844" xMax="1887" yMax="1372">
      <contour>
        <pt x="305" y="0" on="1"/>
        <pt x="327" y="-183" on="1"/>
        <pt x="327" y="-244" on="0"/>
        <pt x="242" y="-244" on="0"/>
        <pt x="242" y="-184" on="1"/>
        <pt x="242" y="-156" on="0"/>
        <pt x="266" y="-46" on="0"/>
        <pt x="266" y="38" on="0"/>
        <pt x="242" y="38" on="1"/>
        <pt x="223" y="38" on="0"/>
        <pt x="205" y="-21" on="0"/>
        <pt x="205" y="-106" on="0"/>
        <pt x="234" y="-347" on="0"/>
        <pt x="234" y="-466" on="0"/>
        <pt x="144" y="-466" on="0"/>
        <pt x="144" y="-351" on="0"/>
        <pt x="176" y="-148" on="0"/>
        <pt x="176" y="-97" on="1"/>
        <pt x="177" y="1251" on="1"/>
        <pt x="177" y="1313" on="0"/>
        <pt x="138" y="1351" on="1"/>
        <pt x="158" y="1372" on="1"/>
        <pt x="200" y="1332" on="0"/>
        <pt x="258" y="1332" on="1"/>
        <pt x="1104" y="1332" on="1"/>
        <pt x="1119" y="1332" on="0"/>
        <pt x="1195" y="1334" on="0"/>
        <pt x="1299" y="1330" on="0"/>
        <pt x="1408" y="1327" on="0"/>
        <pt x="1517" y="1309" on="0"/>
        <pt x="1617" y="1284" on="0"/>
        <pt x="1703" y="1236" on="0"/>
        <pt x="1735" y="1206" on="1"/>
        <pt x="1804" y="1140" on="0"/>
        <pt x="1804" y="936" on="0"/>
        <pt x="1710" y="785" on="0"/>
        <pt x="1625" y="778" on="1"/>
        <pt x="1627" y="758" on="1"/>
        <pt x="1686" y="763" on="0"/>
        <pt x="1788" y="698" on="0"/>
        <pt x="1820" y="644" on="1"/>
        <pt x="1887" y="530" on="0"/>
        <pt x="1887" y="334" on="0"/>
        <pt x="1830" y="200" on="0"/>
        <pt x="1728" y="112" on="0"/>
        <pt x="1604" y="48" on="0"/>
        <pt x="1528" y="32" on="1"/>
        <pt x="1383" y="0" on="0"/>
        <pt x="1240" y="0" on="1"/>
      </contour>
      <contour>
        <pt x="652" y="519" on="1"/>
        <pt x="691" y="480" on="0"/>
        <pt x="691" y="356" on="0"/>
        <pt x="652" y="317" on="1"/>
        <pt x="672" y="296" on="1"/>
        <pt x="712" y="336" on="0"/>
        <pt x="772" y="336" on="1"/>
        <pt x="1165" y="336" on="1"/>
        <pt x="1172" y="336" on="0"/>
        <pt x="1218" y="335" on="0"/>
        <pt x="1237" y="336" on="0"/>
        <pt x="1276" y="340" on="0"/>
        <pt x="1295" y="351" on="0"/>
        <pt x="1306" y="360" on="1"/>
        <pt x="1327" y="375" on="0"/>
        <pt x="1327" y="461" on="0"/>
        <pt x="1257" y="503" on="0"/>
        <pt x="1212" y="503" on="1"/>
        <pt x="772" y="500" on="1"/>
        <pt x="711" y="500" on="0"/>
        <pt x="672" y="539" on="1"/>
      </contour>
      <contour>
        <pt x="849" y="844" on="1"/>
        <pt x="1083" y="834" on="1"/>
        <pt x="1203" y="834" on="0"/>
        <pt x="1236" y="877" on="1"/>
        <pt x="1252" y="898" on="0"/>
        <pt x="1252" y="953" on="0"/>
        <pt x="1230" y="969" on="1"/>
        <pt x="1193" y="995" on="0"/>
        <pt x="1133" y="995" on="1"/>
        <pt x="772" y="994" on="1"/>
        <pt x="717" y="994" on="0"/>
        <pt x="677" y="1032" on="1"/>
        <pt x="658" y="1012" on="1"/>
        <pt x="697" y="973" on="0"/>
        <pt x="697" y="861" on="0"/>
        <pt x="658" y="820" on="1"/>
        <pt x="677" y="801" on="1"/>
        <pt x="721" y="844" on="0"/>
      </contour>
      <contour>
        <pt x="352" y="-712" on="0"/>
        <pt x="362" y="-769" on="0"/>
        <pt x="362" y="-844" on="0"/>
        <pt x="294" y="-844" on="0"/>
        <pt x="294" y="-795" on="1"/>
        <pt x="294" y="-745" on="0"/>
        <pt x="325" y="-629" on="0"/>
        <pt x="328" y="-616" on="1"/>
        <pt x="331" y="-631" on="0"/>
      </contour>
    </TTGlyph>
    <TTGlyph name="backslash" xMin="35" yMin="-1" xMax="792" yMax="1332">
      <contour>
        <pt x="792" y="-1" on="1"/>
        <pt x="436" y="-1" on="1"/>
        <pt x="433" y="58" on="0"/>
        <pt x="405" y="170" on="1"/>
        <pt x="106" y="1166" on="1"/>
        <pt x="69" y="1275" on="0"/>
        <pt x="35" y="1332" on="1"/>
        <pt x="391" y="1332" on="1"/>
        <pt x="392" y="1293" on="0"/>
        <pt x="420" y="1166" on="1"/>
        <pt x="719" y="170" on="1"/>
        <pt x="757" y="57" on="0"/>
      </contour>
    </TTGlyph>
    <TTGlyph name="bar" xMin="159" yMin="-1" xMax="480" yMax="1332">
      <contour>
        <pt x="473" y="-1" on="1"/>
        <pt x="159" y="-1" on="1"/>
        <pt x="176" y="51" on="0"/>
        <pt x="183" y="170" on="1"/>
        <pt x="183" y="1166" on="1"/>
        <pt x="175" y="1294" on="0"/>
        <pt x="165" y="1332" on="1"/>
        <pt x="480" y="1332" on="1"/>
        <pt x="461" y="1275" on="0"/>
        <pt x="455" y="1166" on="1"/>
        <pt x="455" y="170" on="1"/>
        <pt x="463" y="36" on="0"/>
      </contour>
    </TTGlyph>
    <TTGlyph name="braceleft" xMin="65" yMin="-407" xMax="1076" yMax="1534">
      <contour>
        <pt x="1075" y="-397" on="1"/>
        <pt x="708" y="-407" on="1"/>
        <pt x="485" y="-407" on="0"/>
        <pt x="391" y="-331" on="1"/>
        <pt x="306" y="-262" on="0"/>
        <pt x="270" y="-139" on="1"/>
        <pt x="229" y="4" on="0"/>
        <pt x="229" y="231" on="1"/>
        <pt x="229" y="412" on="0"/>
        <pt x="162" y="446" on="1"/>
        <pt x="130" y="462" on="0"/>
        <pt x="66" y="462" on="1"/>
        <pt x="65" y="666" on="1"/>
        <pt x="129" y="666" on="0"/>
        <pt x="162" y="682" on="1"/>
        <pt x="230" y="715" on="0"/>
        <pt x="230" y="896" on="1"/>
        <pt x="230" y="1242" on="0"/>
        <pt x="323" y="1380" on="1"/>
        <pt x="386" y="1474" on="0"/>
        <pt x="481" y="1505" on="1"/>
        <pt x="570" y="1534" on="0"/>
        <pt x="709" y="1534" on="1"/>
        <pt x="1076" y="1525" on="1"/>
        <pt x="1074" y="1183" on="1"/>
        <pt x="935" y="1183" on="0"/>
        <pt x="828" y="1135" on="0"/>
        <pt x="808" y="1102" on="1"/>
        <pt x="766" y="1037" on="0"/>
        <pt x="766" y="809" on="0"/>
        <pt x="736" y="693" on="0"/>
        <pt x="665" y="619" on="0"/>
        <pt x="574" y="579" on="0"/>
        <pt x="500" y="563" on="1"/>
        <pt x="615" y="538" on="0"/>
        <pt x="707" y="476" on="0"/>
        <pt x="726" y="442" on="1"/>
        <pt x="766" y="370" on="0"/>
        <pt x="766" y="138" on="0"/>
        <pt x="795" y="27" on="0"/>
        <pt x="873" y="-35" on="0"/>
        <pt x="981" y="-55" on="0"/>
        <pt x="1073" y="-55" on="1"/>
      </contour>
    </TTGlyph>
    <TTGlyph name="braceright" xMin="31" yMin="-407" xMax="1040" yMax="1534">
      <contour>
        <pt x="31" y="1525" on="1"/>
        <pt x="397" y="1534" on="1"/>
        <pt x="620" y="1534" on="0"/>
        <pt x="714" y="1458" on="1"/>
        <pt x="799" y="1389" on="0"/>
        <pt x="834" y="1266" on="1"/>
        <pt x="876" y="1123" on="0"/>
        <pt x="876" y="896" on="1"/>
        <pt x="876" y="751" on="0"/>
        <pt x="914" y="706" on="1"/>
        <pt x="935" y="682" on="0"/>
        <pt x="992" y="666" on="0"/>
        <pt x="1040" y="666" on="1"/>
        <pt x="1040" y="462" on="1"/>
        <pt x="976" y="462" on="0"/>
        <pt x="944" y="446" on="1"/>
        <pt x="877" y="412" on="0"/>
        <pt x="877" y="231" on="1"/>
        <pt x="877" y="-115" on="0"/>
        <pt x="784" y="-254" on="1"/>
        <pt x="721" y="-347" on="0"/>
        <pt x="626" y="-378" on="1"/>
        <pt x="537" y="-407" on="0"/>
        <pt x="398" y="-407" on="1"/>
        <pt x="31" y="-397" on="1"/>
        <pt x="32" y="-55" on="1"/>
        <pt x="124" y="-55" on="0"/>
        <pt x="232" y="-35" on="0"/>
        <pt x="311" y="27" on="0"/>
        <pt x="340" y="138" on="0"/>
        <pt x="340" y="304" on="0"/>
        <pt x="361" y="408" on="0"/>
        <pt x="399" y="476" on="0"/>
        <pt x="434" y="500" on="1"/>
        <pt x="491" y="538" on="0"/>
        <pt x="606" y="563" on="1"/>
        <pt x="532" y="579" on="0"/>
        <pt x="441" y="619" on="0"/>
        <pt x="405" y="656" on="1"/>
        <pt x="339" y="724" on="0"/>
        <pt x="339" y="896" on="1"/>
        <pt x="339" y="989" on="0"/>
        <pt x="310" y="1100" on="0"/>
        <pt x="232" y="1163" on="0"/>
        <pt x="124" y="1183" on="0"/>
        <pt x="32" y="1183" on="1"/>
      </contour>
    </TTGlyph>
    <TTGlyph name="bracketleft" xMin="138" yMin="-346" xMax="1094" yMax="1590">
      <contour>
        <pt x="1050" y="-98" on="1"/>
        <pt x="1055" y="-226" on="1"/>
        <pt x="1055" y="-287" on="0"/>
        <pt x="1094" y="-326" on="1"/>
        <pt x="1074" y="-346" on="1"/>
        <pt x="1035" y="-307" on="0"/>
        <pt x="974" y="-307" on="1"/>
        <pt x="257" y="-307" on="1"/>
        <pt x="198" y="-307" on="0"/>
        <pt x="158" y="-346" on="1"/>
        <pt x="138" y="-326" on="1"/>
        <pt x="181" y="-284" on="0"/>
        <pt x="181" y="-174" on="1"/>
        <pt x="181" y="1418" on="1"/>
        <pt x="181" y="1528" on="0"/>
        <pt x="138" y="1570" on="1"/>
        <pt x="158" y="1590" on="1"/>
        <pt x="197" y="1552" on="0"/>
        <pt x="257" y="1552" on="1"/>
        <pt x="974" y="1552" on="1"/>
        <pt x="1036" y="1552" on="0"/>
        <pt x="1074" y="1590" on="1"/>
        <pt x="1094" y="1570" on="1"/>
        <pt x="1055" y="1531" on="0"/>
        <pt x="1055" y="1471" on="1"/>
        <pt x="1050" y="1342" on="1"/>
        <pt x="1050" y="1235" on="0"/>
        <pt x="1094" y="1191" on="1"/>
        <pt x="1074" y="1170" on="1"/>
        <pt x="1029" y="1216" on="0"/>
        <pt x="927" y="1216" on="1"/>
        <pt x="836" y="1202" on="1"/>
        <pt x="731" y="1202" on="0"/>
        <pt x="685" y="1248" on="1"/>
        <pt x="665" y="1228" on="1"/>
        <pt x="704" y="1190" on="0"/>
        <pt x="704" y="1129" on="1"/>
        <pt x="704" y="116" on="1"/>
        <pt x="704" y="54" on="0"/>
        <pt x="665" y="16" on="1"/>
        <pt x="685" y="-4" on="1"/>
        <pt x="731" y="42" on="0"/>
        <pt x="836" y="42" on="1"/>
        <pt x="927" y="29" on="1"/>
        <pt x="1030" y="29" on="0"/>
        <pt x="1074" y="74" on="1"/>
        <pt x="1094" y="53" on="1"/>
        <pt x="1050" y="9" on="0"/>
      </contour>
    </TTGlyph>
    <TTGlyph name="bracketright" xMin="39" yMin="-346" xMax="995" yMax="1590">
      <contour>
        <pt x="83" y="1342" on="1"/>
        <pt x="78" y="1471" on="1"/>
        <pt x="78" y="1531" on="0"/>
        <pt x="39" y="1570" on="1"/>
        <pt x="59" y="1590" on="1"/>
        <pt x="97" y="1552" on="0"/>
        <pt x="159" y="1552" on="1"/>
        <pt x="875" y="1552" on="1"/>
        <pt x="936" y="1552" on="0"/>
        <pt x="975" y="1590" on="1"/>
        <pt x="995" y="1570" on="1"/>
        <pt x="952" y="1528" on="0"/>
        <pt x="952" y="1418" on="1"/>
        <pt x="952" y="-174" on="1"/>
        <pt x="952" y="-284" on="0"/>
        <pt x="995" y="-326" on="1"/>
        <pt x="975" y="-346" on="1"/>
        <pt x="935" y="-307" on="0"/>
        <pt x="875" y="-307" on="1"/>
        <pt x="159" y="-307" on="1"/>
        <pt x="98" y="-307" on="0"/>
        <pt x="59" y="-346" on="1"/>
        <pt x="39" y="-326" on="1"/>
        <pt x="78" y="-287" on="0"/>
        <pt x="78" y="-226" on="1"/>
        <pt x="83" y="-98" on="1"/>
        <pt x="83" y="9" on="0"/>
        <pt x="39" y="53" on="1"/>
        <pt x="59" y="74" on="1"/>
        <pt x="103" y="29" on="0"/>
        <pt x="206" y="29" on="1"/>
        <pt x="297" y="42" on="1"/>
        <pt x="402" y="42" on="0"/>
        <pt x="448" y="-4" on="1"/>
        <pt x="469" y="16" on="1"/>
        <pt x="429" y="55" on="0"/>
        <pt x="429" y="116" on="1"/>
        <pt x="429" y="1129" on="1"/>
        <pt x="429" y="1189" on="0"/>
        <pt x="469" y="1228" on="1"/>
        <pt x="448" y="1248" on="1"/>
        <pt x="402" y="1202" on="0"/>
        <pt x="297" y="1202" on="1"/>
        <pt x="206" y="1216" on="1"/>
        <pt x="104" y="1216" on="0"/>
        <pt x="59" y="1170" on="1"/>
        <pt x="39" y="1191" on="1"/>
        <pt x="83" y="1235" on="0"/>
      </contour>
    </TTGlyph>
    <TTGlyph name="breve" xMin="83" yMin="1344" xMax="844" yMax="1711">
      <contour>
        <pt x="624" y="1711" on="1"/>
        <pt x="844" y="1711" on="1"/>
        <pt x="840" y="1565" on="0"/>
        <pt x="746" y="1457" on="1"/>
        <pt x="647" y="1344" on="0"/>
        <pt x="463" y="1344" on="1"/>
        <pt x="284" y="1344" on="0"/>
        <pt x="184" y="1458" on="1"/>
        <pt x="91" y="1565" on="0"/>
        <pt x="83" y="1711" on="1"/>
        <pt x="302" y="1711" on="1"/>
        <pt x="307" y="1649" on="0"/>
        <pt x="391" y="1561" on="0"/>
        <pt x="536" y="1561" on="0"/>
        <pt x="621" y="1648" on="0"/>
      </contour>
    </TTGlyph>
    <TTGlyph name="brokenbar" xMin="168" yMin="-61" xMax="566" yMax="1544">
      <contour>
        <pt x="472" y="-49" on="1"/>
        <pt x="263" y="-49" on="1"/>
        <pt x="217" y="-49" on="0"/>
        <pt x="173" y="-57" on="0"/>
        <pt x="168" y="-57" on="0"/>
        <pt x="168" y="-53" on="0"/>
        <pt x="172" y="-43" on="1"/>
        <pt x="182" y="-13" on="0"/>
        <pt x="182" y="32" on="1"/>
        <pt x="182" y="556" on="1"/>
        <pt x="182" y="601" on="0"/>
        <pt x="168" y="643" on="0"/>
        <pt x="168" y="645" on="0"/>
        <pt x="173" y="645" on="0"/>
        <pt x="184" y="643" on="1"/>
        <pt x="217" y="637" on="0"/>
        <pt x="263" y="637" on="1"/>
        <pt x="472" y="637" on="1"/>
        <pt x="518" y="637" on="0"/>
        <pt x="562" y="645" on="0"/>
        <pt x="566" y="645" on="0"/>
        <pt x="566" y="643" on="0"/>
        <pt x="563" y="633" on="1"/>
        <pt x="554" y="603" on="0"/>
        <pt x="554" y="556" on="1"/>
        <pt x="554" y="32" on="1"/>
        <pt x="554" y="-15" on="0"/>
        <pt x="562" y="-57" on="0"/>
        <pt x="562" y="-61" on="0"/>
        <pt x="558" y="-61" on="0"/>
        <pt x="548" y="-58" on="1"/>
        <pt x="518" y="-49" on="0"/>
      </contour>
      <contour>
        <pt x="175" y="832" on="1"/>
        <pt x="182" y="931" on="1"/>
        <pt x="182" y="1454" on="1"/>
        <pt x="182" y="1499" on="0"/>
        <pt x="168" y="1541" on="0"/>
        <pt x="168" y="1544" on="0"/>
        <pt x="173" y="1544" on="0"/>
        <pt x="184" y="1542" on="1"/>
        <pt x="223" y="1535" on="0"/>
        <pt x="263" y="1535" on="1"/>
        <pt x="472" y="1535" on="1"/>
        <pt x="513" y="1535" on="0"/>
        <pt x="562" y="1544" on="0"/>
        <pt x="566" y="1544" on="0"/>
        <pt x="566" y="1542" on="0"/>
        <pt x="563" y="1532" on="1"/>
        <pt x="554" y="1500" on="0"/>
        <pt x="554" y="1454" on="1"/>
        <pt x="554" y="931" on="1"/>
        <pt x="554" y="885" on="0"/>
        <pt x="566" y="845" on="0"/>
        <pt x="566" y="842" on="0"/>
        <pt x="562" y="842" on="0"/>
        <pt x="551" y="844" on="1"/>
        <pt x="518" y="850" on="0"/>
        <pt x="472" y="850" on="1"/>
        <pt x="263" y="850" on="1"/>
        <pt x="214" y="850" on="0"/>
        <pt x="176" y="830" on="1"/>
        <pt x="175" y="830" on="0"/>
      </contour>
    </TTGlyph>
    <TTGlyph name="bullet" xMin="146" yMin="137" xMax="742" yMax="946">
      <contour>
        <pt x="292" y="624" on="1"/>
        <pt x="244" y="624" on="0"/>
        <pt x="244" y="534" on="0"/>
        <pt x="279" y="495" on="0"/>
        <pt x="323" y="495" on="1"/>
        <pt x="380" y="495" on="0"/>
        <pt x="380" y="576" on="1"/>
        <pt x="380" y="597" on="0"/>
        <pt x="322" y="624" on="0"/>
      </contour>
      <contour>
        <pt x="196" y="443" on="1"/>
        <pt x="204" y="491" on="1"/>
        <pt x="204" y="498" on="0"/>
        <pt x="192" y="527" on="1"/>
        <pt x="146" y="624" on="0"/>
        <pt x="146" y="707" on="1"/>
        <pt x="146" y="821" on="0"/>
        <pt x="322" y="946" on="0"/>
        <pt x="576" y="946" on="0"/>
        <pt x="742" y="813" on="0"/>
        <pt x="742" y="698" on="1"/>
        <pt x="742" y="659" on="0"/>
        <pt x="731" y="627" on="0"/>
        <pt x="688" y="522" on="0"/>
        <pt x="688" y="504" on="1"/>
        <pt x="698" y="446" on="1"/>
        <pt x="698" y="424" on="0"/>
        <pt x="677" y="407" on="0"/>
        <pt x="646" y="400" on="1"/>
        <pt x="587" y="386" on="0"/>
        <pt x="562" y="322" on="1"/>
        <pt x="552" y="325" on="1"/>
        <pt x="539" y="354" on="1"/>
        <pt x="436" y="351" on="0"/>
        <pt x="349" y="338" on="0"/>
        <pt x="332" y="316" on="1"/>
        <pt x="320" y="322" on="1"/>
        <pt x="316" y="361" on="0"/>
        <pt x="286" y="391" on="0"/>
        <pt x="219" y="399" on="0"/>
        <pt x="196" y="416" on="0"/>
      </contour>
      <contour>
        <pt x="577" y="252" on="1"/>
        <pt x="585" y="319" on="0"/>
        <pt x="602" y="341" on="0"/>
        <pt x="610" y="346" on="1"/>
        <pt x="610" y="325" on="0"/>
        <pt x="602" y="262" on="0"/>
        <pt x="600" y="235" on="1"/>
        <pt x="537" y="137" on="0"/>
        <pt x="439" y="137" on="1"/>
        <pt x="382" y="137" on="0"/>
        <pt x="314" y="185" on="0"/>
        <pt x="279" y="235" on="1"/>
        <pt x="279" y="334" on="1"/>
        <pt x="318" y="250" on="1"/>
        <pt x="394" y="225" on="0"/>
        <pt x="518" y="240" on="1"/>
        <pt x="561" y="246" on="0"/>
      </contour>
      <contour>
        <pt x="588" y="624" on="1"/>
        <pt x="558" y="624" on="0"/>
        <pt x="500" y="597" on="0"/>
        <pt x="500" y="576" on="1"/>
        <pt x="500" y="495" on="0"/>
        <pt x="557" y="495" on="1"/>
        <pt x="601" y="495" on="0"/>
        <pt x="636" y="534" on="0"/>
        <pt x="636" y="624" on="0"/>
      </contour>
      <contour>
        <pt x="417" y="434" on="1"/>
        <pt x="476" y="438" on="1"/>
        <pt x="484" y="438" on="0"/>
        <pt x="496" y="455" on="0"/>
        <pt x="496" y="479" on="0"/>
        <pt x="483" y="502" on="1"/>
        <pt x="458" y="519" on="0"/>
        <pt x="443" y="537" on="1"/>
        <pt x="441" y="533" on="0"/>
        <pt x="391" y="474" on="0"/>
        <pt x="391" y="465" on="1"/>
        <pt x="391" y="434" on="0"/>
      </contour>
    </TTGlyph>
</ttFont>
